<?xml version="1.0" encoding="UTF-8"?>
<svg id="Capa_1" xmlns="http://www.w3.org/2000/svg" xmlns:xlink="http://www.w3.org/1999/xlink" version="1.1" viewBox="0 0 580 220">
  <!-- Generator: Adobe Illustrator 29.6.1, SVG Export Plug-In . SVG Version: 2.1.1 Build 9)  -->
  <defs>
    <style>
      .st0, .st1, .st2, .st3 {
        fill: none;
      }

      .st1 {
        stroke-linecap: round;
        stroke-miterlimit: 10;
        stroke-width: 2px;
      }

      .st1, .st2 {
        stroke: #bfff00;
      }

      .st4, .st5 {
        fill: #fff;
      }

      .st6 {
        opacity: .6;
      }

      .st5 {
        fill-rule: evenodd;
        stroke-miterlimit: 4;
        stroke-width: 1px;
      }

      .st5, .st3 {
        stroke: #fff;
      }

      .st2 {
        stroke-width: 3px;
      }

      .st7 {
        clip-path: url(#clippath);
      }
    </style>
    <clipPath id="clippath">
      <rect class="st0" x="3.2" y="21.6" width="571.8" height="191.6"/>
    </clipPath>
  </defs>
  <g id="Artboard">
    <g id="Group-14">
      <path id="Oval-Copy-13" class="st2" d="M458.6,31.2c16.2,0,29.4,13.1,29.4,29.4s-13.1,29.4-29.4,29.4-29.4-13.1-29.4-29.4c0-16.2,13.1-29.4,29.4-29.4h0Z"/>
      <path id="Oval" class="st3" d="M452.2,75.9c7.3,3.8,16.5,0,20.7-8.4s1.7-18.4-5.6-22.2-16.5,0-20.7,8.4-1.7,18.4,5.6,22.2Z"/>
      <path id="Oval-Copy-5" class="st5" d="M465.3,59.4c-2,3-3.5,7.2-3.3,9.3,0,.9.3,1.1.8.9,1-.7,1.9-1.6,2.5-2.7,2-3,3.5-7.2,3.3-9.3,0-.9-.3-1.1-.8-.9-1,.7-1.9,1.6-2.5,2.7Z"/>
    </g>
  </g>
  <g id="Grupo_139" class="st6">
    <g class="st7">
      <g id="Grupo_138">
        <path id="Trazado_261" class="st1" d="M3.4,213c15.1-32.1,29.6-51.3,53.2-77.8,8.2-9.3,18.9-18.9,29.4-17.4,8.5,1.2,13.6,9.6,16.3,18.1s4,18,8.8,25.2c6.1,9.2,17.1,13.1,28.2,14,21.9,1.7,45.4-7.1,66.2-20.4s39.5-30.8,57.8-48.3c6.7-6.3,16.4-16.7,22.1-15.8,7.7,1.2,11.7,14.8,25.5,11.5,25.3-6.9,48.1-31.1,52.2-43.8,41,19.6,40.8,61.9,91.4,67.7,46.2,5.3,90.1-61.6,120.3-104.1"/>
      </g>
    </g>
  </g>
  <circle id="Elipse_21" class="st4" cx="272.6" cy="72.6" r="4"/>
  <circle id="Elipse_22" class="st4" cx="358.6" cy="40.6" r="4"/>
  <circle id="Elipse_23" class="st4" cx="573.6" cy="6.6" r="4"/>
</svg>