<?xml version="1.0" encoding="UTF-8"?>
<svg id="Capa_1" data-name="Capa 1" xmlns="http://www.w3.org/2000/svg" viewBox="0 0 100 100">
  <path d="M49.34,70.22c-.92-.28-1.83-.75-2.4-1.57-.11-.16-.59-1.12-.59-1.23V27.77c-.23-.06-.39.19-.39.19,0,0-7.21,7.76-10.05,10.05s-7.05-.34-5.94-3.99c.19-.63,1.13-1.73,1.13-1.73l15.93-15.74s.6-.62.89-.93c1.89-1.13,3.44-.64,5,.7.44.38,1.31,1.16,1.31,1.16l14.54,14.9s.6.58.87.84c2.16,3.66-2.25,7.47-5.57,4.79-2.84-2.29-10.05-10.05-10.05-10.05,0,0-.16-.25-.39-.19v39.66c0,.1-.48,1.07-.59,1.23-.57.81-1.47,1.28-2.4,1.57h-1.3Z"/>
  <path d="M82.4,65.9v5.72c-.19.88-.32,1.76-.56,2.63-1.3,4.84-5.37,8.9-10.2,10.2-.87.23-1.75.37-2.63.56H30.98c-.88-.19-1.76-.32-2.63-.56-4.84-1.3-8.9-5.36-10.2-10.2-.23-.87-.37-1.75-.56-2.63v-5.85c.79-2.57,3.61-3.91,5.91-2.21s1.26,4.99,1.51,7.46c.35,3.53,3.4,6.38,6.93,6.58h36.09c3.59-.19,6.62-3.12,6.94-6.7.22-2.46-.8-5.63,1.5-7.34s5.27-.31,5.91,2.34Z"/>
</svg>