<?xml version="1.0" encoding="UTF-8"?>
<svg id="Capa_1" data-name="Capa 1" xmlns="http://www.w3.org/2000/svg" viewBox="0 0 100 100">
  <path d="M34.74,89.81c1.89-.09,3.81-.13,5.75-.13,2.95,0,5.94.08,8.86.16,5.27.14,10.73.29,15.91-.04,7.51-.48,13.12-6.02,13.63-13.46v-40.78c-.19-2.26-1.73-3.39-3.18-3.49-1.43-.11-3.06.75-3.56,2.9v41.4c-.37,3.54-2.98,6.22-6.5,6.69h-31.11c-3.46-.35-6.05-2.78-6.64-6.17l-.05-41.82c-.25-1.82-1.86-3.16-3.64-3-1.63.14-3.02,1.65-3.11,3.35.28,6.35.11,12.98-.05,19.39-.18,7.02-.36,14.28.04,21.2.45,7.75,5.93,13.29,13.63,13.8Z"/>
  <path d="M82.21,25.78c.54-1.27.28-2.67-.68-3.66-.36-.37-1.62-1.02-2.09-1.02h-15.23v-8.4c-.03-.07-.41-.88-.49-1.01-.73-1.12-2.07-1.45-3.07-1.52-3.71-.28-7.67-.15-11.51-.03-3.42.11-6.96.23-10.32.05-1.11.2-2.06.74-2.54,1.5-.08.12-.46.94-.5,1.07v8.34s-15.22,0-15.22,0c-.47,0-1.73.65-2.09,1.02-.9.93-1.19,2.22-.77,3.44.42,1.22,1.47,2.09,2.75,2.28l58.66.02c1.37,0,2.56-.8,3.1-2.07ZM57.64,21.1h-15.27v-4.18h15.27v4.18Z"/>
  <path d="M46.13,42.92c-.1-1.23-.58-2.25-1.37-2.88-.69-.56-1.59-.77-2.61-.64-1.44.2-2.66,1.53-2.77,3.01.26,3.97.1,8.24-.05,12.38-.16,4.53-.33,9.21.04,13.52.19,2.2,1.86,3.21,3.33,3.22h.01c1.54,0,3.19-1.05,3.41-3.4-.23-3.88-.09-8.03.04-12.04.15-4.39.3-8.94-.03-13.17Z"/>
  <path d="M57.06,71.54c1.44.1,3.08-.77,3.57-2.95l.02-26.04c-.08-1.01-.55-1.91-1.32-2.51-.74-.58-1.68-.81-2.66-.64-1.51.25-2.71,1.69-2.78,3.35.23,3.89.09,8.04-.04,12.05-.15,4.4-.3,8.94.03,13.18.18,2.32,1.73,3.46,3.18,3.57Z"/>
</svg>