<?xml version="1.0" encoding="UTF-8"?>
<svg id="Capa_1" data-name="Capa 1" xmlns="http://www.w3.org/2000/svg" viewBox="0 0 100 100">
  <path d="M76.97,80.01V20.56s2.84-12.31,2.84-12.31v-.03c.26-1.29-.26-2.52-1.3-3.05l-.26-.13-56.04-.04h-.21s-.19.07-.19.07c-1.19.42-1.85,1.75-1.57,3.16l2.84,12.34v59.28s-2.96,13.09-2.96,13.09l1.39,2.02,56.3.06h.33s.28-.17.28-.17c.77-.46,1.6-1.47,1.4-2.77l-2.86-12.05ZM27.42,17.58l-1.66-7.37h48.54l-1.57,7.34c-.56.08-1.71.04-3.43-.13-.39-.04-.68-.07-.87-.07-6.75-.17-12.53-.25-18.34-.25s-11.64.08-18.49.25c-.26,0-.66.04-1.17.08-.65.05-2.14.17-3.02.15ZM72.27,22.61v56.25H27.78V22.61h44.49ZM25.74,89.83l1.19-5.73h46.21l1.19,5.73H25.74Z"/>
  <path d="M45.18,54.48c1.17.53,2.35.79,3.45.79,1.88,0,3.57-.75,4.76-2.21.2-.24.42-.65.63-1.05.14-.27.36-.67.43-.75.14-.11.54-.31.88-.48.4-.2.81-.4,1.11-.6,2.37-1.6,4.43-4.25,5.65-7.28,1.29-3.21,1.52-6.46.63-9.16-.96-2.92-3.47-4.71-6.39-4.55-2.8.15-5.53,1.84-8.12,5.03-.21-.12-.52-.31-.71-.43-.33-.21-.53-.34-.68-.41-2-.93-4.07-1.06-5.83-.36-1.61.64-2.84,1.91-3.56,3.68-1.15,2.85-.87,6.56.78,10.19,1.58,3.48,4.19,6.31,6.97,7.57ZM47.7,44.13c-.28-.26-.61-.5-.93-.73-.37-.27-.72-.53-.99-.8-1.51-1.53-2.87-5.03-3.06-7.09.1-.04.31-.08.63-.08h0c4.33,0,8.43,6.39,8.81,10.56.14,1.55.06,2.8-.22,3.64-1.07-2.01-2.59-3.97-4.25-5.49ZM50.01,52.14c-.17.08-.48.17-.72.2-4.42.54-8.28-4.93-9.26-8.91-.46-1.89-.59-4.27.24-5.87.56,2.58,1.64,4.92,3.02,6.52.44.51.92.89,1.39,1.27.31.25.6.48.87.74,2.27,2.18,3.7,4.11,4.46,6.06ZM54.44,42.8c.29-.29.6-.55.94-.82.44-.36.89-.74,1.3-1.2,1.38-1.56,2.39-3.72,3.1-6.57,1.09,2.2.4,5.24.13,6.21-.76,2.77-2.68,5.67-4.72,7.12,0-1.63-.26-3.22-.75-4.75ZM50.46,36.14c.08-.14.25-.39.58-.78,1.41-1.66,3.71-3.32,5.7-3.32.02,0,.03,0,.05,0,.28,0,.45.04.52.08-.23,2.67-1.82,5.97-3.64,7.55-.12.11-.28.23-.42.34-.51-1.09-1.24-2.1-1.78-2.79-.12-.15-.33-.38-.56-.61-.14-.15-.34-.35-.45-.47Z"/>
  <path d="M37.39,65.27h25.26s.01,0,.01,0c.85-.1,1.48-.64,1.62-1.37.14-.72-.23-1.41-.96-1.8l-.05-.03-26.17-.1h-.04s-.04.01-.04.01c-.86.29-1.36,1-1.28,1.8.09.8.73,1.39,1.64,1.49Z"/>
  <path d="M37.39,71.71h25.26s.01,0,.01,0c.85-.1,1.48-.64,1.62-1.37.14-.72-.23-1.41-.96-1.8l-.05-.03-26.17-.1h-.04s-.04.01-.04.01c-.86.29-1.36,1-1.28,1.8.09.8.73,1.39,1.64,1.49Z"/>
</svg>