<?xml version="1.0" encoding="UTF-8"?>
<svg id="Capa_1" data-name="Capa 1" xmlns="http://www.w3.org/2000/svg" viewBox="0 0 100 100">
  <path d="M81,35.98c0-.88-.38-1.66-.98-2.21l-20.79-20.79c-.55-.6-1.33-.98-2.21-.98,0,0,0,0,0,0s0,0,0,0h-28c-5.51,0-10,4.49-10,10v56c0,5.51,4.49,10,10,10h42c5.51,0,10-4.49,10-10v-42s0,0,0,0,0,0,0,0ZM60.02,22.26l10.72,10.72h-10.72v-10.72ZM71,82H29c-2.21,0-4-1.79-4-4V22c0-2.21,1.79-4,4-4h25.02v17.98c0,1.66,1.34,3,3,3h17.98v39.02c0,2.21-1.79,4-4,4Z"/>
  <path d="M36.04,42.51h7c1.66,0,3-1.34,3-3s-1.34-3-3-3h-7c-1.66,0-3,1.34-3,3s1.34,3,3,3Z"/>
  <path d="M36.04,56.48h27.96c1.66,0,3-1.34,3-3s-1.34-3-3-3h-27.96c-1.66,0-3,1.34-3,3s1.34,3,3,3Z"/>
  <path d="M64.01,64.48h-27.98c-1.66,0-3,1.34-3,3s1.34,3,3,3h27.98c1.66,0,3-1.34,3-3s-1.34-3-3-3Z"/>
</svg>