<?xml version="1.0" encoding="UTF-8"?>
<svg id="Capa_1" data-name="Capa 1" xmlns="http://www.w3.org/2000/svg" viewBox="0 0 100 100">
  <path id="Icon_fa-solid-file-signature" data-name="Icon fa-solid-file-signature" d="M30.67,18.87c-4.35,0-7.87,3.53-7.88,7.88v47.25c0,4.35,3.53,7.87,7.88,7.88h31.5c4.35,0,7.87-3.53,7.88-7.88v-2.38c-.33.13-.66.25-1.01.33l-7.4,1.85c-.36.09-.73.15-1.11.17-.11.01-.22.02-.33.02h-7.88c-.74,0-1.43-.42-1.76-1.08l-1.08-2.18c-.21-.41-.62-.67-1.08-.68-.46,0-.88.26-1.08.68l-1.08,2.18c-.48.97-1.66,1.37-2.63.89-.49-.24-.85-.67-1.01-1.2l-2.08-6.87-1.2,4.04c-.75,2.5-3.05,4.22-5.66,4.22h-1.01c-1.09,0-1.97-.88-1.97-1.97s.88-1.97,1.97-1.97h1.01c.87,0,1.64-.56,1.89-1.4l1.83-6.09c.52-1.74,2.36-2.72,4.1-2.2,1.06.32,1.88,1.14,2.2,2.2l1.43,4.75c2.18-1.83,5.44-1.53,7.26.65.26.31.47.64.65.99l.54,1.08h1.09c-.39-1.1-.45-2.29-.17-3.42l1.85-7.4c.34-1.38,1.05-2.65,2.06-3.65l11.66-11.66v-5.34h-15.74c-2.17.01-3.94-1.74-3.95-3.91,0,0,0-.01,0-.02v-15.75h-19.67ZM54.29,18.87v15.75h15.75l-15.75-15.75ZM90.45,36.06c-1.93-1.92-5.04-1.92-6.96,0l-3.62,3.62,8.74,8.74,3.62-3.62c1.92-1.93,1.92-5.04,0-6.96l-1.77-1.77ZM61.18,58.37c-.51.51-.86,1.14-1.03,1.83l-1.85,7.4c-.27,1.05.37,2.12,1.42,2.39.32.08.65.08.97,0l7.4-1.85c.69-.17,1.33-.53,1.83-1.03l15.9-15.91-8.76-8.74-15.88,15.91Z"/>
</svg>