<?xml version="1.0" encoding="UTF-8"?>
<svg id="Capa_1" data-name="Capa 1" xmlns="http://www.w3.org/2000/svg" viewBox="0 0 100 100">
  <path d="M94.45,34.5c-.55-6.84-4.69-13.65-11.07-18.22-8.59-6.15-20.18-7.94-30.24-4.67-9.01,2.93-15.57,9.34-18.47,18.06l-.02.07-.79,3.93c-.47.07-.95.14-1.42.21-1.39.2-2.82.41-4.24.75-9.7,2.38-17.77,9.04-21.07,17.39-2.78,7.03-1.89,14.62,2.51,21.37.41.63.85,1.16,1.28,1.67.87,1.04,1.56,1.86,1.63,3.12.1,1.8-.53,4.05-1.57,5.59-.15.22-.36.45-.58.69-.68.73-1.7,1.84-1.26,3.48.43,1.62,1.93,2.05,3.47,2.05,1.19,0,2.41-.26,3.18-.42l.2-.04c3.29-.69,6.36-2.24,9.11-4.62,1.47.44,3.03.85,4.62,1.12,7.38,1.22,15.27.15,21.64-2.95,7.18-3.49,12.06-9.15,14.11-16.37.34-1.2.54-2.42.74-3.6.01-.07.02-.13.03-.2.16-.02.33-.04.49-.06,2.73-.35,5.55-.71,8.28-1.57,2.73,2.36,5.78,3.91,9.09,4.61l.18.04c1.97.42,4.19.79,5.62-.16.59-.39.98-.97,1.11-1.68.27-1.38-.72-2.6-1.58-3.68-.37-.46-.76-.94-.93-1.31-.85-1.76-1.18-4.11-.8-5.69.11-.36,1.02-1.46,1.51-2.05.43-.52.84-1.02,1.1-1.41,2.2-3.31,3.59-7.18,4.13-11.5v-.07s0-3.79,0-3.79v-.09ZM84.35,48.33c-1.01,1.17-1.69,1.99-1.94,2.71-.83,2.41-.58,5.53-.12,7.47l.31.95c-1.06-.47-2.12-1.13-3.2-1.96-.13-.1-.45-.39-.73-.66-1.28-1.18-1.66-1.49-2.13-1.58-.22-.04-.43-.06-.64-.06-.84,0-1.64.29-2.36.56-.34.12-.65.24-.92.31-2.43.6-4.5.95-6.43,1.08-.02-.2-.04-.4-.06-.55-.05-.47-.08-.77-.12-.97-.95-4.77-3.34-9.2-6.96-12.95h19.59l.11-.02c1.29-.26,2.21-1.47,2.18-2.89-.03-1.43-1-2.54-2.41-2.75h-.09s-27.08-.02-27.08-.02c-.62-.23-1.25-.49-1.86-.74-1.39-.56-2.83-1.15-4.35-1.55-1.78-.47-3.59-.71-5.33-.94-.04,0-.09-.01-.13-.02,1.39-10.75,12.33-17.63,22.5-18.11,4.8-.23,9.89.92,14.36,3.24,4.43,2.3,8.04,5.65,10.17,9.42,1.59,2.81,2.33,5.77,2.22,8.8-.12,3.32-1.28,6.63-3.45,9.86-.24.35-.69.88-1.13,1.38ZM18.02,76.26c-.34-2.03-1.3-3.13-2.23-4.19-.42-.48-.85-.97-1.24-1.57-4.93-7.42-3.53-13.81-1.48-17.86,1.84-3.65,4.91-6.86,8.88-9.28,3.98-2.43,8.49-3.84,13.04-4.07.44-.02.88-.03,1.33-.03,7.87,0,15.75,3.55,20.35,9.25,2.69,3.33,5.46,8.88,3.42,16.45-2.12,7.87-7.95,11.75-12.46,13.61-5.8,2.4-12.84,2.89-19.34,1.36-.31-.07-.73-.22-1.17-.37-1.23-.42-2.5-.85-3.55-.64-.52.1-.96.49-2.19,1.65-.32.3-.68.64-.83.76-.95.73-1.98,1.33-3.01,1.78.72-2.32.88-4.58.5-6.83Z"/>
  <path d="M21.77,69.7h28.43s.07,0,.07,0c1.55-.18,2.63-1.35,2.62-2.84,0-1.5-1.08-2.66-2.63-2.84h-.07s-28.59.04-28.59.04h-.16s-.16.05-.16.05c-1.37.4-2.25,1.63-2.14,3,.11,1.38,1.16,2.43,2.62,2.6Z"/>
  <path d="M31.49,57.79h.08s18.86.01,18.86.01h.08c1.41-.2,2.4-1.37,2.4-2.85,0-1.48-.99-2.65-2.4-2.84h-.08s-19.22.03-19.22.03l-.18.06c-1.26.42-2.05,1.67-1.92,3.04.12,1.34,1.08,2.37,2.39,2.55Z"/>
  <path d="M21.98,57.8c.13,0,.26,0,.39-.02,1.04-.12,1.86-.73,2.24-1.68.41-1.01.23-2.19-.45-3.02-.65-.79-1.66-1.13-2.76-.92-1.49.29-2.43,1.67-2.2,3.22.19,1.25,1.2,2.42,2.77,2.42Z"/>
  <path d="M71.02,25.77h-.08s-19.22.03-19.22.03l-.18.06c-1.26.42-2.05,1.67-1.92,3.04.12,1.34,1.08,2.37,2.39,2.55h.08s18.86.01,18.86.01h.08c1.41-.2,2.4-1.37,2.4-2.85,0-1.48-.99-2.65-2.4-2.84Z"/>
</svg>