<?xml version="1.0" encoding="UTF-8"?>
<svg id="Capa_1" xmlns="http://www.w3.org/2000/svg" version="1.1" viewBox="0 0 100 100">
  <!-- Generator: Adobe Illustrator 29.6.1, SVG Export Plug-In . SVG Version: 2.1.1 Build 9)  -->
  <g>
    <path d="M5,50.5v-1c1-2.1,2.8-4.1,4.3-5.8,10.5-11.9,26.2-23.3,42.9-22.3,13.9.8,27.7,10.7,36.8,20.5,1.2,1.3,5.2,5.6,5.7,7,.3.8.3,1.6,0,2.5-.5,1.3-4.5,5.7-5.7,7-9.2,9.9-23,19.8-37,20.5-16.6.9-32.3-10.5-42.7-22.3-1.5-1.8-3.3-3.7-4.3-5.8h0ZM47.2,27.4c-4.7.4-10.1,2.4-14.2,4.6-8.1,4.3-15.3,10.9-21.1,18,0,.3,3.1,3.8,3.6,4.3,7.6,8.1,19.2,16.8,30.4,18.3,15,1.9,29.1-8,38.8-18.4.5-.6,3.2-3.5,3.3-3.9.1-.3-.2-.7-.4-1-9-11.5-25.2-23-40.5-21.8h0Z"/>
    <path d="M48,32.3c14.4-1.3,24.5,13.5,17.5,26.3-6,11-21.6,12.3-29.5,2.5-8.7-10.8-1.9-27.6,11.9-28.9h0ZM50,38.1c-15.6,0-15.5,23.9.1,23.8,15.6,0,15.4-23.9-.1-23.8Z"/>
  </g>
  <path d="M9.9,84.2c-.9,0-1.8-.4-2.4-1.2-1-1.3-.8-3.2.5-4.2L87.5,17.2c1.3-1,3.2-.8,4.2.5,1,1.3.8,3.2-.5,4.2L11.7,83.5c-.5.4-1.2.6-1.8.6Z"/>
</svg>