<?xml version="1.0" encoding="UTF-8"?>
<svg id="Capa_1" data-name="Capa 1" xmlns="http://www.w3.org/2000/svg" viewBox="0 0 100 100">
  <path d="M83.86,36.69c-1.61-14.34-14.59-24.69-28.92-23.09-6.95.78-13.17,4.21-17.53,9.68-4.36,5.46-6.33,12.3-5.56,19.24.55,4.9,2.43,9.44,5.4,13.22l-21.81,23.59c-2.06,2.23-1.93,5.71.3,7.77,1.06.98,2.4,1.46,3.73,1.46,1.48,0,2.96-.59,4.04-1.77l22.2-24.01s0,0,0,0c3.72,1.96,7.84,3,12.08,3,.98,0,1.97-.05,2.97-.17,14.34-1.61,24.7-14.58,23.09-28.92ZM59.99,58.65c-5.09.58-10.09-.88-14.09-4.07s-6.52-7.76-7.09-12.84.88-10.09,4.07-14.09,7.76-6.52,12.84-7.09c.72-.08,1.44-.12,2.15-.12,9.62,0,17.94,7.25,19.03,17.03,1.18,10.5-6.41,20.01-16.91,21.18Z"/>
</svg>