<?xml version="1.0" encoding="UTF-8"?>
<svg id="Capa_1" data-name="Capa 1" xmlns="http://www.w3.org/2000/svg" viewBox="0 0 100 100">
  <defs>
    <style>
      .cls-1 {
        fill: #fff;
      }
    </style>
  </defs>
  <path id="Icon_material-phone-in-talk" data-name="Icon material-phone-in-talk" class="cls-1" d="M81.11,63.61c-4.72,0-9.4-.74-13.88-2.22-1.39-.44-2.92-.09-3.97.93l-8.55,8.55c-11.04-5.61-20.01-14.59-25.63-25.63l8.55-8.59c1.05-1,1.43-2.51.97-3.89-1.48-4.48-2.22-9.17-2.22-13.88,0-2.15-1.74-3.88-3.89-3.89h-13.61c-2.14,0-3.88,1.74-3.89,3.89,0,36.51,29.59,66.11,66.09,66.11h.02c2.14,0,3.88-1.74,3.89-3.89v-13.61c0-2.14-1.74-3.88-3.89-3.89ZM77.22,50h7.78c0-19.33-15.67-35-35-35v7.78c15.02-.01,27.21,12.16,27.22,27.18,0,.01,0,.02,0,.04ZM61.67,50h7.78c0-10.74-8.71-19.44-19.45-19.45v7.78c6.44,0,11.67,5.22,11.67,11.67Z"/>
</svg>