<?xml version="1.0" encoding="UTF-8"?>
<svg id="Capa_1" data-name="Capa 1" xmlns="http://www.w3.org/2000/svg" viewBox="0 0 100 100">
  <path d="M60.54,91.2H27.88c-5.87-.85-10.46-5.41-11.07-11.35l-.03-44.36c.53-6.27,5.48-11.23,11.8-11.64,10.17-.66,21.03.51,31.26,0,6.32.41,11.26,5.37,11.8,11.64v43.92c-.29,5.87-5.21,11.19-11.1,11.79ZM28.47,30.15c-2.93.42-5.11,2.73-5.43,5.66v43.28c.26,3.16,2.68,5.61,5.85,5.86h30.64c3.16-.27,5.61-2.69,5.86-5.86v-43.14c-.25-3.12-2.62-5.5-5.71-5.85l-31.2.04Z"/>
  <path d="M73.04,11.2c5.94.86,10.52,5.48,11.09,11.49v48.43c-.39,3.85-5.86,3.85-6.25,0V23.3c-.24-3.12-2.62-5.5-5.71-5.85l-35.74-.04c-3.45-.67-3.48-5.31-.12-6.21h36.72Z"/>
</svg>