<?xml version="1.0" encoding="UTF-8"?>
<svg id="Capa_1" data-name="Capa 1" xmlns="http://www.w3.org/2000/svg" viewBox="0 0 100 100">
  <path d="M16.11,29.39L50.03,10c.87-.06,3.13,1.28,4.04,1.75,8.38,4.38,17.69,9.98,25.82,14.91,1.62.98,4.9,2.38,5.19,4.27l-.17,39.07c-.42.55-.95,1-1.51,1.4-9.14,6.64-21.94,11.48-31.38,18.08-1.77,1.24-3.37-.05-4.99-.86-10.27-5.17-20.15-12.29-30.43-17.58-.97-.56-1.39-1.55-1.35-2.65.84-11.72-1.06-24.86,0-36.41.09-.99.28-1.78.86-2.6ZM24.36,31.1c-.64.87,4.2,2.79,4.75,3.46l.7.03,25.82-14.95c-1.3-.83-4.43-3.28-5.81-2.94l-25.46,14.4ZM64.73,24.55c-1.36-.28-2.41-1.97-3.89-1.19l-25.2,14.83,3.28,1.84,25.2-14.45.6-1.02ZM76.37,31.82c-1.27-1.16-4.51-3.63-6.19-3.12l-24.86,14.37-.23.75,5.48,2.75,25.79-14.75ZM21.09,36.55v30.55l26.19,14.91v-30.55l-5.46-2.91v10.37c0,1.08-2.59,2.57-3.73,1.92l-10.83-6.28c-1.68-2.15-.23-11.76-.7-14.86l-5.47-3.15ZM79.28,36.91l-26.19,15.09v30.01l26.19-15.09v-30.01ZM36,44.91c-1.42-.08-2.27-1.54-3.64-1.45v7.64l3.64,1.82v-8Z"/>
</svg>