<?xml version="1.0" encoding="UTF-8"?>
<svg id="Capa_1" data-name="Capa 1" xmlns="http://www.w3.org/2000/svg" viewBox="0 0 100 100">
  <path d="M73.23,14c2.52.67,4.32,2.4,4.74,5.02l.04,29.81c.08.23,2.07.9,2.49,1.12,10.45,5.34,12.43,19.47,4.05,27.61v18.04c-.16,1.6-1.7,2.72-3.29,2.3l-8.45-4.68-.52.13c-2.43,1.15-5.06,3.32-7.48,4.33-.99.42-1.64.46-2.59-.09-.46-.26-1.29-1.14-1.29-1.66v-9.76H25.09c-2.2,0-5.02-3.24-4.85-5.49V19.17c.36-2.69,2.19-4.49,4.76-5.17h48.22ZM72.74,48.12v-28.62l-.25-.25H25.74l-.25.25v61.18l.25.25h35.18v-3.53c0-.09-1.11-1.07-1.31-1.32-9.26-11.29-1.22-27.86,13.12-27.96ZM71.56,53.42c-15.09,1.37-13.45,24.61,2.08,23.57,15.37-1.03,13.89-25.02-2.08-23.57ZM79.3,80.92c-4.2,1.76-8.93,1.73-13.12,0v9.84c1.81-.57,4.85-3.34,6.64-3.29s4.72,2.75,6.48,3.29v-9.84Z"/>
  <path d="M35.46,27.16l23.24-.02c3.06.61,2.95,4.8-.15,5.23h-22.95c-2.9-.58-3.01-4.49-.14-5.21Z"/>
  <path d="M35.46,37.66l23.24-.02c3.06.61,2.95,4.8-.15,5.23h-22.95c-2.91-.64-3.01-4.47-.14-5.21Z"/>
  <path d="M35.46,48.16h14.19c2.87.72,2.76,4.63-.14,5.2l-14.05-.02c-2.8-.76-2.79-4.45,0-5.17Z"/>
  <path d="M70.77,65.67c1.17-1.75,2.32-4.03,3.64-5.63,2.34-2.84,5.95-.37,4.59,2.63-.69,1.53-4.16,6.59-5.31,7.98-.91,1.1-1.84,1.61-3.29,1.05-.72-.28-4.65-2.93-5.05-3.48-1.23-1.73-.06-4.15,2.05-4.2,1.34-.03,2.29,1.03,3.36,1.65Z"/>
</svg>