<?xml version="1.0" encoding="UTF-8"?>
<svg id="Capa_1" data-name="Capa 1" xmlns="http://www.w3.org/2000/svg" viewBox="0 0 100 100">
  <path d="M5,50.53v-1.05c.99-2.09,2.76-4.06,4.31-5.8,10.5-11.9,26.24-23.27,42.91-22.33,13.87.78,27.67,10.66,36.83,20.48,1.18,1.27,5.19,5.64,5.71,6.95.33.85.33,1.61,0,2.46-.51,1.32-4.52,5.68-5.71,6.95-9.22,9.89-23.04,19.76-37,20.49-16.59.86-32.27-10.48-42.73-22.33-1.54-1.75-3.31-3.72-4.31-5.8ZM47.16,27.38c-4.72.37-10.06,2.39-14.21,4.6-8.1,4.31-15.26,10.93-21.07,17.97-.05.33,3.09,3.76,3.57,4.28,7.56,8.07,19.19,16.82,30.44,18.26,14.98,1.91,29.13-8.02,38.83-18.43.52-.56,3.21-3.47,3.35-3.88.11-.34-.24-.69-.45-.95-9.03-11.49-25.23-23.03-40.47-21.84Z"/>
  <path d="M48.04,32.3c14.39-1.34,24.5,13.52,17.53,26.32-6.01,11.05-21.56,12.32-29.45,2.54-8.72-10.81-1.88-27.58,11.91-28.86ZM49.95,38.11c-15.64.1-15.45,23.87.12,23.78,15.63-.1,15.44-23.87-.12-23.78Z"/>
</svg>