<?xml version="1.0" encoding="UTF-8"?>
<svg id="Capa_1" xmlns="http://www.w3.org/2000/svg" version="1.1" viewBox="0 0 300 80">
  <!-- Generator: Adobe Illustrator 29.6.1, SVG Export Plug-In . SVG Version: 2.1.1 Build 9)  -->
  <defs>
    <style>
      .st0 {
        fill: #fff;
      }

      .st0, .st1 {
        fill-rule: evenodd;
      }

      .st1 {
        fill: #bfff00;
      }
    </style>
  </defs>
  <g id="_05">
    <g id="Group-31-Copy-2">
      <path id="Fill-1" class="st0" d="M127.8,35.2c-1.2-.3-2.2-.9-3.2-1.7l1-2.1c.8.7,1.8,1.3,2.8,1.6,1.1.4,2.3.6,3.5.6,1.2,0,2.5-.2,3.6-.8.7-.5,1.2-1.3,1.2-2.2,0-.6-.2-1.2-.6-1.6-.5-.4-1-.7-1.6-.9-.6-.2-1.5-.5-2.7-.7-1.2-.3-2.3-.6-3.5-1-.9-.3-1.7-.9-2.3-1.6-.7-.8-1-1.9-.9-2.9,0-1,.3-1.9.8-2.8.6-.9,1.5-1.6,2.4-2,1.3-.5,2.7-.8,4.1-.7,1.1,0,2.2.1,3.3.4,1,.3,2,.7,2.8,1.3l-.9,2.2c-.8-.5-1.7-.9-2.6-1.2-.9-.3-1.8-.4-2.7-.4-1.2,0-2.4.2-3.5.8-.7.5-1.2,1.3-1.2,2.2,0,.6.2,1.2.7,1.6.5.4,1,.8,1.6,1,.9.3,1.7.5,2.6.7,1.2.3,2.3.6,3.5,1,.9.3,1.6.9,2.3,1.6.7.8,1,1.8.9,2.9,0,1-.3,1.9-.8,2.8-.6.9-1.5,1.6-2.5,2-1.3.5-2.7.8-4.1.7-1.4,0-2.8-.2-4.2-.7"/>
      <path id="Fill-3" class="st0" d="M158.2,33.5v2.4h-13.9v-19.6h13.5v2.4h-10.8v6h9.6v2.4h-9.6v6.3h11.2Z"/>
      <path id="Fill-5" class="st0" d="M180.9,35.9v-14.3s-7,11.9-7,11.9h-1.3l-6.9-11.8v14.2h-2.6v-19.6h2.3l8,13.8,7.9-13.8h2.3v19.6s-2.6,0-2.6,0Z"/>
      <path id="Fill-7" class="st0" d="M201.5,32.9c.8-.5,1.3-1.5,1.2-2.5,0-2.2-1.6-3.3-4.9-3.3h-6.6v6.5h6.6c1.3,0,2.5-.2,3.7-.8h0ZM191.3,18.6v6.3h5.8c1.2,0,2.4-.2,3.4-.8,1.3-1,1.6-2.8.6-4.1-.2-.2-.4-.4-.6-.6-1-.6-2.2-.9-3.4-.8h-5.8ZM204.6,27.5c.7.9,1,2,1,3.2,0,1.6-.7,3-2,3.9-1.7,1-3.7,1.5-5.7,1.4h-9.5v-19.6h9c1.9-.1,3.7.4,5.3,1.3,1.2.8,1.9,2.2,1.9,3.7,0,.9-.2,1.9-.7,2.7-.5.7-1.2,1.3-2,1.7,1.1.3,2,.9,2.7,1.7h0Z"/>
      <path id="Fill-9" class="st0" d="M220.6,26.4c1-.8,1.5-2,1.4-3.3,0-1.3-.5-2.5-1.4-3.3-1.2-.8-2.7-1.2-4.1-1.1h-4.8v8.8h4.8c1.5,0,2.9-.3,4.1-1.1ZM222.1,35.9l-4.3-6c-.5,0-.9,0-1.2,0h-4.9v6h-2.8v-19.6h7.7c2.2-.1,4.3.5,6.1,1.8,1.5,1.2,2.3,3.1,2.2,5,0,1.4-.4,2.7-1.1,3.9-.8,1.1-1.9,1.9-3.2,2.3l4.7,6.6h-3.1Z"/>
      <path id="Fill-11" class="st0" d="M238.8,11.4h3.4l-4.7,3.6h-2.5l3.8-3.6ZM241.3,28.9l-4.2-9.5-4.2,9.5h8.4ZM242.2,31.1h-10.4l-2.1,4.8h-2.9l8.8-19.4h2.8l8.9,19.4h-2.9l-2.1-4.8Z"/>
      <path id="Fill-13" class="st0" d="M142.6,59.2v3.6h-14.7v-19.6h14.4v3.6h-10v4.3h8.8v3.5h-8.8v4.5h10.4Z"/>
      <path id="Fill-15" class="st0" d="M164.7,43.3l-8.1,19.6h-4.3l-8.1-19.6h4.7l5.7,14,5.8-14h4.3Z"/>
      <path id="Fill-17" class="st0" d="M179.6,58.4c.9-.5,1.6-1.3,2.1-2.2,1-2,1-4.3,0-6.3-.5-.9-1.2-1.6-2.1-2.2-1.9-1-4.1-1-6,0-.9.5-1.6,1.3-2.1,2.2-1,2-1,4.3,0,6.3.5.9,1.2,1.6,2.1,2.2,1.9,1,4.1,1,6,0M171.3,61.6c-1.5-.8-2.8-2-3.7-3.5-1.8-3.1-1.8-6.9,0-10.1.9-1.5,2.1-2.7,3.7-3.5,3.3-1.7,7.2-1.7,10.5,0,1.5.8,2.8,2,3.7,3.5,1.8,3.1,1.8,6.9,0,10.1-.9,1.5-2.1,2.7-3.7,3.5-3.3,1.7-7.2,1.7-10.5,0"/>
      <path id="Fill-19" class="st0" d="M189.2,43.3h4.4v15.9h9.5v3.7h-13.9v-19.6Z"/>
      <path id="Fill-21" class="st0" d="M208.7,60.6c-1.6-1.8-2.4-4.1-2.3-6.5v-10.8h4.4v10.6c0,3.5,1.4,5.2,4.2,5.2,1.2,0,2.3-.4,3.1-1.3.8-1.1,1.2-2.5,1.1-3.9v-10.6h4.3v10.8c.2,2.4-.7,4.7-2.3,6.5-3.7,3-9,3-12.6,0"/>
      <path id="Fill-23" class="st0" d="M229.1,58.1c-1.9-3.1-1.9-7,0-10.1.9-1.5,2.3-2.7,3.8-3.5,1.7-.9,3.6-1.3,5.5-1.3,1.6,0,3.2.3,4.6.9,1.3.5,2.5,1.4,3.5,2.5l-2.9,2.6c-1.2-1.4-3.1-2.3-5-2.2-1.1,0-2.3.2-3.3.8-.9.5-1.7,1.2-2.2,2.2-1.1,2-1.1,4.3,0,6.3.5.9,1.3,1.7,2.2,2.2,1,.5,2.1.8,3.3.8,1.9,0,3.7-.8,5-2.3l2.9,2.6c-.9,1.1-2.1,2-3.5,2.5-1.5.6-3.1.9-4.6.9-1.9,0-3.8-.4-5.4-1.3-1.6-.8-2.9-2-3.8-3.5Z"/>
      <path id="Fill-25" class="st0" d="M248.1,62.9h4.9v-19.6h-4.9v19.6Z"/>
      <path id="Fill-27" class="st0" d="M266.9,37.5h4.5l-4.8,4h-3.3l3.6-4ZM268.7,58.3c.9-.5,1.6-1.3,2.1-2.2,1-2,1-4.4,0-6.4-.5-.9-1.2-1.7-2.1-2.2-1.9-1.1-4.1-1.1-6,0-.9.5-1.6,1.3-2.1,2.2-1,2-1,4.4,0,6.4.5.9,1.2,1.7,2.1,2.2,1.9,1.1,4.1,1.1,6,0ZM260.5,61.6c-1.5-.8-2.8-2.1-3.7-3.6-1.8-3.2-1.8-7.1,0-10.3.9-1.5,2.1-2.8,3.7-3.6,3.3-1.7,7.2-1.7,10.5,0,1.5.8,2.8,2.1,3.7,3.6,1.8,3.2,1.8,7.1,0,10.3-.9,1.5-2.1,2.8-3.7,3.6-3.3,1.7-7.2,1.7-10.5,0Z"/>
      <path id="Fill-28" class="st0" d="M298,43.3v19.6h-3.6l-9.3-11.9v11.9h-4.3v-19.6h3.6l9.3,11.9v-11.9h4.3Z"/>
      <path id="Fill-29" class="st1" d="M77.2,40l-8.7,8.7-6.3-6.2,2.5-2.5-6.3-6.3-6.2-6.2-12.6-12.6-25.1,25.1,25.1,25.1,9.4-9.4,6.2,6.2-15.7,15.7L2,40,39.6,2.4l18.8,18.8,6.2,6.2,12.6,12.6Z"/>
      <path id="Fill-30" class="st0" d="M114,40l-37.6,37.6-18.8-18.8-6.2-6.2-12.6-12.6,8.5-8.5,6.2,6.2-2.3,2.3,6.3,6.3,18.8,18.8,25.1-25.1-25.1-25.1-9.2,9.2-6.2-6.2,15.4-15.4,37.6,37.6Z"/>
    </g>
  </g>
</svg>