<svg xmlns="http://www.w3.org/2000/svg" width="172.693" height="44.797" viewBox="0 0 172.693 44.797"><defs><style>.a,.b{fill-rule:evenodd;}.b{fill:#bfff00;}</style></defs><g transform="translate(-1173.867 -739.203)"><path class="a" d="M151.878,28.286A5.087,5.087,0,0,1,150,27.25l.6-1.273a4.975,4.975,0,0,0,1.666.955,6.109,6.109,0,0,0,2.09.367,3.751,3.751,0,0,0,2.114-.481,1.486,1.486,0,0,0,.7-1.281,1.266,1.266,0,0,0-.382-.955,2.554,2.554,0,0,0-.943-.563q-.561-.2-1.585-.44a16.317,16.317,0,0,1-2.073-.62,3.423,3.423,0,0,1-1.35-.955,2.555,2.555,0,0,1-.561-1.738,2.948,2.948,0,0,1,.48-1.649,3.293,3.293,0,0,1,1.455-1.175A5.883,5.883,0,0,1,154.634,17a7.648,7.648,0,0,1,1.984.261,5.269,5.269,0,0,1,1.675.751l-.537,1.306a5.882,5.882,0,0,0-1.528-.694,5.7,5.7,0,0,0-1.593-.237,3.5,3.5,0,0,0-2.073.506,1.552,1.552,0,0,0-.691,1.306,1.252,1.252,0,0,0,.39.955,2.709,2.709,0,0,0,.968.571,14.9,14.9,0,0,0,1.569.432,15.957,15.957,0,0,1,2.065.62,3.477,3.477,0,0,1,1.341.947,2.5,2.5,0,0,1,.561,1.714,2.927,2.927,0,0,1-.488,1.641,3.273,3.273,0,0,1-1.48,1.175,6.1,6.1,0,0,1-2.439.432,7.757,7.757,0,0,1-2.48-.4" transform="translate(1096.905 730.481)"/><path class="a" d="M182.278,27.234v1.452H174V17h8.05v1.452h-6.42v3.589h5.719v1.419h-5.719v3.773Z" transform="translate(1084.592 730.481)"/><path class="a" d="M207.6,28.686l-.016-8.514-4.134,7.1H202.7l-4.134-7.045v8.464H197V17h1.34l4.771,8.214L207.817,17h1.34l.016,11.686Z" transform="translate(1072.791 730.481)"/><path class="a" d="M235.779,26.866a1.618,1.618,0,0,0,.73-1.469q0-1.953-2.9-1.953H229.7v3.89h3.907a4.079,4.079,0,0,0,2.174-.467ZM229.7,18.352v3.74h3.482a3.587,3.587,0,0,0,2.013-.476,1.731,1.731,0,0,0,0-2.788,3.584,3.584,0,0,0-2.013-.476Zm7.932,5.3a2.912,2.912,0,0,1,.594,1.878,2.686,2.686,0,0,1-1.163,2.337,5.868,5.868,0,0,1-3.389.818H228V17h5.334a5.327,5.327,0,0,1,3.151.8,2.584,2.584,0,0,1,1.113,2.22,2.85,2.85,0,0,1-.433,1.586A2.809,2.809,0,0,1,236,22.626a3.055,3.055,0,0,1,1.631,1.027Z" transform="translate(1056.885 730.481)"/><path class="a" d="M260,23.027a2.371,2.371,0,0,0,.844-1.953A2.348,2.348,0,0,0,260,19.128a3.839,3.839,0,0,0-2.447-.676h-2.869v5.259h2.869A3.806,3.806,0,0,0,260,23.027Zm.894,5.659L258.35,25.1q-.473.034-.743.033h-2.92v3.556H253V17h4.607a5.513,5.513,0,0,1,3.612,1.085,3.662,3.662,0,0,1,1.317,2.988,3.882,3.882,0,0,1-.675,2.3,3.812,3.812,0,0,1-1.924,1.385l2.8,3.923Z" transform="translate(1044.058 730.481)"/><path class="a" d="M282.1,11h2.023l-2.786,2.141h-1.493Zm1.476,10.408-2.5-5.649-2.5,5.649Zm.58,1.317h-6.169l-1.277,2.882H275l5.257-11.528H281.9l5.274,11.528h-1.741Z" transform="translate(1032.771 733.559)"/><path class="a" d="M162.765,59.516v2.17H154V50h8.554v2.17H156.6v2.537h5.255v2.1H156.6v2.7Z" transform="translate(1092.853 713.549)"/><path class="a" d="M186.173,50l-4.821,11.686h-2.546L174,50h2.785l3.39,8.347L183.611,50Z" transform="translate(1082.592 713.549)"/><path class="a" d="M208.866,59a3.276,3.276,0,0,0,1.247-1.283,4.094,4.094,0,0,0,0-3.744,3.276,3.276,0,0,0-1.247-1.283,3.674,3.674,0,0,0-3.56,0,3.275,3.275,0,0,0-1.248,1.283,4.1,4.1,0,0,0,0,3.744A3.274,3.274,0,0,0,205.307,59a3.673,3.673,0,0,0,3.56,0m-4.9,1.929a5.579,5.579,0,0,1-2.177-2.09,6.093,6.093,0,0,1,0-5.989,5.583,5.583,0,0,1,2.177-2.09,6.789,6.789,0,0,1,6.237,0,5.656,5.656,0,0,1,2.177,2.09,6.039,6.039,0,0,1,0,5.989,5.651,5.651,0,0,1-2.177,2.09,6.789,6.789,0,0,1-6.237,0" transform="translate(1067.738 713.549)"/><path class="a" d="M229,50h2.614v9.482h5.663v2.2H229Z" transform="translate(1053.7 713.549)"/><path class="a" d="M251.347,60.324A5.3,5.3,0,0,1,250,56.434V50h2.613v6.335q0,3.086,2.516,3.086a2.337,2.337,0,0,0,1.87-.747,3.526,3.526,0,0,0,.645-2.339V50h2.58v6.434a5.3,5.3,0,0,1-1.347,3.89,5.887,5.887,0,0,1-7.532,0" transform="translate(1042.328 713.549)"/><path class="a" d="M276.83,58.853a5.875,5.875,0,0,1,0-6.02,5.732,5.732,0,0,1,2.28-2.082,6.989,6.989,0,0,1,3.261-.75,7.072,7.072,0,0,1,2.758.517A5.517,5.517,0,0,1,287.2,52l-1.744,1.549a3.81,3.81,0,0,0-2.951-1.323,4.04,4.04,0,0,0-1.945.46,3.332,3.332,0,0,0-1.333,1.283,3.906,3.906,0,0,0,0,3.745A3.334,3.334,0,0,0,280.56,59a4.04,4.04,0,0,0,1.945.46,3.79,3.79,0,0,0,2.951-1.34l1.744,1.55a5.419,5.419,0,0,1-2.079,1.5,7.135,7.135,0,0,1-2.766.517,6.952,6.952,0,0,1-3.244-.75A5.727,5.727,0,0,1,276.83,58.853Z" transform="translate(1027.988 713.549)"/><path class="a" d="M301,61.686h2.922V50H301Z" transform="translate(1016.161 713.549)"/><path class="a" d="M316.786,43h2.67l-2.876,2.381H314.64Zm1.081,12.342a3.324,3.324,0,0,0,1.247-1.314,4.287,4.287,0,0,0,0-3.836,3.321,3.321,0,0,0-1.247-1.314,3.6,3.6,0,0,0-3.56,0,3.319,3.319,0,0,0-1.247,1.314,4.288,4.288,0,0,0,0,3.836,3.322,3.322,0,0,0,1.247,1.314,3.6,3.6,0,0,0,3.56,0Zm-4.9,1.976a5.639,5.639,0,0,1-2.177-2.141,6.373,6.373,0,0,1,0-6.134,5.641,5.641,0,0,1,2.177-2.141,6.649,6.649,0,0,1,6.237,0,5.717,5.717,0,0,1,2.177,2.141,6.316,6.316,0,0,1,0,6.134,5.714,5.714,0,0,1-2.177,2.141,6.648,6.648,0,0,1-6.237,0Z" transform="translate(1012.24 717.141)"/><path class="a" d="M351.225,50V61.686h-2.118l-5.559-7.1v7.1H341V50h2.135l5.542,7.1V50Z" transform="translate(995.335 713.549)"/><path class="b" d="M44.8,22.4l-5.2,5.206L35.878,23.89,37.372,22.4,33.6,18.626l-3.712-3.715L22.4,7.427,7.425,22.4,22.4,37.37l5.623-5.62,3.712,3.712L22.4,44.8,0,22.4,22.4,0,33.6,11.2l3.715,3.715Z" transform="translate(1173.867 739.203)"/><path class="a" d="M89.8,22.4,67.4,44.8,56.2,33.6l-3.712-3.712L45,22.4l5.059-5.059,3.712,3.714L52.427,22.4,56.2,26.171l11.2,11.2L82.373,22.4,67.4,7.427,61.918,12.91,58.2,9.2,67.4,0Z" transform="translate(1150.779 739.203)"/></g></svg>