<?xml version="1.0" encoding="UTF-8"?>
<svg id="Capa_1" data-name="Capa 1" xmlns="http://www.w3.org/2000/svg" viewBox="0 0 400 800">
  <path d="M351.33,154.31c-.09,2.18-1.83,5.47-3.21,7.21-8.39,10.56-21.57,19.71-30.08,30.54-12.29,150.18-223.79,150.7-236.83.57-8.56-10.79-21.78-19.87-30.23-30.39-8.73-10.88,4.08-24.6,15.24-15.36,10.57,8.76,19.64,21.37,30.54,30.06,20.51,3.15,42.29,7.29,59.72,19.3-.88-24.65,3.78-46.54,15.96-68.16,3.64-6.46,13.67-18.55,15.45-23.73,2.05-5.94-.88-30.98-.05-39.78,1.83-19.4,21-19.45,22.93-.06.8,8.09-1.76,34.91.1,39.78,1.82,4.75,11.01,15.33,14.41,21.12,12.91,21.97,18.33,45.3,17.49,70.62,16.87-11.76,37.97-16.03,57.93-19.53,9.24-6.24,29.67-35.29,40.54-33.56,4.85.77,10.28,6.36,10.07,11.36ZM294.41,201.83c-.95-1.49-1.49-1.25-2.94-1.18-2.87.13-14.48,3.57-17.76,4.74-29.91,10.66-48.79,31-57.69,61.39-.8,2.73-3.99,13.51-2.23,15.24,43.96-6.97,72.49-36.86,80.63-80.18ZM199.74,241c27.29-34.15,26.83-79.36-.27-113.39-26.99,34.38-27.1,79.24.27,113.39ZM185.46,282.49c2.69-.48-1-12.47-1.66-14.79-11.19-39.18-38.47-59.2-77.27-67.08,3.13,44.2,36.62,74.12,78.93,81.87Z"/>
  <path d="M352.03,470.84c0,2.24-.88,4.57-2.28,6.36-8.41,10.8-22.37,20.28-30.96,31.39-4.27,31.68-14.88,63.72-39.92,85.36-18.74,16.2-42.95,23.45-66.58,28.27l-.08,115.98c-2.43,16.92-22.07,15.02-22.71-1.64l-.47-114.29c-23.71-4.63-47.88-11.83-66.72-27.95-25.15-21.52-35.92-53.5-40.34-85.16-8.38-11.19-23.92-21.16-31.79-32.09-6.11-8.5,4.73-19.29,14.25-15.76l33.93,33.08c43.64,3.46,85.17,25.92,102.15,68.21,16.77-42.38,58.19-65.04,101.82-68.71l33.77-33.24c7.27-2.11,15.9,1.98,15.93,10.19ZM295.18,518.36c-43.42,2.8-75.96,36.85-81.45,79.35,1.41,2.33,19.7-3.64,22.83-4.85,34.89-13.46,50.67-39.42,58.63-74.5ZM105.63,518.81c8.17,35.2,23.97,60.77,58.99,74.22,3.15,1.21,21.34,7.27,22.85,4.74-5.7-42.47-38.4-76.37-81.84-78.95Z"/>
  <path d="M351.59,259.26c.4,10.63-27.84,30.88-34.13,40.28-11.49,147.59-222.97,148.24-235.14.57-6.36-9.34-34.7-29.49-34.35-40.11.24-7.37,9.18-13.44,15.95-9.86,10.61,5.61,23.12,25.43,33.93,32.65,43.71,4.46,84.74,25.74,102.15,68.23,17.21-42.58,58.12-64.06,101.82-68.73,10.78-7.27,23.19-27.16,33.77-32.82,6.76-3.61,15.72,2.42,16,9.79ZM213.62,388.22c44.41-8.31,72.95-36.99,81.05-81.44-43.64,3.87-77.65,37.66-81.05,81.44ZM186.56,388.28c-3.66-43.67-37.65-77.37-81.44-81.04,8.58,44.35,36.82,72.98,81.44,81.04Z"/>
  <path d="M48.22,366.62c-.05-1.29,1.21-5.24,1.88-6.41,11.68-20.22,38.64,22.75,48.85,28.36,2.87,1.57,24.18,4.21,30.48,6.18,32.59,10.19,56.15,30.09,70.82,61.21,18.23-41.41,57.42-63.44,100.97-67.88,10.52-8.52,19.3-20.87,29.55-29.4,13.41-11.16,27.16,2.51,17.85,14.41-8.48,10.83-22.28,20.29-30.94,31.39-10.8,148.47-223.67,149.04-235.11.57-8.82-11.07-22.41-20.42-31.09-31.24-1.36-1.7-3.18-5.08-3.26-7.19ZM293.65,412.17c-30.48,4.7-55.88,19.4-70.17,47.55-2.02,3.97-11.93,31.1-10,33.02,43.29-4.78,75.72-37.22,80.17-80.56ZM158.3,435c-14.14-12.54-33.32-19.43-51.66-22.37,4.68,43.33,37.2,75.58,80.56,80.17-3.21-20.94-12.85-43.56-28.91-57.8Z"/>
</svg>