<?xml version="1.0" encoding="UTF-8"?>
<svg id="Capa_1" data-name="Capa 1" xmlns="http://www.w3.org/2000/svg" viewBox="0 0 400 800">
  <path d="M195.92,50.17c-4.15-.76-7.99,1.04-10.28,4.8-2.73,4.49-1.83,19.48-1.1,31.52.59,9.88,1.16,19.21.11,24.54l-.13.68-.45.53c-4.07,4.83-8.4,9.6-12.59,14.21-11.19,12.32-22.76,25.07-30.3,40.08-15.7,31.26-13.89,71.47,4.5,100.06l1.03,1.6-1.17,1.5c-.91,1.17-1.69,2.18-3.14,2.3-1.32.11-2.16-.66-2.48-.95-.13-.12-.16-.14-.22-.18-7.13-3.74-14.19-7.87-21.01-11.87-10.24-6-20.82-12.2-31.77-17.11l-.68-.3-.43-.61c-1.13-1.62-1.3-5.16-1.08-22.25.11-8.1.23-17.27-.3-19.97-1.3-6.67-6.38-9.09-10.33-9.12-3.72-.04-8.5,2.01-9.91,7.87.73,14.79.59,29.87.46,44.44-.1,11.01-.2,22.4.08,33.5.59,23.73,1.25,50.62,13.89,73.25l1.12,2.01-1.81,1.42c-6.09,4.77-9.86,8.08-10.88,15.49-1.24,9.04-.18,35.6.8,47.05,1.22,14.14,5.49,28.33,12.68,42.2l.99,1.9-2.32,1.97c-1.92,1.63-3.65,3.1-5.13,4.63-2.57,2.66-4.37,5.5-5.08,9.72-1.75,10.36.34,51.32,2.66,61.51,6.89,30.28,23.56,52.82,52.44,70.96,14.13,8.87,29.65,17,44.65,24.86,7.92,4.15,16.11,8.44,23.93,12.75l1.36.75,1.91,93.95c.38,6.94,5.49,10.11,10.38,10.15,4.82.03,9.9-3.02,10.41-9.91l-1.28-94.61,1.39-.78c22.2-12.46,39.03-22.43,54.56-32.33,47.72-30.41,59.34-54.51,63.29-85.87,1.31-10.41,1.67-46.82-.21-56.03-1.35-6.62-5.3-9.73-10.76-14.03l-2.39-1.88,1-1.97c10.11-19.78,11.52-42.25,11.56-61.62.03-11.92-.83-30.24-2.51-33.61-2.2-4.42-4.71-5.94-8.86-8.46-.66-.4-1.35-.82-2.07-1.27l-2.29-1.43,1.44-2.28c12.74-20.22,12.46-47.47,12.22-71.51l-.02-1.59c0-.82-.2-1.73-.39-2.68-.23-1.1-.49-2.36-.51-3.7-.27-22.7-.58-48.41-1.55-73.31-2.29-4.4-6.61-6.78-11.12-6.08-3.67.57-7.9,3.43-8.76,9.76-.36,2.65.03,11.68.38,19.63.77,17.69.72,21.08-.31,22.68l-.34.52-55.39,33.39-1.48-1.69c-1.89-2.16-.87-4.44-.44-5.41.07-.15.14-.3.19-.45,1.1-3.13,2.16-6.06,3.19-8.86,5.81-15.94,10.01-27.45,8.55-47.17-3.05-41.41-27.6-66.08-56.02-94.65l-1.08-1.09-.18-.32c-1.4-2.48-1.44-9.77-1.19-27.07.15-10.06.3-20.46-.4-24.25-1.16-6.27-5.43-9.22-9.05-9.88ZM109.84,356.9c-24.45-25.43-25.21-57.77-23.89-88.71l.2-4.62,3.92,2.45c8.14,5.1,16.99,9.8,25.55,14.35,20.01,10.63,40.7,21.62,55.83,39.18,14.75,17.11,21,44.46,18.57,81.28l-.12,1.89-1.82.52c-2.24.64-3.85-.33-4.82-.91-.2-.12-.4-.25-.62-.35-18.05-8.25-60.44-32.23-72.8-45.09ZM88.06,411.84c-.48-5.42-1.58-26.21-.51-32.68.02-.11,0-.2,0-.29,0-.81,0-2.7,2.31-4.08l1.44-.86,1.4.91c8.5,5.54,17.87,10.53,26.93,15.36,26.26,13.99,53.41,28.46,65.6,58.63,6.04,14.97,8.96,44.41,7.34,58.81-.02.18,0,.35.01.51.05.78.15,2.42-1.21,3.83-.29.3-.65.59-1.09.86l-1.37.84-66.75-38.83c-20.09-16.01-31.89-37.8-34.11-63.01ZM193.01,623.38l-3.74-2.49c-9.06-6.05-19.27-11.36-29.13-16.5-9.94-5.18-20.23-10.54-29.43-16.68-19.58-13.07-32.41-30.46-38.14-51.69-3-11.1-2.96-22.73-2.92-33.98.02-5.15.03-10.48-.25-15.59l-.12-2.17,2.09-.57c2.29-.63,3.87.35,4.82.94.19.12.39.25.61.35,6.29,2.98,62,29.79,79.98,53.73,17.88,23.81,18.93,56.75,16.67,80.19l-.43,4.47ZM314.62,485.57c1.11,27.92,2.15,54.28-15.78,78.43-2.06,2.78-4.31,5.39-6.7,7.87-12.22,12.65-28.37,21.81-44.07,30.71-10.3,5.84-20.03,11.35-28.69,17.76l-3.67,2.71-.6-4.52c-3.08-23.35-3.16-56.3,13.88-80.72,17.14-24.55,71.88-53.28,78.06-56.47.21-.11.41-.25.59-.37.92-.62,2.47-1.65,4.78-1.1l1.99.47.2,5.24ZM313.44,379.63c2.02,17-.94,46.66-8.39,62.18-3.93,8.2-9.11,15.22-15.1,21.42-12.68,13.13-29.01,22.6-44.97,31.86-9.34,5.42-19,11.02-27.49,17.17l-4.11,2.98-.15-5.07c-.11-3.52-.28-7.13-.45-10.62-.85-17.76-1.72-36.13,5.34-53.5,11.83-29.06,36.68-43.35,60.71-57.16,9.56-5.49,19.44-11.17,28.45-17.73l.65-.47.8-.04c3.34-.16,4.1,3.98,4.7,9ZM277.15,280.04c9.85-5.57,20.04-11.33,28.97-17.73l3.65-2.62.58,4.46c2.52,19.48,3.97,55.97-14.58,81.48-2.21,3.04-4.62,5.87-7.19,8.53-10.12,10.48-22.7,18.35-34.94,26.02l-2.65,1.66c-5.83,3.66-11.89,7.13-17.76,10.48-5.9,3.37-12,6.86-17.81,10.51l-3.69,2.32-.42-4.34c-3.49-36.4-1.9-73.76,33.15-100.37,9.98-7.58,21.52-14.1,32.68-20.41ZM197.81,132.24c2.38,2.47,4.79,4.91,7.2,7.35,13.6,13.74,27.65,27.95,34.27,47.36,10.54,30.91,1.37,65.88-21.87,89.94-5.14,5.32-10.96,10.11-17.42,14.2l-1.38.88-1.41-.82c-42.29-24.68-58.61-77.73-36.38-118.28,6.35-11.58,15.48-21.42,24.31-30.95,2.9-3.13,5.91-6.37,8.72-9.59l1.93-2.2,2.03,2.11Z"/>
</svg>