<?xml version="1.0" encoding="UTF-8"?>
<svg id="Capa_1" data-name="Capa 1" xmlns="http://www.w3.org/2000/svg" viewBox="0 0 400 800">
  <path d="M298.71,74.83c18.35,7.38,29.51,29.92,21.36,48.65-2.72,6.25-9.75,11.85-11.5,17.77-2.58,8.73-.48,24.05-2.47,33.56,69.61,24.34,94.02,109.49,48.34,167.02,36.86,40.18,38.93,98.18,5.97,140.86,22.11,24.82,35.94,62.16,26.64,95.07-9.3,32.93-50.43,86.3-74.22,111.59-6.56,6.98-21.02,22.5-28.34,27.19-6.66,4.27-12.41,2.88-17.23-3.19-5.38-32.59-18.76-62.47-39.05-88.45-20.67-26.47-47.68-35.15-47.8-74.7-.08-25.03,10.8-38.37,23.28-57.99,1.05-1.64,3.01-1.29,1-4.16-22.19,17.97-52.23,21.38-73.45.4-36.01-35.6-5.18-95.28,44.3-86.96,2.94-19.55,10.78-37.43,23.18-52.82-52.73-52.51-31.62-146.7,37.92-172.26l7.99-70.98c3.9-25,30.55-40.04,54.07-30.59ZM283.87,687.02c19.08-17.96,36.67-38.5,51.9-59.88,27.74-38.96,48.5-76.55,15.72-121.14-4.87-6.63-17.27-15.01-17.98-22.28-.52-5.3,10.65-15.66,14.18-20.75,20.7-29.78,19.35-68.55-2.17-97.83-4.9-6.66-17.23-14.95-17.98-22.27-.58-5.65,8.96-12.86,12.3-17.43,29.64-40.61,17.96-100.73-27.57-124.27-6.94-3.59-24.74-6.99-27.32-13.31-1.08-2.64-.41-11.99-.34-15.58.14-8.18.93-29.76,2.81-36.75,3.72-13.79,23.21-21.82,8.14-37.07-9.33-9.44-25.2-4.65-29.53,7.66l-10.79,84.68c-3.17,4.27-12.97,6.07-18.15,8.85-47.88,25.64-62.95,85.12-27.82,128.4,4.06,5,14.99,12.64,15.66,18.16.93,7.68-10.56,16.94-15.03,23.56-20.62,30.5-17.44,71.79,6.03,99.95,4.64,5.57,15.28,12.05,15.86,18.81.5,5.81-13.18,19.08-17.37,25.6-8.2,12.77-16.73,34.52-11.45,49.64,4.4,12.62,28.31,31.29,37.99,42.86,19.73,23.57,33.97,51.01,42.91,80.4ZM174.68,422.34c-65.21-3.24-34.98,89.89,15.46,48.37-9.01-14.99-13.71-31.08-15.46-48.37Z"/>
  <path d="M55.36,701.62l43.39-19.35c25.68-14.23,52-28.03,73.41-48.38,5.81-5.52,12.07-19.21,22.01-13.42,10.28,5.99,3.99,17.08-1.67,23.94-21.39,25.91-93.78,63.97-125.93,75.83-5.85,2.16-17.05,6.26-22.57,7.45-6.43,1.38-13.59-1.5-14.74-8.7,7.7-36.16,8.45-74.55-3.5-110.13-8.28-24.66-21.18-38.21-13.34-66.02,7.17-25.44,28.37-41.66,50.27-54.43-17.57-50.7,3.44-106.64,51.57-131.26-5.61-20.05-8.25-39-3.73-59.47,2.17-9.81,11.94-36.48,20-41.97,6.85-4.66,16.61-.49,17.31,8.3.35,4.47-10.11,18.65-12.46,24.54-7.89,19.78-6.8,42.43-.36,62.47,1.83,5.69,6.8,7.08,4.23,14.99-2.56,7.87-12.79,8.78-19.39,12.43-38.08,21.02-48.69,64.32-36.37,103.83,2.02,6.47,6.94,7.65,3.84,15.89-2.75,7.31-9.45,6.58-15.5,9.95-24.34,13.55-47.61,33.82-37.96,64.16,11.61,36.49,22,54,22.69,94.52.2,11.68-1.95,23.53-1.21,34.85Z"/>
  <path d="M163.52,600.06c-26.06,62.65-120.09,23.62-95.42-38.16,25.15-63,120.92-23.13,95.42,38.16ZM99.34,556.44c-30.16,18.9-3.81,68.75,30.5,50.63,34.1-18.01,6.15-73.6-30.5-50.63Z"/>
  <path d="M284.81,216.44c8.89-7.22,19.22.83,26.3,7.2,21.51,19.36,30.72,49.88,22.81,77.79-2.42,8.52-11.78,26.56-22.02,16.42-8.39-8.31,1.56-20.35,2.8-30.56,2.14-17.58-5.14-36.17-18.32-47.95-5.63-5.04-14.34-6.51-14.39-15.88,0-1.84,1.36-5.84,2.81-7.02Z"/>
</svg>