<svg xmlns="http://www.w3.org/2000/svg" xmlns:xlink="http://www.w3.org/1999/xlink" width="200px" height="100px" viewBox="0 0 200 100"><title>Custom Preset Copy 10</title><desc>Created with Sketch.</desc><defs><path d="M29.7094737,0.0925555556 C29.4678947,0.242666667 29.2436842,0.438666667 28.9815789,0.535888889 L28.9815789,0.535888889 C27.0805263,1.24833333 25.1960526,2.01288889 23.2602632,2.62188889 L23.2602632,2.62188889 C18.8826316,3.99933333 14.4315789,5.16211111 10.0957895,6.65388889 L10.0957895,6.65388889 C2.96289474,9.107 -0.526578947,15.3183333 0.899210526,22.6333333 L0.899210526,22.6333333 C2.35657895,30.1054444 8.98421053,35.0785556 16.6942105,34.4835556 L16.6942105,34.4835556 C23.9573684,33.9235556 29.8073684,27.727 29.9021053,20.3108889 L29.9021053,20.3108889 C29.9881579,13.573 29.9115789,6.832 29.9068421,0.0925555556 L29.9068421,0.0925555556 L29.7094737,0.0925555556 Z M4.92552632,18.6083333 C5.44578947,14.5942222 7.70526316,11.8828889 11.5634211,10.5917778 L11.5634211,10.5917778 C14.4181579,9.63511111 17.3676316,8.95533333 20.2389474,8.04377778 L20.2389474,8.04377778 C22.1005263,7.45266667 23.8973684,6.66555556 25.8355263,5.92277778 L25.8355263,5.92277778 C25.8355263,6.68888889 25.8418421,7.41533333 25.8339474,8.141 L25.8339474,8.141 C25.7936842,12.0905556 25.7565789,16.0401111 25.7028947,19.9896667 L25.7028947,19.9896667 C25.6642105,22.834 24.7057895,25.3298889 22.6113158,27.3171111 L22.6113158,27.3171111 C19.9894737,29.8028889 16.8134211,30.2353333 13.4660526,29.2794444 L13.4660526,29.2794444 C11.0715789,28.5965556 9.80842105,25.9077778 10.2410526,23.0875556 L10.2410526,23.0875556 C10.5592105,21.0124444 11.685,19.3845556 13.3121053,18.165 L13.3121053,18.165 C14.7655263,17.0768889 16.3989474,16.2213333 17.9589474,15.2732222 L17.9589474,15.2732222 C18.2218421,15.1137778 18.5131579,15.0002222 18.7602632,14.7964444 L18.7602632,14.7964444 C15.7105263,14.8415556 12.8242105,15.4186667 10.3239474,17.2332222 L10.3239474,17.2332222 C7.75184211,19.0983333 6.63473684,21.7427778 6.24157895,24.8041111 L6.24157895,24.8041111 C5.11026316,22.8643333 4.64052632,20.7993333 4.92552632,18.6083333 L4.92552632,18.6083333 Z" id="path-1"></path><linearGradient x1="50.0010161%" y1="100.000114%" x2="50.0010161%" y2="-0.000974730064%" id="linearGradient-3"><stop stop-color="#1AAAE4" offset="0%"></stop><stop stop-color="#97C404" offset="100%"></stop></linearGradient><polygon id="path-4" points="0 76 106.817241 76 106.817241 0.0922857143 0 0.0922857143"></polygon></defs><g id="Custom-Preset-Copy-10" stroke="none" stroke-width="1" fill="none" fill-rule="evenodd"><g id="Group-23" transform="translate(47.000000, 13.000000)"><g id="Group-3" transform="translate(42.000000, 0.000000)"><mask id="mask-2" fill="white"><use xlink:href="#path-1"></use></mask><g id="Clip-2"></g><path d="M29.7094737,0.0925555556 C29.4678947,0.242666667 29.2436842,0.438666667 28.9815789,0.535888889 L28.9815789,0.535888889 C27.0805263,1.24833333 25.1960526,2.01288889 23.2602632,2.62188889 L23.2602632,2.62188889 C18.8826316,3.99933333 14.4315789,5.16211111 10.0957895,6.65388889 L10.0957895,6.65388889 C2.96289474,9.107 -0.526578947,15.3183333 0.899210526,22.6333333 L0.899210526,22.6333333 C2.35657895,30.1054444 8.98421053,35.0785556 16.6942105,34.4835556 L16.6942105,34.4835556 C23.9573684,33.9235556 29.8073684,27.727 29.9021053,20.3108889 L29.9021053,20.3108889 C29.9881579,13.573 29.9115789,6.832 29.9068421,0.0925555556 L29.9068421,0.0925555556 L29.7094737,0.0925555556 Z M4.92552632,18.6083333 C5.44578947,14.5942222 7.70526316,11.8828889 11.5634211,10.5917778 L11.5634211,10.5917778 C14.4181579,9.63511111 17.3676316,8.95533333 20.2389474,8.04377778 L20.2389474,8.04377778 C22.1005263,7.45266667 23.8973684,6.66555556 25.8355263,5.92277778 L25.8355263,5.92277778 C25.8355263,6.68888889 25.8418421,7.41533333 25.8339474,8.141 L25.8339474,8.141 C25.7936842,12.0905556 25.7565789,16.0401111 25.7028947,19.9896667 L25.7028947,19.9896667 C25.6642105,22.834 24.7057895,25.3298889 22.6113158,27.3171111 L22.6113158,27.3171111 C19.9894737,29.8028889 16.8134211,30.2353333 13.4660526,29.2794444 L13.4660526,29.2794444 C11.0715789,28.5965556 9.80842105,25.9077778 10.2410526,23.0875556 L10.2410526,23.0875556 C10.5592105,21.0124444 11.685,19.3845556 13.3121053,18.165 L13.3121053,18.165 C14.7655263,17.0768889 16.3989474,16.2213333 17.9589474,15.2732222 L17.9589474,15.2732222 C18.2218421,15.1137778 18.5131579,15.0002222 18.7602632,14.7964444 L18.7602632,14.7964444 C15.7105263,14.8415556 12.8242105,15.4186667 10.3239474,17.2332222 L10.3239474,17.2332222 C7.75184211,19.0983333 6.63473684,21.7427778 6.24157895,24.8041111 L6.24157895,24.8041111 C5.11026316,22.8643333 4.64052632,20.7993333 4.92552632,18.6083333 L4.92552632,18.6083333 Z" id="Fill-1" fill="url(#linearGradient-3)" mask="url(#mask-2)"></path></g><g id="Group-22"><path d="M3.46804964,56.9159347 L7.31926861,56.9159347 C8.40723212,56.9159347 9.25698394,56.6483837 9.86930511,56.1132816 C10.4808453,55.5774041 10.7877869,54.8329143 10.7877869,53.8805878 C10.7877869,51.8216082 9.72715912,50.7684653 7.60746569,50.7234857 L3.46804964,50.7234857 L3.46804964,56.9159347 Z M3.46804964,48.1914449 L6.86705693,48.1914449 C7.94486715,48.1914449 8.7883708,47.9487102 9.39600584,47.4640163 C10.0036409,46.9785469 10.3074584,46.2914449 10.3074584,45.4011592 C10.3074584,44.4216898 10.0262905,43.7144245 9.46473577,43.2785878 C8.9024,42.8435265 8.02765547,42.6248327 6.83972117,42.6248327 L3.46804964,42.6248327 L3.46804964,48.1914449 Z M6.83972117,39.8485061 C9.09687445,39.8485061 10.8151226,40.2975265 11.9936847,41.1955673 C13.1722467,42.0943837 13.7619182,43.4329143 13.7619182,45.2111592 C13.7619182,46.1185061 13.5151153,46.9351184 13.0215095,47.6609959 C12.5279036,48.3868735 11.8062394,48.9498939 10.8557358,49.3485061 C11.934327,49.6393224 12.7676774,50.1852816 13.3573489,50.9879347 C13.9470204,51.7921388 14.2414657,52.756098 14.2414657,53.8805878 C14.2414657,55.7402612 13.6400788,57.1695265 12.4388672,58.1676082 C11.2376555,59.1656898 9.51706423,59.6651184 7.27865547,59.6651184 L0.000312408759,59.6651184 L0.000312408759,39.8485061 L6.83972117,39.8485061 Z" id="Fill-4" fill="#1BAAE4"></path><mask id="mask-5" fill="white"><use xlink:href="#path-4"></use></mask><g id="Clip-7"></g><path d="M17.5995474,59.6654286 L20.9306058,59.6654286 L20.9306058,44.9392653 L17.5995474,44.9392653 L17.5995474,59.6654286 Z M17.3941387,41.1152245 C17.3941387,40.6064898 17.5565912,40.1846122 17.8807153,39.8488163 C18.2048394,39.5130204 18.6687664,39.3447347 19.2717153,39.3447347 C19.8746642,39.3447347 20.3409343,39.5130204 20.6697445,39.8488163 C20.9993358,40.1846122 21.1633504,40.6064898 21.1633504,41.1152245 C21.1633504,41.6138776 20.9993358,42.0287755 20.6697445,42.3599184 C20.3409343,42.6910612 19.8746642,42.8570204 19.2717153,42.8570204 C18.6687664,42.8570204 18.2048394,42.6910612 17.8807153,42.3599184 C17.5565912,42.0287755 17.3941387,41.6138776 17.3941387,41.1152245 L17.3941387,41.1152245 Z" id="Fill-6" fill="#1BAAE4" mask="url(#mask-5)"></path><path d="M27.2628971,52.4514776 C27.2628971,53.9668245 27.5784299,55.1533551 28.2087146,56.0110694 C28.8397803,56.8680082 29.7168679,57.2968653 30.8407584,57.2968653 C31.9646489,57.2968653 32.8393934,56.8618041 33.464992,55.9901306 C34.0913715,55.1192327 34.4045613,53.8450694 34.4045613,52.1660898 C34.4045613,50.6778857 34.0819993,49.4983347 33.4376562,48.6274367 C32.7940942,47.7557633 31.9185686,47.320702 30.8126416,47.320702 C29.7254591,47.320702 28.8616489,47.7495592 28.222773,48.6072735 C27.5831161,49.4642122 27.2628971,50.7461306 27.2628971,52.4514776 M23.9318387,52.3297224 L23.9318387,52.1660898 C23.9318387,50.7228653 24.2200358,49.4238857 24.7956489,48.2668245 C25.371262,47.1097633 26.1804007,46.2210286 27.2222839,45.5990694 C28.2633861,44.9771102 29.4606927,44.6669061 30.8126416,44.6669061 C32.8144007,44.6669061 34.4389263,45.306702 35.6862182,46.5862939 C36.9327292,47.8651102 37.6067511,49.5619265 37.7075029,51.6759673 L37.7215613,52.4514776 C37.7215613,53.9032327 37.4403934,55.2014367 36.8788387,56.3445388 C36.3165029,57.4876408 35.5120504,58.372498 34.466262,58.9975592 C33.4196927,59.6241714 32.2106708,59.936702 30.8407584,59.936702 C28.7476197,59.936702 27.0731088,59.2457224 25.8164445,57.8622122 C24.5605613,56.4779265 23.9318387,54.6337633 23.9318387,52.3297224" id="Fill-8" fill="#1BAAE4" mask="url(#mask-5)"></path><path d="M39.9141241,52.4105306 L39.9141241,52.0708571 C39.9141241,49.8296327 40.517073,48.035102 41.7237518,46.6880408 C42.9296496,45.3409796 44.5744818,44.6670612 46.6582482,44.6670612 C48.4217956,44.6670612 49.8580949,45.1773469 50.968708,46.1979184 C52.0793212,47.2192653 52.6619635,48.5593469 52.716635,50.2197143 L49.577708,50.2197143 C49.541,49.3759592 49.2512409,48.681102 48.7068686,48.1374694 C48.1632774,47.5930612 47.471292,47.3208571 46.6309124,47.3208571 C45.5523212,47.3208571 44.7205328,47.7086122 44.1363285,48.484898 C43.5513431,49.2604082 43.2537737,50.4376327 43.2451825,52.0157959 L43.2451825,52.5470204 C43.2451825,54.1437959 43.5349416,55.3349796 44.1152409,56.1197959 C44.6955401,56.9046122 45.5343577,57.2970204 46.6309124,57.2970204 C47.4619197,57.2970204 48.1523431,57.0566122 48.7006204,56.5757959 C49.2488978,56.0949796 49.541,55.5001633 49.577708,54.7921224 L52.716635,54.7921224 C52.679927,55.709551 52.3917299,56.5641633 51.8528248,57.3582857 C51.3139197,58.1516327 50.5828832,58.7805714 49.6597153,59.243551 C48.7365474,59.7057551 47.7407445,59.9368571 46.6715255,59.9368571 C44.5971314,59.9368571 42.9522993,59.2706939 41.7370292,57.9368163 C40.5217591,56.6029388 39.9141241,54.761102 39.9141241,52.4105306" id="Fill-9" fill="#1BAAE4" mask="url(#mask-5)"></path><path d="M58.0759292,50.9276776 L64.4217321,50.9276776 L64.4217321,50.6826163 C64.3490971,49.5759633 64.0515277,48.7384122 63.5313672,48.1707388 C63.0104255,47.6046163 62.2887613,47.3207796 61.3655934,47.3207796 C60.4517978,47.3207796 59.7137321,47.6387388 59.1513964,48.2731061 C58.5898416,48.908249 58.2313526,49.7931061 58.0759292,50.9276776 M54.6628635,52.6834327 L54.6628635,52.2747388 C54.6628635,50.8051469 54.9487175,49.4914327 55.5196445,48.3343714 C56.0905715,47.1780857 56.8919,46.2777184 57.925192,45.6332694 C58.9577029,44.9888204 60.1089292,44.6669837 61.3788708,44.6669837 C63.3985934,44.6669837 64.9590752,45.3067796 66.0603161,46.5855959 C67.1607759,47.8651878 67.7113964,49.6752286 67.7113964,52.0157184 L67.7113964,53.3495959 L58.0212577,53.3495959 C58.1212285,54.5655959 58.5304839,55.5280041 59.247462,56.2352694 C59.9652212,56.9433102 60.8673015,57.2969429 61.9544839,57.2969429 C63.4806007,57.2969429 64.7239876,56.6842898 65.6830825,55.4597592 L67.4786518,57.1604531 C66.8842942,58.0414327 66.092338,58.7238816 65.1004401,59.209351 C64.1093234,59.6948204 62.9963672,59.9367796 61.7631336,59.9367796 C59.6520314,59.9367796 57.9408124,59.2775959 56.6294766,57.956902 C55.3181409,56.6362082 54.6628635,54.878902 54.6628635,52.6834327" id="Fill-10" fill="#1BAAE4" mask="url(#mask-5)"></path><path d="M73.4683088,44.9387224 L73.5503161,46.5859061 C74.3547686,45.3070898 75.4700679,44.6665184 76.8954328,44.6665184 C77.3702942,44.6665184 77.7631482,44.7301102 78.0739949,44.8580694 L78.0599365,47.9601102 C77.6217832,47.8879878 77.1695715,47.8515388 76.7033015,47.8515388 C75.1771847,47.8515388 74.1493599,48.4323959 73.619046,49.5933347 L73.619046,59.6648857 L70.2887686,59.6648857 L70.2887686,44.9387224 L73.4683088,44.9387224 Z" id="Fill-11" fill="#1BAAE4" mask="url(#mask-5)"></path><path d="M83.0087255,50.9276776 L89.3545285,50.9276776 L89.3545285,50.6826163 C89.2818934,49.5759633 88.9843241,48.7384122 88.4641635,48.1707388 C87.9432219,47.6046163 87.2215577,47.3207796 86.2983898,47.3207796 C85.3845942,47.3207796 84.6465285,47.6387388 84.0841927,48.2731061 C83.522638,48.908249 83.1641489,49.7931061 83.0087255,50.9276776 M79.5956599,52.6834327 L79.5956599,52.2747388 C79.5956599,50.8051469 79.8815139,49.4914327 80.4524409,48.3343714 C81.0233679,47.1780857 81.8246964,46.2777184 82.8579883,45.6332694 C83.8904993,44.9888204 85.0417255,44.6669837 86.3116672,44.6669837 C88.3313898,44.6669837 89.8918715,45.3067796 90.9931124,46.5855959 C92.0935723,47.8651878 92.6441927,49.6752286 92.6441927,52.0157184 L92.6441927,53.3495959 L82.954054,53.3495959 C83.0540248,54.5655959 83.4632803,55.5280041 84.1802584,56.2352694 C84.8980175,56.9433102 85.8000978,57.2969429 86.8872803,57.2969429 C88.4133971,57.2969429 89.6567839,56.6842898 90.6158788,55.4597592 L92.4114482,57.1604531 C91.8170905,58.0414327 91.0251343,58.7238816 90.0332365,59.209351 C89.0421197,59.6948204 87.9291635,59.9367796 86.6959299,59.9367796 C84.5848277,59.9367796 82.8736088,59.2775959 81.562273,57.956902 C80.2509372,56.6362082 79.5956599,54.878902 79.5956599,52.6834327" id="Fill-12" fill="#1BAAE4" mask="url(#mask-5)"></path><path d="M97.7844883,55.0240776 C97.8305686,55.8042408 98.1273569,56.4052612 98.6756343,56.8271388 C99.2239117,57.2490163 99.950262,57.4607306 100.854685,57.4607306 C101.731773,57.4607306 102.398766,57.2947714 102.856445,56.9636286 C103.312561,56.6324857 103.541401,56.199751 103.541401,55.6638735 C103.541401,55.0737102 103.296941,54.6246898 102.808021,54.3160367 C102.319101,54.0073837 101.508401,53.7359551 100.375138,53.4994245 C99.2418752,53.2636694 98.2960577,52.9643224 97.5376854,52.6013837 C95.8748898,51.8033837 95.0431015,50.6455469 95.0431015,49.1302 C95.0431015,47.8606898 95.5820066,46.7990163 96.6605978,45.9459551 C97.738408,45.0928939 99.1091015,44.6671388 100.772678,44.6671388 C102.545598,44.6671388 103.977992,45.1022 105.069861,45.973098 C106.161729,46.8439959 106.707664,47.9739143 106.707664,49.3620776 L103.376605,49.3620776 C103.376605,48.7269347 103.139174,48.1980367 102.664313,47.7761592 C102.188671,47.3542816 101.558386,47.1441184 100.772678,47.1441184 C100.041642,47.1441184 99.4449409,47.3116286 98.984138,47.6474245 C98.522554,47.9832204 98.2913715,48.4322408 98.2913715,48.9952612 C98.2913715,49.5032204 98.5061526,49.8979551 98.9357146,50.1786898 C99.3652766,50.4602 100.232992,50.7432612 101.540423,51.0294245 C102.846291,51.3155878 103.872554,51.6552612 104.617649,52.0499959 C105.361963,52.4447306 105.914926,52.9193429 106.275758,53.4722816 C106.636591,54.0259959 106.817007,54.6975878 106.817007,55.4870571 C106.817007,56.8116286 106.264043,57.8841592 105.158897,58.7054245 C104.05297,59.5266898 102.604174,59.9369347 100.813291,59.9369347 C99.5980212,59.9369347 98.5155248,59.7197918 97.5650212,59.2839551 C96.6145175,58.8488939 95.8748898,58.2494245 95.3445759,57.4878735 C94.814262,56.7247714 94.5494956,55.9042816 94.5494956,55.0240776 L97.7844883,55.0240776 Z" id="Fill-13" fill="#1BAAE4" mask="url(#mask-5)"></path><path d="M23.5645241,72.6093918 C23.5645241,73.2840857 23.8152321,73.8176367 24.3174292,74.2092694 C24.8196263,74.599351 25.4905241,74.7955551 26.3301226,74.7955551 C27.1119255,74.7955551 27.7125314,74.6365755 28.1295971,74.3201673 C28.5466628,74.0029837 28.7551956,73.5710245 28.7551956,73.0235143 C28.7551956,72.4767796 28.5622832,72.053351 28.1756774,71.7540041 C27.7898526,71.4554327 27.0892759,71.1599633 26.0747285,70.8683714 C24.8024438,70.5054327 23.8769328,70.0595143 23.2981956,69.5298408 C22.7186774,69.0009429 22.4289182,68.3479633 22.4289182,67.5701265 C22.4289182,66.690698 22.7827212,65.9640449 23.491108,65.3878408 C24.1987139,64.8124122 25.1195387,64.5254735 26.2520204,64.5254735 C27.0252321,64.5254735 27.7133124,64.6743714 28.3186044,64.9698408 C28.9238964,65.2668612 29.3925095,65.6763306 29.7244438,66.196698 C30.0571591,66.7186163 30.2227358,67.2893918 30.2227358,67.908249 L28.731765,67.908249 C28.731765,67.2327796 28.5154219,66.7023306 28.0835168,66.3161265 C27.6508307,65.930698 27.0408526,65.7375959 26.2520204,65.7375959 C25.5209839,65.7375959 24.950838,65.897351 24.5415825,66.2168612 C24.132327,66.5363714 23.9276993,66.9791878 23.9276993,67.5476367 C23.9276993,68.0028612 24.1213927,68.3875143 24.5103416,68.7015959 C24.8992905,69.0156776 25.5615971,69.3033918 26.4956993,69.5639633 C27.4305825,69.8253102 28.161619,70.1130245 28.6895898,70.4278816 C29.2175606,70.7419633 29.6088526,71.1087796 29.8634657,71.5275551 C30.1188599,71.9471061 30.2461664,72.4403306 30.2461664,73.0087796 C30.2461664,73.9138 29.8908015,74.6381265 29.1800715,75.1825347 C28.4693416,75.7277184 27.518838,75.9999224 26.3301226,75.9999224 C25.557692,75.9999224 24.8360277,75.8525755 24.166692,75.5586571 C23.4973562,75.2647388 22.9811007,74.8614735 22.6179255,74.3504122 C22.2547504,73.839351 22.0735533,73.2592694 22.0735533,72.6093918 L23.5645241,72.6093918 Z" id="Fill-14" fill="#1BAAE4" mask="url(#mask-5)"></path><path d="M37.2213168,70.9372367 L37.2213168,70.8302163 C37.1799226,70.1097673 36.9846672,69.5506245 36.6339883,69.1543388 C36.2840905,68.7580531 35.8100102,68.560298 35.2125285,68.560298 C34.6361343,68.560298 34.1519007,68.7681347 33.7606088,69.1845837 C33.3693168,69.6018082 33.1272,70.1857673 33.0342584,70.9372367 L37.2213168,70.9372367 Z M31.558908,71.9267878 L31.558908,71.6654408 C31.558908,70.8426245 31.7174555,70.1082163 32.0337693,69.4614408 C32.3508642,68.8146653 32.7937036,68.3074816 33.3630686,67.9429918 C33.9316526,67.576951 34.5486599,67.3939306 35.2125285,67.3939306 C36.2989299,67.3939306 37.1439956,67.7498898 37.7461635,68.4602571 C38.3491124,69.1714 38.6505869,70.1880939 38.6505869,71.5126653 L38.6505869,72.1036041 L32.9881781,72.1036041 C33.0084847,72.9217673 33.2498204,73.582502 33.7106234,74.0865837 C34.1714263,74.5898898 34.7571927,74.8411551 35.4679226,74.8411551 C35.9724628,74.8411551 36.3996818,74.7387878 36.7495796,74.5348286 C37.1002584,74.3300939 37.406419,74.0586653 37.6696234,73.7220939 L38.5420248,74.3967878 C37.8414482,75.4654408 36.7909737,75.9997673 35.3906015,75.9997673 C34.2573387,75.9997673 33.3357328,75.6306245 32.6250029,74.8915633 C31.914273,74.152502 31.558908,73.164502 31.558908,71.9267878 L31.558908,71.9267878 Z" id="Fill-15" fill="#1BAAE4" mask="url(#mask-5)"></path><path d="M41.6473679,67.5474041 L41.685638,68.4679347 C42.2987401,67.7521388 43.1258423,67.3938531 44.1653825,67.3938531 C45.3345723,67.3938531 46.1304336,67.8389959 46.5521854,68.7285061 C46.8302292,68.3298939 47.1926234,68.0080571 47.6378058,67.7622204 C48.0829883,67.5163837 48.6101781,67.3938531 49.2170321,67.3938531 C51.0508715,67.3938531 51.9826307,68.3578122 52.0138715,70.2849551 L52.0138715,75.8461388 L50.5846015,75.8461388 L50.5846015,70.3702612 C50.5846015,69.7769959 50.4479226,69.3334041 50.175346,69.0394857 C49.9019883,68.7455673 49.4435285,68.5974449 48.7999664,68.5974449 C48.2696526,68.5974449 47.8299372,68.755649 47.4792584,69.0697306 C47.1293606,69.3838122 46.9255139,69.8072408 46.8692803,70.3392408 L46.8692803,75.8461388 L45.4322,75.8461388 L45.4322,70.4082612 C45.4322,69.2015673 44.8378423,68.5974449 43.648346,68.5974449 C42.7103387,68.5974449 42.0699007,68.9945061 41.7246891,69.7870776 L41.7246891,75.8461388 L40.295419,75.8461388 L40.295419,67.5474041 L41.6473679,67.5474041 Z" id="Fill-16" fill="#1BAAE4" mask="url(#mask-5)"></path><path d="M54.2919562,75.846449 L55.7212263,75.846449 L55.7212263,67.5477143 L54.2919562,67.5477143 L54.2919562,75.846449 Z M54.176365,65.3460408 C54.176365,65.1157143 54.247438,64.9218367 54.3888029,64.7636327 C54.5301679,64.6046531 54.7402628,64.525551 55.0183066,64.525551 C55.2963504,64.525551 55.5080073,64.6046531 55.6517153,64.7636327 C55.7962044,64.9218367 55.8680584,65.1157143 55.8680584,65.3460408 C55.8680584,65.5763673 55.7962044,65.7679184 55.6517153,65.9214694 C55.5080073,66.0742449 55.2963504,66.1517959 55.0183066,66.1517959 C54.7402628,66.1517959 54.5301679,66.0742449 54.3888029,65.9214694 C54.247438,65.7679184 54.176365,65.5763673 54.176365,65.3460408 L54.176365,65.3460408 Z" id="Fill-17" fill="#1BAAE4" mask="url(#mask-5)"></path><polygon id="Fill-18" fill="#1BAAE4" mask="url(#mask-5)" points="58.1314599 75.846449 59.5607299 75.846449 59.5607299 64.0656735 58.1314599 64.0656735"></polygon><polygon id="Fill-19" fill="#1BAAE4" mask="url(#mask-5)" points="61.9701825 75.846449 63.3994526 75.846449 63.3994526 64.0656735 61.9701825 64.0656735"></polygon><path d="M67.3238533,74.3891878 C67.6222036,74.6396776 68.0064664,74.7645347 68.4750796,74.7645347 C68.9226051,74.7645347 69.347481,74.6497592 69.7489263,74.4194327 C70.1511526,74.1891061 70.4416927,73.8897592 70.6221088,73.5221673 L70.6221088,71.8199224 L69.5021234,71.8199224 C67.7510723,71.8199224 66.8755467,72.3286571 66.8755467,73.345351 C66.8755467,73.7912694 67.0255029,74.138698 67.3238533,74.3891878 M66.4436416,71.5283306 C67.1020431,71.0521673 68.0314591,70.8148612 69.2318898,70.8148612 L70.6221088,70.8148612 L70.6221088,70.1626571 C70.6221088,69.6671061 70.4729336,69.2715959 70.1738022,68.9776776 C69.8754518,68.6845347 69.4349555,68.5364122 68.8530942,68.5364122 C68.3438679,68.5364122 67.9158679,68.6643714 67.5706562,68.9202898 C67.2262255,69.1754327 67.0536197,69.4856367 67.0536197,69.8485755 L65.6165394,69.8485755 C65.6165394,69.4336776 65.7641526,69.0342898 66.0609409,68.6480857 C66.3569482,68.2626571 66.7583934,67.9563306 67.2660577,67.7314327 C67.7729409,67.5065347 68.3305905,67.3933102 68.9382255,67.3933102 C69.9012255,67.3933102 70.6556927,67.6329429 71.201627,68.1106571 C71.7475613,68.5891469 72.0302912,69.2475551 72.0513788,70.0858816 L72.0513788,73.9060449 C72.0513788,74.6675959 72.1490066,75.2740449 72.3450431,75.7238408 L72.3450431,75.8463714 L70.846262,75.8463714 C70.7634737,75.6827388 70.6963058,75.3911469 70.6455394,74.9715959 C69.9808898,75.6571469 69.1881526,75.9999224 68.2665467,75.9999224 C67.4417876,75.9999224 66.7662036,75.7680449 66.2382328,75.3058408 C65.7110431,74.8428612 65.4470577,74.2558 65.4470577,73.5454327 C65.4470577,72.6815143 65.778992,72.0091469 66.4436416,71.5283306" id="Fill-20" fill="#1BAAE4" mask="url(#mask-5)"></path><path d="M75.3724401,73.2925388 C75.3982139,73.767151 75.5903453,74.1448245 75.9480533,74.4232327 C76.3057613,74.7016408 76.7782796,74.8412327 77.365608,74.8412327 C77.9060752,74.8412327 78.3403234,74.7326612 78.6667905,74.5155184 C78.9940387,74.2983755 79.1580533,74.0083347 79.1580533,73.6446204 C79.1580533,73.2615184 79.0120022,72.9637224 78.721462,72.7520082 C78.4301409,72.5387429 77.9232577,72.356498 77.1992504,72.2029469 C76.4760241,72.0493959 75.901973,71.8656 75.4770971,71.6507837 C75.0522212,71.4359673 74.7382504,71.180049 74.5344036,70.8838041 C74.331338,70.5875592 74.2298051,70.234702 74.2298051,69.8252327 C74.2298051,69.1451102 74.5187832,68.5696816 75.0983015,68.0997224 C75.6778197,67.6289878 76.4182285,67.3940082 77.3195277,67.3940082 C78.2669073,67.3940082 79.0354328,67.6367429 79.6251044,68.1229878 C80.2147759,68.6084571 80.5092212,69.2296408 80.5092212,69.9865388 L79.0729219,69.9865388 C79.0729219,69.5972327 78.9065642,69.2629878 78.5746299,68.9814776 C78.2419146,68.7007429 77.8240679,68.5596 77.3195277,68.5596 C76.7993672,68.5596 76.3924547,68.672049 76.0987905,68.8969469 C75.8051263,69.1226204 75.6582942,69.4165388 75.6582942,69.7794776 C75.6582942,70.1214776 75.794973,70.3797224 76.0675496,70.5542122 C76.3409073,70.7279265 76.8337321,70.8938857 77.5468051,71.0520898 C78.2598781,71.2110694 78.8378343,71.4002939 79.2814547,71.6205388 C79.7242942,71.8400082 80.0523234,72.1044571 80.2663234,72.4138857 C80.4795423,72.7233143 80.5865423,73.1002122 80.5865423,73.5453551 C80.5865423,74.2867429 80.2874109,74.8815592 79.6907102,75.3282531 C79.0932285,75.7757224 78.3176737,75.9998449 77.365608,75.9998449 C76.6962723,75.9998449 76.1042577,75.8819673 75.5887832,75.6469878 C75.0740898,75.4112327 74.6710825,75.0831918 74.3797613,74.6613143 C74.0892212,74.2394367 73.9431701,73.7834367 73.9431701,73.2925388 L75.3724401,73.2925388 Z" id="Fill-21" fill="#1BAAE4" mask="url(#mask-5)"></path></g></g></g></svg>