<svg xmlns="http://www.w3.org/2000/svg" xmlns:xlink="http://www.w3.org/1999/xlink" width="200px" height="100px" viewBox="0 0 200 100"><title>Custom Preset Copy 3</title><desc>Created with Sketch.</desc><g id="Custom-Preset-Copy-3" stroke="none" stroke-width="1" fill="none" fill-rule="evenodd"><g id="Group" transform="translate(15.000000, 33.000000)"><g id="Group-32-Copy"><path d="M39.5017871,19.6624846 L41.9994164,19.6624846 C42.9033482,19.6624846 43.5149172,19.5111624 43.83354,19.2096863 C44.1521628,18.9082103 44.3120578,18.4822878 44.3120578,17.9325031 C44.3120578,17.3657749 44.1521628,16.9310886 43.83354,16.6278598 C43.5149172,16.326968 42.9033482,16.17623 41.9994164,16.17623 L39.5017871,16.17623 L39.5017871,19.6624846 Z M39.5017871,12.2103014 L41.8669487,12.2103014 C42.6104019,12.2103014 43.1157634,12.0881919 43.3812824,11.8387146 C43.6479685,11.5898216 43.7804362,11.2351784 43.7804362,10.7736162 C43.7804362,10.3132226 43.6479685,9.95799508 43.3812824,9.70968635 C43.1157634,9.46137761 42.6104019,9.33751538 41.8669487,9.33751538 L39.5017871,9.33751538 L39.5017871,12.2103014 Z M34,5 L42.861332,5 C44.1340725,5 45.1967321,5.12912054 46.0452258,5.38677737 C46.8948866,5.64326568 47.5712306,5.99440344 48.0754249,6.43610086 C48.5796192,6.88071956 48.937924,7.39953875 49.1497556,7.99314268 C49.3621708,8.58791513 49.468962,9.21423739 49.468962,9.8703567 C49.468962,10.7391451 49.2828069,11.5156212 48.9134145,12.198032 C48.5428551,12.8810271 47.9429572,13.4535978 47.1137209,13.9151599 C49.0377125,14.7839483 50,16.2831488 50,18.4110086 C50,19.1565191 49.8757021,19.8669742 49.628857,20.5406212 C49.3808447,21.2148524 48.9647677,21.8102091 48.3806259,22.32377 C47.7982347,22.8367466 47.0372748,23.24631 46.0989131,23.5472017 C45.1617186,23.8486777 44.0027719,24 42.6238238,24 L34,24 L34,5 Z" id="Fill-1" fill="#1A1919"></path><path d="M58.6843586,13.5154078 L60.6913233,13.5154078 C61.5889457,13.5154078 62.2281881,13.3465371 62.6061344,13.00938 C62.9846639,12.6722229 63.1753868,12.1673638 63.1753868,11.4918809 C63.1753868,10.8187354 62.9846639,10.3127076 62.6061344,9.9755505 C62.2281881,9.63780908 61.5889457,9.4695227 60.6913233,9.4695227 L58.6843586,9.4695227 L58.6843586,13.5154078 Z M68.8574124,11.2260118 C68.8574124,12.5039365 68.6147803,13.5948764 68.1283494,14.5005843 C67.640752,15.4051236 66.9548496,16.1413766 66.0694754,16.7093431 L70,24 L63.8373761,24 L60.8103064,17.9054619 L58.6843586,17.9054619 L58.6843586,24 L53,24 L53,5 L61.1421759,5 C62.5973857,5 63.8157958,5.1624431 64.8009058,5.49200394 C65.7860157,5.81981178 66.5792363,6.26273219 67.181734,6.82193382 C67.7859814,7.37996679 68.2152537,8.04084143 68.4718839,8.80514208 C68.7302638,9.56768975 68.8574124,10.3746463 68.8574124,11.2260118 L68.8574124,11.2260118 Z" id="Fill-3" fill="#1A1919"></path><polygon id="Fill-5" fill="#1A1919" points="73 5 86.4339563 5 86.4339563 9.65593481 78.6409951 9.65593481 78.6409951 12.0782595 85.9279054 12.0782595 85.9279054 16.7353629 78.6409951 16.7353629 78.6409951 19.3428967 87 19.3428967 86.2400905 24 73 24"></polygon><polygon id="Fill-7" fill="#1A1919" points="96.4563163 5 99.5520015 17.5860394 102.648849 5 109 5 103.256598 24 95.6899483 24 90 5"></polygon><path d="M115.758774,16.229849 L119.088862,16.229849 L117.423537,9.9222253 L115.758774,16.229849 Z M120.317334,20.9399699 L114.529739,20.9399699 L113.735308,24 L108,24 L113.940522,5 L121.110641,5 L127,24 L121.135941,24 L120.317334,20.9399699 Z" id="Fill-9" fill="#1A1919"></path><polygon id="Fill-11" fill="#1A1919" points="130 5 134.913246 5 140.659106 14.6051661 140.659106 5 146 5 146 24 141.136544 24 135.342001 14.3404982 135.342001 24 130 24"></polygon><polygon id="Fill-13" fill="#1A1919" points="155.094077 10.1886705 150 10.1886705 150 5 166 5 166 10.1886705 160.905361 10.1886705 160.905361 24 155.094077 24"></polygon><path d="M40,38.3660144 C40,40.076877 38.6915314,41 37.0666082,41 C35.5638438,41 34.4807372,40.2302316 34,38.9986022 L35.3979816,38.0736821 C35.6386134,38.8452476 36.2399298,39.3065096 37.0666082,39.3065096 C37.7890303,39.3065096 38.3455902,39.0327476 38.3455902,38.3480431 C38.3455902,36.8246805 34.2990785,37.6801118 34.2990785,34.6190096 C34.2990785,33.0111821 35.5190873,32 37.0518649,32 C38.2850373,32 39.307591,32.6511581 39.8336112,33.7791534 L38.4661694,34.6513578 C38.1955244,33.9846246 37.6689776,33.6779153 37.0518649,33.6779153 C36.4658183,33.6779153 35.955068,33.9684505 35.955068,34.5836661 C35.955068,36.1411741 40,35.2000799 40,38.3660144" id="Fill-15" fill="#1A1919"></path><path d="M48.3064582,35.7817492 C48.0731475,34.3099042 47.0947655,33.6767173 46.0848402,33.6767173 C44.8274643,33.6767173 43.9725357,34.4986022 43.739225,35.7817492 L48.3064582,35.7817492 Z M46.2409245,39.3065096 C47.1725357,39.3065096 47.87138,38.8440495 48.2450034,38.2468051 L49.6274643,39.1357827 C48.9123046,40.2991214 47.7468389,41 46.225153,41 C43.6619986,41 42,39.0662939 42,36.5 C42,33.9690495 43.6619986,32 46.1006118,32 C48.4157716,32 50,34.0529153 50,36.5179712 C50,36.774361 49.9684568,37.048123 49.9374575,37.2871406 L43.7544528,37.2871406 C44.0193066,38.6230032 44.9976886,39.3065096 46.2409245,39.3065096 L46.2409245,39.3065096 Z" id="Fill-17" fill="#1A1919"></path><path d="M64,41 L62.236723,41 L62.236723,35.684638 C62.236723,34.4562206 61.6165754,33.7719921 60.6534889,33.7719921 C59.6092403,33.7719921 58.8736366,34.4906163 58.8736366,36.0875589 L58.8736366,41 L57.1109312,41 L57.1109312,35.684638 C57.1109312,34.4562206 56.5399381,33.7719921 55.5762801,33.7719921 C54.5800429,33.7719921 53.7638485,34.4906163 53.7638485,36.0875589 L53.7638485,41 L52.5,41 L52,41 L52,32.2278714 L53.7638485,32.2278714 L53.7638485,33.2806251 C54.2856871,32.420733 55.0864492,32 56.0981186,32 C57.1595142,32 57.9437009,32.5085648 58.4169564,33.3856548 C58.9559419,32.4741691 59.8207192,32 60.9141224,32 C62.7597047,32 64,33.368457 64,35.5624104 L64,41 Z" id="Fill-19" fill="#1A1919"></path><path d="M66,41 L68,41 L68,33 L66,33 L66,41 Z M66,30.0007608 C66,29.4504185 66.4501396,29 66.9997463,29 C67.5508754,29 68,29.4504185 68,30.0007608 C68,30.5369008 67.5508754,31 66.9997463,31 C66.4501396,31 66,30.5369008 66,30.0007608 L66,30.0007608 Z" id="Fill-21" fill="#1A1919"></path><polygon id="Fill-23" fill="#1A1919" points="70 41 72 41 72 29 70 29"></polygon><polygon id="Fill-24" fill="#1A1919" points="74 41 76 41 76 29 74 29"></polygon><path d="M85.1724024,36.5 C85.1724024,34.9089457 84.022307,33.7635783 82.5002961,33.7635783 C80.9765085,33.7635783 79.8270053,34.9089457 79.8270053,36.5 C79.8270053,38.0922524 80.9765085,39.2382188 82.5002961,39.2382188 C84.022307,39.2382188 85.1724024,38.0922524 85.1724024,36.5 L85.1724024,36.5 Z M87,32.2222444 L87,40.7777556 L85.1724024,40.7777556 L85.1724024,39.5455272 C84.5298414,40.4530751 83.5319471,41 82.2136606,41 C79.9122853,41 78,39.0327476 78,36.5 C78,33.9510783 79.9122853,32 82.2136606,32 C83.5319471,32 84.5298414,32.548722 85.1724024,33.4376997 L85.1724024,32.2222444 L87,32.2222444 Z" id="Fill-25" fill="#1A1919"></path><path d="M94,38.3660144 C94,40.076877 92.691761,41 91.0671229,41 C89.5640958,41 88.4817057,40.2302316 88,38.9986022 L89.3982627,38.0736821 C89.6383259,38.8452476 90.2405896,39.3065096 91.0671229,39.3065096 C91.7894183,39.3065096 92.345354,39.0327476 92.345354,38.3480431 C92.345354,36.8246805 88.300079,37.6801118 88.300079,34.6190096 C88.300079,33.0111821 89.5193472,32 91.0523822,32 C92.2848118,32 93.3066596,32.6511581 93.8341669,33.7791534 L92.4659121,34.6513578 C92.1953146,33.9846246 91.6693867,33.6779153 91.0523822,33.6779153 C90.4664385,33.6779153 89.9547249,33.9684505 89.9547249,34.5836661 C89.9547249,36.1411741 94,35.2000799 94,38.3660144" id="Fill-26" fill="#1A1919"></path><path d="M9,4.49940104 C9,6.98688939 6.98516399,9 4.50149691,9 C2.01543477,9 0,6.98688939 0,4.49940104 C0,2.01311061 2.01543477,0 4.50149691,0 C6.98516399,0 9,2.01311061 9,4.49940104" id="Fill-29" fill="#E77930"></path><polygon id="Fill-30" fill="#591529" points="13.5167668 0 20 0 12.4808976 24 6 24"></polygon><polygon id="Fill-31" fill="#591529" points="20.487174 10 27 10 22.5110661 24 16 24"></polygon></g><path d="M167.999784,21.295969 L167.769106,21.295969 L167.769106,21.8314292 L167.999784,21.8314292 C168.197262,21.8314292 168.366282,21.7917655 168.366282,21.5662858 C168.366282,21.3408062 168.197262,21.295969 167.999784,21.295969 Z M169.07082,23.1830136 L168.366282,23.1830136 L167.943732,22.3095495 L167.769106,22.3095495 L167.769106,23.1830136 L167.166325,23.1830136 L167.166325,20.8169864 L168.095936,20.8169864 C168.665086,20.8169864 168.974669,21.0985126 168.974669,21.5490407 C168.974669,22 168.687507,22.1690019 168.535302,22.2254796 L169.07082,23.1830136 Z M167.999784,20.3380039 C167.042578,20.3380039 166.337609,21.042466 166.337609,22 C166.337609,22.9579651 167.042578,23.6619961 167.999784,23.6619961 C168.957853,23.6619961 169.66196,22.9579651 169.66196,22 C169.66196,21.042466 168.957853,20.3380039 167.999784,20.3380039 Z M167.999784,24 C166.873127,24 166,23.1265359 166,22 C166,20.8734641 166.873127,20 167.999784,20 C169.126873,20 170,20.8734641 170,22 C170,23.1265359 169.126873,24 167.999784,24 L167.999784,24 Z" id="Fill-23" fill="#1A1919"></path></g></g></svg>