<?xml version='1.0' encoding='utf-8'?>
<svg xmlns="http://www.w3.org/2000/svg" width="200px" height="100px" viewBox="0 0 200 100">
  <title>Custom Preset Copy</title>
  <desc>Vector content wrapped as SVG sprite element</desc>
  
  <!-- Ajustamos el viewBox para que coincida con el segundo SVG (841.9x595.4) -->
  <!-- y escalamos/posicionamos para que quepa en 200x100 -->
  <g id="Custom-Preset-Copy" transform="translate(0, -28) scale(0.2375)">
    
    <!-- Logotipo principal del segundo SVG -->
    <path d="M86,286.3c-9.5,2.6-17.8,5.7-26.6,9.9,0-6-.2-11.6.3-17,4.8-57,58.4-96,113.5-83.8,54.5,12,86.7,69.2,67.9,122.5-44-35.4-101.1-45.9-155-31.6Z" fill="#ffd801"/>
    <path d="M217.2,356.3c-14.5-21.1-34.4-37.3-57.6-47.8-33.1-14.8-70.3-17.1-105.1-7.4,33.9-16.6,72-21.8,109-14.4,27.7,5.6,53.8,17.3,76.3,34.6-4.9,13.2-12.2,24.8-22.6,35Z" fill="#f8bf00"/>
    <path d="M181.3,378.9c-6.8-17.8-17.6-32.9-31.9-45.1-28.5-24.1-64.4-33.1-101.6-28.3,35.1-11.5,73.5-9.9,107.5,4.7,23.9,10.4,44.6,26.8,59.2,48.6-9.7,8.9-20.4,15.6-33.2,20.1Z" fill="#ed7213"/>
    <path d="M177.5,380c-10.6,3.6-21.4,4.8-32.7,4.4-8.7-19.5-22.4-36-39.7-48.6-19.8-14.5-42.6-22.6-67.5-25.4,24.1-5.5,49.3-3.7,72.5,4.7,16.7,6.2,31.6,15.6,44.1,28.3,10.1,10.5,18,22.4,23.3,36.7Z" fill="#2e9866"/>
    
    <!-- Icono/logo en negro -->
    <path d="M499.1,355.4c-3.4-.5-6.5-.2-10-.2l-3,7.8c-.2.5-1.3.5-1.9,0l8.5-23.2c.2-.6,2-.4,2.4,0l8.8,23.3c-2.6,2.3-3.5-5-4.9-7.6ZM498.2,353l-4.4-11.1-4,11.3c3.1,0,5.4.5,8.3-.2Z" fill="#040303"/>
    
    <!-- Primera línea de texto -->
    <g fill="#040303">
      <path d="M268.1,356c.6,2.8,2.5,4.4,6,4.4s5.3-1.9,5.3-4.1-1.1-3.8-5.8-5c-4.9-1.2-6.9-2.9-6.9-6s2.3-5.8,7.1-5.8,7.2,3,7.5,5.8h-2.3c-.5-2.2-1.9-3.9-5.3-3.9s-4.6,1.4-4.6,3.7,1.4,3.2,5.4,4.2c6.3,1.6,7.3,4,7.3,6.8s-2.5,6.2-7.8,6.2-7.8-3.2-8.2-6.3h2.3Z"/>
      <path d="M318.1,351.4h-11.2v8.7h12.3l-.3,2h-14.2v-22.3h14v2h-11.8v7.5h11.2v2Z"/>
      <path d="M360.8,352.2c0-4.3,0-8.4.1-10.7h-.1c-.9,3.3-5,13.6-7.7,20.6h-2.1c-2-5.6-6.3-17.1-7.3-20.7h0c.2,2.6.2,7.6.2,11.4v9.2h-2.2v-22.3h3.4c2.8,7.3,6.3,16.8,7.1,19.5h0c.5-1.9,4.6-12.4,7.5-19.5h3.3v22.3h-2.2v-9.9Z"/>
      <path d="M389.8,339.8v22.3h-2.3v-22.3h2.3Z"/>
      <path d="M414.3,339.8h2.3v20.2h11.8l-.4,2h-13.7v-22.3Z"/>
      <path d="M449.9,339.8h2.3v20.2h11.8l-.4,2h-13.7v-22.3Z"/>
      <path d="M489.4,354.9l-2.6,7.2h-2.3l8.1-22.3h2.8l8.4,22.3h-2.4l-2.7-7.2h-9.2ZM497.9,352.9c-2.3-6.3-3.5-9.4-4-11h0c-.5,1.8-1.9,5.6-3.8,11h7.8Z"/>
      <path d="M526.6,356c.6,2.8,2.5,4.4,6,4.4s5.3-1.9,5.3-4.1-1.1-3.8-5.8-5c-5-1.2-6.9-2.9-6.9-6s2.3-5.8,7.1-5.8,7.2,3,7.5,5.8h-2.3c-.5-2.2-1.9-3.9-5.3-3.9s-4.6,1.4-4.6,3.7,1.4,3.2,5.4,4.2c6.3,1.6,7.3,4,7.3,6.8s-2.5,6.2-7.8,6.2-7.8-3.2-8.2-6.3h2.3Z"/>
    </g>
    
    <!-- Segunda línea de texto -->
    <g fill="#040303">
      <path d="M314.2,257.6c-5.2-2.6-11.3-3.9-18.1-3.9h-28.6v63h28.6c6.8,0,12.9-1.3,18.1-3.9,5.2-2.6,9.3-6.3,12.2-11,2.9-4.7,4.4-10.2,4.4-16.6s-1.5-12-4.4-16.7c-2.9-4.7-7-8.3-12.2-10.9ZM313.5,295.5c-1.7,2.9-4.1,5.2-7.2,6.8-3.1,1.6-6.7,2.4-10.9,2.4h-13.3v-39.1h13.3c4.2,0,7.8.8,10.9,2.4,3.1,1.6,5.5,3.8,7.2,6.8,1.7,2.9,2.6,6.4,2.6,10.4s-.9,7.4-2.6,10.4Z"/>
      <path d="M393.8,261.9c-3.1-2.9-6.7-5.2-10.9-6.8-4.2-1.6-8.7-2.4-13.7-2.4s-9.5.8-13.7,2.4c-4.2,1.6-7.9,3.9-11,6.8-3.1,2.9-5.5,6.4-7.2,10.4s-2.6,8.3-2.6,13,.9,9,2.6,13,4.1,7.4,7.2,10.4c3.1,2.9,6.8,5.2,11,6.8,4.2,1.6,8.8,2.4,13.8,2.4s9.5-.8,13.6-2.4c4.2-1.6,7.8-3.9,10.9-6.8,3.1-2.9,5.5-6.4,7.2-10.4,1.7-4,2.6-8.3,2.6-13s-.9-9.1-2.6-13c-1.7-3.9-4.2-7.4-7.2-10.3ZM387.4,293.4c-1,2.5-2.4,4.6-4.2,6.4-1.8,1.8-3.9,3.2-6.3,4.1-2.4,1-5,1.4-7.8,1.4s-5.4-.5-7.8-1.4c-2.4-1-4.5-2.3-6.3-4.1-1.8-1.8-3.2-3.9-4.1-6.4-1-2.5-1.5-5.2-1.5-8.1s.5-5.7,1.5-8.2c1-2.5,2.4-4.6,4.2-6.4s3.9-3.2,6.3-4.1c2.4-1,5-1.4,7.8-1.4s5.4.5,7.8,1.4c2.4,1,4.5,2.3,6.3,4.1,1.8,1.8,3.2,3.9,4.1,6.4,1,2.5,1.5,5.2,1.5,8.2s-.5,5.7-1.5,8.2Z"/>
      <polygon points="455.3 291.9 423.9 253.7 411.9 253.7 411.9 316.7 426.3 316.7 426.3 278.4 457.7 316.7 469.7 316.7 469.7 253.7 455.3 253.7 455.3 291.9"/>
      <polygon points="540.4 253.7 517.2 292.8 493.6 253.7 481.6 253.7 481.6 316.7 495.2 316.7 495.2 279.7 513.7 310 520.3 310 538.8 278.9 538.9 316.7 552.6 316.7 552.4 253.7 540.4 253.7"/>
      <path d="M587.9,253.7l-28.1,63h14.9l5.6-13.5h29.2l5.6,13.5h15.3l-28.2-63h-14.4ZM585,292.1l10-24.1,10,24.1h-20Z"/>
      <path d="M679,296.4c4.1-1.8,7.2-4.4,9.5-7.8,2.2-3.4,3.3-7.4,3.3-12.1,0-7.1-2.4-12.7-7.3-16.8-4.9-4.1-11.7-6.1-20.4-6.1h-26.9v63h14.6v-17.6h12.7c.2,0,.5,0,.7,0l12.1,17.6h15.8l-14.1-20.2s0,0,.1,0ZM673.7,268.4c2.2,1.9,3.3,4.6,3.3,8.1s-1.1,6.1-3.3,8.1c-2.2,2-5.6,2.9-10.1,2.9h-11.9v-22h11.9c4.5,0,7.9,1,10.1,2.9Z"/>
      <rect x="699.9" y="253.7" width="14.6" height="63"/>
      <path d="M790.8,272.2c-1.7-3.9-4.2-7.4-7.2-10.3-3.1-2.9-6.7-5.2-10.9-6.8-4.2-1.6-8.7-2.4-13.7-2.4s-9.5.8-13.7,2.4c-4.2,1.6-7.9,3.9-11,6.8-3.1,2.9-5.5,6.4-7.2,10.4-1.7,4-2.6,8.3-2.6,13s.9,9,2.6,13c1.7,4,4.1,7.4,7.2,10.4,3.1,2.9,6.8,5.2,11,6.8,4.2,1.6,8.8,2.4,13.8,2.4s9.5-.8,13.6-2.4c4.2-1.6,7.8-3.9,10.9-6.8,3.1-2.9,5.5-6.4,7.2-10.4,1.7-4,2.6-8.3,2.6-13s-.9-9.1-2.6-13ZM777.1,293.4c-1,2.5-2.4,4.6-4.2,6.4-1.8,1.8-3.9,3.2-6.3,4.1-2.4,1-5,1.4-7.8,1.4s-5.4-.5-7.8-1.4c-2.4-1-4.5-2.3-6.3-4.1-1.8-1.8-3.2-3.9-4.1-6.4-1-2.5-1.5-5.2-1.5-8.1s.5-5.7,1.5-8.2c1-2.5,2.4-4.6,4.2-6.4,1.8-1.8,3.9-3.2,6.3-4.1,2.4-1,5-1.4,7.8-1.4s5.4.5,7.8,1.4c2.4,1,4.5,2.3,6.3,4.1,1.8,1.8,3.2,3.9,4.1,6.4,1,2.5,1.5,5.2,1.5,8.2s-.5,5.7-1.5,8.2Z"/>
    </g>
    
  </g>
</svg>