<svg xmlns="http://www.w3.org/2000/svg" xmlns:xlink="http://www.w3.org/1999/xlink" width="200px" height="100px" viewBox="0 0 200 100"><title>Custom Preset Copy 2</title><desc>Created with Sketch.</desc><defs><polygon id="path-1" points="0.351095858 0.4309 16.7266484 0.4309 16.7266484 20.8862731 0.351095858 20.8862731"></polygon><polygon id="path-3" points="0 0.075880597 31.053549 0.075880597 31.053549 31 0 31"></polygon></defs><g id="Custom-Preset-Copy-2" stroke="none" stroke-width="1" fill="none" fill-rule="evenodd"><g id="Group-48" transform="translate(15.000000, 35.000000)"><polygon id="Fill-1" fill="#12120D" points="40 26 47 26 47 6 40 6"></polygon><polygon id="Fill-2" fill="#12120D" points="57.4043572 6 51 6 51 26 66 26 66 21.3636597 57.4043572 21.3636597"></polygon><polygon id="Fill-3" fill="#12120D" points="74.4041568 6 68 6 68 26 83 26 83 21.3636597 74.4041568 21.3636597"></polygon><polygon id="Fill-4" fill="#12120D" points="84 26 91 26 91 6 84 6"></polygon><polygon id="Fill-5" fill="#12120D" points="111.155817 17.8375739 104.749079 6 97 6 97 26 102.957257 26 102.79445 14.0614939 109.432965 26 117 26 117 6 111.073709 6"></polygon><polygon id="Fill-6" fill="#12120D" points="144 26 151 26 151 6 144 6"></polygon><g id="Group-47"><path d="M130.23855,5.05767313 C123.353253,5.05767313 119.403425,8.78461343 119.403425,15.284897 C119.403425,21.6894045 123.453847,25.5125836 130.23855,25.5125836 C137.023253,25.5125836 141.072739,21.6894045 141.072739,15.284897 C141.072739,8.78461343 137.124782,5.05767313 130.23855,5.05767313 M134.512618,15.284897 C134.512618,16.6081806 134.203818,20.9227328 130.23855,20.9227328 C126.272346,20.9227328 125.964014,16.6081806 125.964014,15.284897 C125.964014,13.5896134 126.380894,9.64706119 130.23855,9.64706119 C134.096674,9.64706119 134.512618,13.5896134 134.512618,15.284897" id="Fill-7" fill="#12120D"></path><g id="Group-11" transform="translate(153.464074, 4.626866)"><mask id="mask-2" fill="white"><use xlink:href="#path-1"></use></mask><g id="Clip-10"></g><path d="M10.0633131,8.0809597 C8.10196737,7.57848209 6.91121716,7.21110896 6.91121716,6.36531791 C6.91121716,5.44734776 7.95832874,5.01982537 10.2041445,5.01982537 C11.804756,5.01982537 13.3417362,5.30854179 14.6489881,5.8559 L15.1856445,6.08030299 L15.6259179,1.2577209 L15.2993389,1.15731791 C13.815229,0.695556716 11.8178566,0.4309 9.81861276,0.4309 C1.27328394,0.4309 0.351095858,4.79033284 0.351095858,6.66375075 C0.351095858,11.0060642 3.91492468,11.9897358 6.77974336,12.7800045 C8.87911319,13.3597507 10.1662463,13.7710791 10.1662463,14.869497 C10.1662463,15.4825567 9.85604303,16.2959597 7.1708896,16.2959597 C5.18147117,16.2959597 3.22152908,15.8675119 1.65086171,15.0906612 L1.10671927,14.8218403 L0.522807185,19.9525716 L0.86342257,20.0534373 C2.60626915,20.566094 5.02286044,20.8862731 7.1708896,20.8862731 C13.4226791,20.8862731 16.7268355,18.5797806 16.7268355,14.217109 C16.7268355,9.79151194 12.8761973,8.80275075 10.0633131,8.0809597" id="Fill-9" fill="#12120D" mask="url(#mask-2)"></path></g><g id="Group-14"><mask id="mask-4" fill="white"><use xlink:href="#path-3"></use></mask><g id="Clip-13"></g><path d="M31.053549,29.2426239 C31.053549,29.2426239 15.6290059,33.1967433 0,29.2426239 L0,2.15880299 C16.9516978,-2.52821194 31.053549,2.15880299 31.053549,2.15880299 L31.053549,29.2426239 Z" id="Fill-12" fill="#E3241C" mask="url(#mask-4)"></path></g><path d="M10.2498094,21.9472597 C10.2498094,21.9472597 7.39481615,21.9171851 7.29936898,21.6321701 C7.12344675,21.2476776 7.13467582,20.5568866 7.0640262,20.0821701 C7.50851057,19.9956478 8.68428867,19.6389164 8.66978445,19.5801552 C8.65106932,19.5052 7.13467582,19.7097075 6.95267117,19.6972149 C4.59128952,19.7434836 6.04311581,15.8212896 7.36393618,13.8030507 C8.85646788,13.9895134 12.7066382,14.4498866 12.7066382,14.4498866 C12.7066382,14.4498866 12.868992,14.7117672 13.1422329,14.9310806 C13.6391196,18.4974687 13.8309497,19.3502 14.0648888,20.9228716 C13.9320114,21.0417821 13.9423047,21.1620806 13.8964527,21.3008866 C13.5708094,21.2384239 13.0870232,20.4703642 12.8320296,21.8186328 C12.307538,24.6155731 7.65074556,25.1971701 7.42195309,24.085797 C7.10473161,22.5515284 7.43037489,22.2086776 7.43037489,22.2086776 L10.2498094,21.9472597 Z M7.87251986,15.5251701 C7.87251986,15.5251701 7.499153,15.9448269 7.72279882,16.1127821 C7.79485207,16.1673791 7.76350423,16.1951403 8.07370752,16.204394 C8.77318555,16.7693343 8.86956847,16.1993045 9.24854987,16.1710806 C9.57091801,16.1465582 10.1234822,16.110006 10.2633779,16.0706776 C10.7116052,15.9448269 10.78553,15.5251701 7.87251986,15.5251701 L7.87251986,15.5251701 Z" id="Fill-15" fill="#FFFFFF"></path><path d="M7.64110727,13.228209 L12.5355819,13.7797313 C12.5355819,13.7797313 12.5042341,13.4586269 12.6562945,13.1481642 L7.7632235,12.0552985 C7.7632235,12.0552985 7.59104429,12.5966418 7.64110727,13.228209" id="Fill-17" fill="#FFFFFF"></path><path d="M8.188712,11.504794 C8.188712,11.504794 8.79648588,10.1121075 10.5491579,9.13121194 L12.9606025,12.5666597 L8.188712,11.504794 Z" id="Fill-19" fill="#FFFFFF"></path><path d="M11.0860482,8.77017761 C11.0860482,8.77017761 14.1455043,5.42356567 18.9468711,5.61372985 C18.9468711,5.61372985 19.892921,4.93543134 20.1156311,4.3686403 C20.1156311,4.3686403 19.9340943,4.25805821 19.5097287,4.22659552 C18.8032325,4.17477463 17.2699954,4.32190896 16.1512984,4.65550597 C15.5697257,4.81744627 15.041959,5.05804328 14.4641294,5.34398358 C12.140178,6.55668507 10.9508314,8.57168507 10.9508314,8.57168507 C11.0102519,8.66237164 11.0860482,8.77017761 11.0860482,8.77017761" id="Fill-21" fill="#FFFFFF"></path><path d="M11.5568741,9.45111343 L12.1697947,10.3228149 C12.1697947,10.3228149 15.4323099,7.62812836 20.0825521,8.35917313 C20.0825521,8.35917313 22.0672917,7.66838209 22.2703509,7.18672537 C22.047173,6.8758 19.959968,6.27477015 17.8531121,6.43578507 C16.6473898,6.52508358 15.8173737,6.81657612 15.5731413,6.88644179 C15.5731413,6.88644179 13.5069908,7.44721791 11.5568741,9.45111343" id="Fill-23" fill="#FFFFFF"></path><path d="M12.9604622,11.4631522 C12.9604622,11.4631522 15.7873827,9.71234627 20.5723738,11.4987791 C20.5723738,11.4987791 23.3033793,11.1966448 23.7249377,10.6395701 C23.6907825,10.2689582 18.2152031,7.02228657 12.6329474,10.9879731" id="Fill-25" fill="#FFFFFF"></path><path d="M13.4306798,12.1158179 C18.1365995,9.79174328 25.1575809,14.6198776 25.4355006,15.1959224 C24.1853299,15.6419522 16.2926913,13.7060716 15.4692255,13.4918478 C15.4692255,13.4918478 15.3195044,12.6090418 14.4431684,12.3698328 C14.1998717,12.303206 13.9551714,12.2925642 13.5775936,12.3564149 L13.4306798,12.1158179 Z" id="Fill-27" fill="#FFFFFF"></path><path d="M14.9657885,13.7448448 C14.9657885,14.2635164 14.5404871,14.6836358 14.0159956,14.6836358 C13.4919719,14.6836358 13.0666705,14.2635164 13.0666705,13.7448448 C13.0666705,13.2270985 13.4919719,12.8060537 14.0159956,12.8060537 C14.5404871,12.8060537 14.9657885,13.2270985 14.9657885,13.7448448" id="Fill-29" fill="#FFFFFF"></path><path d="M15.1525187,21.4076284 C15.1525187,21.6505388 14.9536704,21.8471806 14.7080343,21.8471806 C14.4614625,21.8471806 14.2626142,21.6505388 14.2626142,21.4076284 C14.2626142,21.1637925 14.4614625,20.9671507 14.7080343,20.9671507 C14.9536704,20.9671507 15.1525187,21.1637925 15.1525187,21.4076284" id="Fill-31" fill="#FFFFFF"></path><path d="M13.7311513,15.1822731 C13.7311513,15.1822731 14.135866,15.2738851 14.5410486,15.1165716 C14.5410486,15.1165716 14.8727743,20.542497 14.87371,20.6429 C14.7333465,20.6317955 14.5616352,20.6419746 14.5616352,20.6419746 L13.7311513,15.1822731 Z" id="Fill-33" fill="#FFFFFF"></path><path d="M15.4116297,14.2825791 C15.4116297,14.2825791 15.3582915,14.5264149 15.0059792,14.8803701 C15.0059792,14.8803701 23.293975,19.3790716 25.0457112,19.2092657 C25.0457112,19.2092657 24.9343562,18.356997 21.9263668,15.7122806 C21.9263668,15.7122806 19.7680443,15.3620269 15.4116297,14.2825791" id="Fill-35" fill="#FFFFFF"></path><path d="M15.1279083,15.8526597 C15.1279083,15.8526597 19.2513195,18.0966896 22.6649594,19.439406 C22.6649594,19.439406 24.6815148,21.8231672 24.9046927,22.9160328 C24.9046927,22.9160328 23.6170917,23.137197 15.1882646,16.8849134 L15.1279083,15.8526597 Z" id="Fill-37" fill="#FFFFFF"></path><path d="M15.2698626,17.9263284 C15.2698626,17.9263284 18.9169737,20.631194 21.1253592,21.9743731 C21.1253592,21.9743731 23.597628,24.3183433 23.6177467,24.8999403 C23.1203921,25.039209 17.8029555,23.6270896 15.4013363,20.2911194" id="Fill-39" fill="#FFFFFF"></path><path d="M15.067318,21.993991 C16.3441579,23.216409 16.6066376,24.6988567 17.3360598,25.4109313 C17.3360598,25.4109313 15.9895061,25.3799313 15.1590222,23.356603 C15.1590222,23.356603 14.955963,22.7051403 15.067318,21.993991" id="Fill-41" fill="#FFFFFF"></path><path d="M15.1687073,24.3378687 C15.1687073,24.3378687 15.3516477,24.7690925 16.0492542,25.4399881 C16.0492542,25.4399881 15.8569562,26.8923612 15.8265441,27.1935701 C15.8265441,27.1935701 15.1991194,26.2718985 15.0681134,25.5602866 C15.0681134,25.5602866 15.1378273,24.9296448 15.1687073,24.3378687" id="Fill-43" fill="#FFFFFF"></path><path d="M14.4496251,22.1641209 C14.4496251,22.1641209 15.2085237,24.4881955 14.1749806,26.7428672 C13.3243779,24.3378224 13.4259075,22.9358821 14.4496251,22.1641209" id="Fill-45" fill="#FFFFFF"></path></g></g></g></svg>