<svg xmlns="http://www.w3.org/2000/svg" xmlns:xlink="http://www.w3.org/1999/xlink" width="200px" height="100px" viewBox="0 0 200 100"><title>Custom Preset Copy 8</title><desc>Created with Sketch.</desc><g id="Custom-Preset-Copy-8" stroke="none" stroke-width="1" fill="none" fill-rule="evenodd"><g id="logo-macro-seed" transform="translate(25.000000, 25.000000)" fill-rule="nonzero"><path d="M32.33,24.54 C32.6416746,27.8232517 32.449453,31.1348586 31.76,34.36 L30.32,42.48 L20.08,42.48 C19.3318779,42.4681795 18.5860097,42.3945961 17.85,42.26 L20.69,45.94 C22.6760766,48.512361 25.7606182,49.9953137 29.01,49.94 L37.2,49.94 L38.27,43.94 C39.54,36.74 39.85,29.76 32.33,24.54 Z" id="Path" fill="#15A452"></path><path d="M23.37,14.5 C23.6820654,17.7799213 23.4898359,21.0882931 22.8,24.31 L21.36,32.43 L11.12,32.43 C10.3721808,32.4209844 9.62635545,32.3507497 8.89,32.22 L11.73,35.9 C13.7119538,38.4774467 16.799221,39.9617098 20.05,39.9 L28.25,39.9 L29.31,33.9 C30.58,26.7 30.89,19.71 23.37,14.5 Z" id="Path" fill="#15A452"></path><path d="M14.47,4.52 C14.7801319,7.80283414 14.5913246,11.1137051 13.91,14.34 L12.47,22.47 L2.22,22.47 C1.47522811,22.4498952 0.733074969,22.3730055 1.77635684e-15,22.24 L2.84,25.92 C4.82607661,28.492361 7.91061823,29.9753137 11.16,29.92 L19.35,29.92 L20.42,23.92 C21.68,16.72 22,9.74 14.47,4.52 Z" id="Path" fill="#15A452"></path><path d="M46.84,39.15 C49.7,42.15 51.64,43.22 53.93,43.22 C54.93,43.22 55.51,42.82 55.51,42.22 C55.5053643,41.862845 55.3211667,41.5320412 55.02,41.34 C54.728999,41.142903 54.4171056,40.9785721 54.09,40.85 L53.37,40.57 L52.6,40.29 L51.88,40 C48.21,38.63 46.28,35.93 46.28,32.18 C46.28,26.62 50.67,22.83 57.08,22.83 C60.6745647,22.7551868 64.182681,23.9363469 67,26.17 L63.16,32.9 C61.16,31.13 59.16,30.12 57.68,30.12 C57.3511352,30.0807235 57.0207796,30.1802795 56.768377,30.3947269 C56.5159743,30.6091742 56.3643622,30.9191096 56.35,31.25 C56.3575075,31.6298243 56.5570411,31.9799491 56.88,32.18 C57.2699831,32.4468643 57.6853251,32.6746325 58.12,32.86 L58.85,33.23 L59.62,33.55 L60.34,33.91 C64.09,35.6 65.58,37.7 65.58,41.21 C65.58,47 60.74,51 53.73,51 C49.42,51 45.73,49.47 42,46.12 L46.84,39.15 Z" id="Path" fill="#15A452"></path><polygon id="Path" fill="#15A452" points="70.46 23.47 88.75 23.47 87.5 30.57 79 30.57 78.52 33.27 86.34 33.27 85.09 40.16 77.27 40.16 76.7 43.22 86 43.22 84.75 50.31 65.62 50.31"></polygon><polygon id="Path" fill="#15A452" points="91.37 23.47 109.67 23.47 108.42 30.57 99.92 30.57 99.43 33.27 107.25 33.27 106 40.16 98.18 40.16 97.62 43.22 106.89 43.22 105.64 50.31 86.53 50.31"></polygon><path d="M112.29,23.47 L122,23.47 C126.07,23.47 129.38,24.36 131.59,26.05 C134.33,28.19 135.46,30.73 135.46,34.92 C135.46,40.76 132.84,45.64 128.25,48.3 C125.646172,49.7233993 122.705276,50.4145618 119.74,50.3 L107.41,50.3 L112.29,23.47 Z M119.86,42.37 C123.29,42.37 125.63,39.75 125.63,36.05 C125.63,33.1 124.06,31.53 121.19,31.57 L120.67,31.57 L118.74,42.37 L119.86,42.37 Z" id="Shape" fill="#15A452"></path><path d="M76.21,1.43 L70.63,17.8 L68.05,1.43 L61.16,1.43 L58.78,10.43 L56.4,1.43 L49.24,1.43 L46.59,19.43 L53.08,19.43 L54.08,9.78 L56.62,19.43 L60.86,19.43 L63.43,9.84 L64.43,19.43 L76.83,19.43 L77.45,17.11 L82.27,17.11 L82.89,19.43 L89.7,19.43 L83.45,1.43 L76.21,1.43 Z M78.48,12.78 L79.89,7.78 L81.18,12.78 L78.48,12.78 Z" id="Shape" fill="#1F1410"></path><path d="M97.7,1 C95.1976403,0.976640236 92.7944361,1.97697031 91.0477286,3.76899782 C89.301021,5.56102532 88.3625638,7.98905924 88.45,10.49 C88.3524698,12.9756725 89.2880933,15.3908574 91.0347249,17.1621162 C92.7813565,18.933375 95.1832057,19.9027203 97.67,19.84 C99.2287223,19.831107 100.770782,19.5186192 102.21,18.92 L102.21,12.3 C100.64,13.51 99.89,13.84 98.59,13.84 C97.6626371,13.8820541 96.759607,13.5362562 96.0975218,12.8855536 C95.4354367,12.234851 95.0740325,11.3379527 95.1,10.41 C95.0890466,9.47759552 95.4559874,8.58046408 96.1172236,7.92299561 C96.7784598,7.26552714 97.6776733,6.90371882 98.61,6.92 C99.86,6.92 100.72,7.35 102.21,8.68 L102.21,1.92 L100.86,1.49 C99.8385236,1.16347409 98.7723944,0.99815659 97.7,1 L97.7,1 Z" id="Path" fill="#1F1410"></path><path d="M119.05,7.46 C119.05,3.84 116.45,1.46 112.53,1.46 L103.53,1.46 L103.53,19.46 L110,19.46 L110,13.62 L113,19.43 L120.56,19.43 L115.81,12.24 C117.904713,11.641062 119.269506,9.62757129 119.05,7.46 L119.05,7.46 Z M110.72,9.38 L110.1,9.38 L110.1,6.38 L110.67,6.38 C111.99,6.38 112.67,6.87 112.67,7.92 C112.67,8.97 112,9.38 110.72,9.38 L110.72,9.38 Z" id="Shape" fill="#1F1410"></path><path d="M129.48,1 C126.769571,0.946634422 124.143354,1.94266203 122.15,3.78 C120.465002,5.58844166 119.562835,7.98942823 119.64,10.46 C119.579867,12.7330529 120.347466,14.9505625 121.8,16.7 C123.76036,18.7632585 126.494261,19.9126571 129.34,19.87 C135.34,19.87 139.34,16.11 139.34,10.38 C139.32,4.81 135.32,1 129.48,1 Z M129.48,13.78 C128.62735,13.7528494 127.823286,13.3766423 127.256059,12.7394578 C126.688833,12.1022734 126.408249,11.2600599 126.48,10.41 C126.48,8.75314575 127.823146,7.41 129.48,7.41 C131.136854,7.41 132.48,8.75314575 132.48,10.41 C132.560786,11.2620825 132.283366,12.109356 131.714264,12.7486475 C131.145162,13.387939 130.335706,13.7615899 129.48,13.78 Z" id="Shape" fill="#1F1410"></path></g></g></svg>