<svg xmlns="http://www.w3.org/2000/svg" xmlns:xlink="http://www.w3.org/1999/xlink" width="200px" height="100px" viewBox="0 0 200 100"><title>Custom Preset Copy 7</title><desc>Created with Sketch.</desc><defs><polygon id="path-1" points="1.57165198e-05 0.0449948454 24.9584297 0.0449948454 24.9584297 28.9216068 1.57165198e-05 28.9216068"></polygon><polygon id="path-3" points="0.0493549465 0.0478886647 24.9742424 0.0478886647 24.9742424 28.9228809 0.0493549465 28.9228809"></polygon></defs><g id="Custom-Preset-Copy-7" stroke="none" stroke-width="1" fill="none" fill-rule="evenodd"><g id="Group-15" transform="translate(16.000000, 36.000000)"><g id="Group-3"><mask id="mask-2" fill="white"><use xlink:href="#path-1"></use></mask><g id="Clip-2"></g><path d="M8.28309091,19.0919706 C8.28309091,21.9806098 8.28521212,24.869249 8.28187879,27.7577387 C8.28081818,28.7400015 8.09248485,28.9184861 7.08415152,28.919383 C5.1659697,28.9210273 3.24763636,28.9216068 1.32945455,28.9192335 C0.230060606,28.9178881 0.0211212121,28.7057696 0.020969697,27.5931562 C0.0200606061,22.3389242 0.0852121212,17.0836459 0.00187878788,11.8306098 C-0.0773636364,6.83558402 2.37445455,3.47905825 6.73854545,1.35069742 C11.6105152,-1.02520979 17.773697,-0.0807664948 21.6671818,3.54856856 C23.8064242,5.54269227 24.9294545,8.01307371 24.9435455,10.9193521 C24.9706667,16.5220325 24.9529394,22.1251613 24.9503636,27.7279912 C24.9499091,28.6452284 24.6696061,28.9165428 23.7267273,28.9184861 C21.7832424,28.9228211 19.8397576,28.9223727 17.8962727,28.9187851 C16.8888485,28.9168418 16.6467273,28.6773675 16.6465758,27.6900222 C16.6453636,22.0374139 16.5977879,16.3840582 16.6702121,10.7321974 C16.6980909,8.54568711 15.1117273,7.33291907 13.5571818,6.99343969 C11.5274848,6.55036753 9.39233333,7.40586753 8.59187879,8.98248093 C8.33445455,9.48938299 8.28021212,10.0222954 8.28112121,10.5755376 C8.28551515,13.4143985 8.28309091,16.2531098 8.28309091,19.0919706" id="Fill-1" fill="#1D1C1B" mask="url(#mask-2)"></path></g><g id="Group-6" transform="translate(144.000000, 0.000000)"><mask id="mask-4" fill="white"><use xlink:href="#path-3"></use></mask><g id="Clip-5"></g><path d="M0.0679848485,18.8938139 C0.0679848485,16.5270253 0.126924242,14.1584428 0.0557121212,11.7937469 C-0.0939848485,6.8135201 2.40783333,3.48435 6.74071212,1.36660258 C12.1226818,-1.26372732 18.9958636,0.160860309 22.6585909,4.57125206 C24.1460152,6.36237577 24.9510152,8.43049433 24.9605606,10.7506438 C24.9840455,16.4309067 24.9707121,22.1113191 24.9684394,27.7917314 C24.9681364,28.6257057 24.6813182,28.9143603 23.839803,28.91735 C21.8196515,28.9248242 19.7995,28.9245253 17.7793485,28.917649 C16.8884394,28.9145098 16.6369242,28.6488758 16.6367727,27.7409067 C16.6354091,22.0854582 16.6367727,16.4300098 16.6357121,10.7745613 C16.6352576,8.78043763 15.6237424,7.51505103 13.6484394,7.02937577 C11.6393485,6.53532938 9.47404545,7.33701495 8.61965152,8.88074175 C8.29116667,9.47404588 8.26207576,10.1121954 8.2625303,10.7642469 C8.26571212,16.369917 8.26465152,21.9754376 8.26404545,27.5811077 C8.26389394,28.7834119 8.12813636,28.9194428 6.93874242,28.9197418 C5.12056061,28.9201902 3.30237879,28.9203397 1.48419697,28.9197418 C0.206924242,28.9192933 0.0684393939,28.7793758 0.0681363636,27.4890253 C0.0676818182,24.6240046 0.0679848485,21.7588345 0.0679848485,18.8938139" id="Fill-4" fill="#1D1C1B" mask="url(#mask-4)"></path></g><path d="M102.769049,18.018861 C101.758197,18.9575074 100.747196,19.8967574 99.7635589,20.8637699 C99.4229998,21.1987313 99.1989676,21.2934862 98.785335,20.9339308 C97.6884793,19.9804977 96.5281728,19.1009976 95.4183864,18.1620495 C93.5777137,16.6049314 92.9743302,14.2043745 93.8261037,11.9553046 C94.6529179,9.77156731 96.7137136,8.36156074 99.0653001,8.37042096 C101.381102,8.37921411 103.355141,9.73852382 104.177445,11.8907265 C105.011476,14.0735585 104.460718,16.4481634 102.769049,18.018861 M108.185216,28.5109998 C107.617617,27.9815495 107.006114,27.4964589 106.390552,27.0226847 C106.034807,26.7489819 105.988196,26.6041338 106.354015,26.245031 C107.517179,25.1034462 108.65869,23.9344006 109.739157,22.7142055 C112.480018,19.6189808 113.408624,15.9244467 112.803737,11.9212049 C111.639371,4.21407431 104.768799,-0.964248391 97.1102055,0.150931768 C91.239509,1.00583784 87.3222531,4.4284798 85.5790118,10.1249365 C83.9515455,15.44343 85.8416858,21.1911872 90.1587415,24.6921377 C94.1122335,27.8982618 98.0679808,31.1015191 102.021172,34.307945 C102.841371,34.9730395 103.635858,35.6556366 104.087832,36.656598 C105.111313,38.923623 104.553037,41.624589 102.700787,43.2651456 C100.913491,44.8482156 98.1581951,45.087366 96.1250652,43.8357871 C94.0131481,42.5356238 92.980946,39.9618525 93.6592072,37.5694433 C93.7907698,37.1053256 93.7447605,36.8067271 93.3487196,36.5431335 C91.4301619,35.2660554 89.5177688,33.9791697 87.5986096,32.7029969 C87.0810801,32.3589824 86.6948125,32.4253712 86.4083821,33.048671 C85.6448682,34.7106531 85.1703409,36.4476243 85.0816302,38.2704482 C84.6872433,46.372441 90.9383435,52.9665039 99.020644,53 C99.4956223,52.9710304 99.9706007,52.9423625 100.445429,52.9120349 C100.595335,52.9025292 100.746895,52.8995116 100.894546,52.8746158 C106.689913,51.8976449 110.678288,48.6568176 112.347253,43.0086436 C114.004941,37.3989449 112.465133,32.5041324 108.185216,28.5109998" id="Fill-7" fill="#99BB47"></path><path d="M44.6821029,11.9510138 C44.6887662,12.2816532 44.4092098,12.1844242 44.2356607,12.1856415 C42.9775056,12.1946188 38.1461472,12.4476576 36.9891533,12.4716985 C36.615099,12.4793065 36.4270118,12.4144871 36.4677489,11.9892055 C36.5013683,11.6383291 36.4739578,11.2813664 36.474715,10.9271425 C36.4791068,8.91683079 37.4124253,7.62333548 39.1888047,7.1644269 C41.238683,6.634917 43.4098639,7.41411821 44.303354,8.98362816 C44.8391451,9.9247255 44.6618101,10.9493576 44.6821029,11.9510138 M52.98308,10.9555961 C52.9426458,8.45929163 52.1047339,6.24813132 50.4738873,4.36000248 C46.9449044,0.274559713 40.7047091,-1.15709507 35.5206494,0.998223244 C31.7707169,2.55723429 29.1088737,5.16993961 28.2521833,9.29220462 C27.8373919,11.2880613 28.0687907,13.334891 28.0294165,15.1166614 C28.0294165,16.3985927 28.0547068,17.4385927 28.0247219,18.4770712 C27.9314355,21.7067773 29.1845932,24.3654343 31.5311404,26.4778441 C35.3124207,29.8816189 39.8080388,30.6302364 44.6018402,29.5255691 C48.1332462,28.7118281 50.851879,26.6870613 52.2926697,23.1916874 C52.5307318,22.6143998 52.5213425,22.2288314 51.8454703,22.0296566 C49.8913015,21.4538906 47.943796,20.8546924 45.9876585,20.2854692 C45.5256181,20.1509615 45.0723612,20.1944787 44.8329361,20.7182066 C43.9002234,22.7584935 42.2057724,23.2072075 40.1833046,22.9667978 C37.8779488,22.6926091 36.5437712,21.1603778 36.4881931,18.8308386 C36.4730492,18.2016652 36.6861239,18.1070229 37.2440251,18.0989585 C42.1624609,18.028205 47.0804423,17.9277807 51.9984237,17.8328341 C52.8935796,17.8156403 52.988229,17.717194 52.9897434,16.811093 C52.993075,14.85921 53.0145794,12.9070226 52.98308,10.9555961" id="Fill-9" fill="#1D1C1B"></path><path d="M124.438079,11.7471134 C124.482066,11.476005 124.444905,11.1919796 124.445511,10.9137288 C124.44991,8.94074709 125.423995,7.60663275 127.189542,7.1548362 C129.254353,6.6264485 131.425795,7.40406134 132.310237,8.97919463 C132.823216,9.89266556 132.692166,10.890022 132.711884,11.8692945 C132.719316,12.2388771 132.44235,12.1706441 132.231667,12.1717079 C130.995784,12.1777866 126.303583,12.4086238 125.195717,12.4539098 C124.639054,12.4765528 124.333572,12.3916035 124.438079,11.7471134 M125.277017,18.0716572 C130.202804,18.0073754 135.127984,17.891121 140.053771,17.8231919 C140.793511,17.8130102 141.012081,17.5326319 140.999491,16.8252276 C140.96506,14.9019389 140.994941,12.9775865 140.985689,11.053842 C140.969914,7.75601587 139.626035,5.08003689 137.104821,3.00964462 C132.852642,-0.482394731 126.692337,-0.985707944 121.916713,1.76230318 C118.803646,3.5535329 116.692422,6.11660073 116.151381,9.76273416 C115.890796,11.5184037 116.051728,13.3002115 116.024578,14.8323383 C116.024578,16.1588543 116.055824,17.2483025 116.018965,18.3356231 C115.882909,22.3507313 117.696539,25.3772972 120.908501,27.5397812 C124.921481,30.2415944 129.34976,30.6398988 133.868439,29.1174979 C136.871842,28.1057046 139.160683,26.1266442 140.363045,23.0646702 C140.577975,22.5171347 140.478776,22.1881271 139.917563,22.0199002 C137.939057,21.4273826 135.961917,20.8298501 133.978861,20.2529851 C133.504257,20.1149995 133.062415,20.2042038 132.827767,20.7111642 C131.954246,22.5987408 130.406054,23.1170987 128.462587,22.9651321 C126.033897,22.7751739 124.596584,21.2945638 124.491318,18.858692 C124.463258,18.2107066 124.659834,18.0797115 125.277017,18.0716572" id="Fill-11" fill="#1D1C1B"></path><path d="M68.3067547,22.2435661 C66.0404286,22.1623587 64.2515195,20.7565851 64.4120763,18.2971826 C64.4951648,17.0231126 64.4266586,15.7397406 64.4268105,14.4606505 C64.4269624,13.0584205 64.4193674,11.6561905 64.4290889,10.2541081 C64.4395699,8.74512732 65.2230626,7.61383466 66.6739973,7.07402704 C68.0094892,6.57703786 69.3568292,6.60523897 70.6455363,7.22079093 C71.9523194,7.84490657 72.6911539,8.84464327 72.6815843,10.319517 C72.6644197,12.9515221 72.5722173,15.5886949 72.7048247,18.2144987 C72.8530777,21.15081 70.3660431,22.3172433 68.3067547,22.2435661 M80.9974213,17.6098728 C80.9524593,15.2744962 80.9989403,12.937643 80.9852694,10.6015281 C80.9717504,8.3070504 80.1905363,6.26844981 78.7092218,4.49325643 C74.9792015,0.0228638547 67.924426,-1.32621224 62.4354207,1.42095968 C59.1222099,3.07906678 56.8049978,5.56548917 56.1553278,9.24285475 C55.8504675,10.9679948 56.0989734,12.7287185 56.039733,14.1148547 C56.039733,15.7756195 56.0473279,17.0790718 56.0380621,18.3822289 C56.0245432,20.2598912 56.6108715,21.9495953 57.6753764,23.5025758 C61.2023084,28.6471373 68.5276151,30.5050145 74.4577338,27.6820983 C78.737323,25.6448265 81.0890161,22.3736455 80.9974213,17.6098728" id="Fill-13" fill="#1D1C1B"></path></g></g></svg>