<svg xmlns="http://www.w3.org/2000/svg" xmlns:xlink="http://www.w3.org/1999/xlink" width="200px" height="100px" viewBox="0 0 200 100"><title>Custom Preset Copy 6</title><desc>Created with Sketch.</desc><defs><polygon id="path-1" points="0 0 5.64836569 0 5.64836569 6.26666667 0 6.26666667"></polygon></defs><g id="Custom-Preset-Copy-6" stroke="none" stroke-width="1" fill="none" fill-rule="evenodd"><g id="Group" transform="translate(44.000000, 19.000000)"><g id="198004"><path d="M37.8015405,46.192188 L43.2945961,30.3337676 L45.2972731,30.3337676 L47.3612558,43.7932297 L51.861147,30.3337676 L53.7412107,30.3337676 L48.2604167,46.192188 L45.8163344,46.2370657 C45.2768379,41.7532991 44.4962025,37.2368926 44.0507094,32.7572046 C43.7850475,33.7894102 43.3967743,35.0541667 42.8777129,36.5555556 L39.5508172,46.192188 L37.8015405,46.192188 Z M51.4769606,46.192188 L56.9659293,30.3337676 L58.7479027,30.3337676 L53.2671077,46.192188 L51.4769606,46.192188 Z M56.4386933,46.4002602 L62.1483657,30.3337676 L66.3580729,30.3337676 C67.3675856,30.3337676 68.1236979,30.423524 68.6264109,30.5867185 C69.3457396,30.8151907 69.9628911,31.1946186 70.3675128,31.798438 C71.495551,33.4630214 71.3075451,35.8211806 70.678132,38.0895833 C69.4315683,42.5774306 66.7054757,46.4002602 61.4658206,46.4002602 L56.4386933,46.4002602 Z M59.0217373,44.7152778 L61.2287685,44.7152778 C62.2301076,44.7152778 63.1292685,44.6092019 63.9425996,44.3970491 C66.4152928,43.7605908 67.7149884,40.2763889 68.491537,38.1752602 C69.0882523,36.551476 70.1549838,33.3079861 67.8989074,32.4185769 C67.4738496,32.2513018 66.7872176,32.165625 65.8349248,32.165625 L63.509368,32.165625 L59.0217373,44.7152778 Z M70.5023877,46.5226565 L75.9913554,30.3337676 L84.8153935,30.3337676 L84.1900683,32.1778648 L77.160265,32.1778648 L75.4436852,37.2124129 L82.273221,37.2124129 L81.6478947,39.0605908 L74.8183599,39.0605908 L72.91786,44.6907991 L80.5035081,44.6907991 L79.8822697,46.5226565 L70.5023877,46.5226565 Z M82.4857499,46.192188 L87.9788055,30.4480037 L93.5985602,30.4480037 C95.5154085,30.4480037 96.4472661,31.4924482 96.6597951,32.8306426 C96.8886724,34.2830732 96.2429109,36.0006944 95.2007014,37.2695315 C94.4241539,38.2201389 93.4963831,38.5791667 92.3642581,38.4649306 C93.2307222,38.6118056 93.8601343,39.215625 93.8478738,40.3498269 L93.4309896,46.392101 L91.6490162,46.3023435 L92.0618125,41.0882815 C92.102684,40.5456602 91.9800706,40.0846352 91.8206747,39.7990454 C91.4037905,39.0442714 89.8057361,39.1503472 88.8003113,39.1503472 L86.7158924,39.1503472 L84.275897,46.192188 L82.4857499,46.192188 Z M87.3085219,37.5632815 L89.7648657,37.5632815 C90.9092523,37.5632815 91.6571909,37.5469621 92.0086806,37.5102436 C94.7184247,37.2083333 96.267434,32.0799482 93.5331667,32.0799482 L89.1640625,32.0799482 L87.3085219,37.5632815 Z M94.7552083,46.192188 L105.030165,30.4480037 L107.143193,30.4480037 L106.673177,46.192188 L104.936162,46.192188 L105.058774,41.6268232 L99.639287,41.6268232 L96.7211007,46.192188 L94.7552083,46.192188 Z M100.681496,39.9948787 L105.115994,39.9948787 L105.267216,36.0129343 C105.336697,34.4340278 105.434787,33.120313 105.561487,32.0677083 C105.103733,32.973438 104.478407,34.054601 103.681424,35.2989583 L100.681496,39.9948787 Z" id="Shape" fill="#1B1918"></path><path d="M0.322880759,39.6154519 L11.7503981,6.49921849 L23.3536608,6.40946207 L11.3907338,41.4024306 C9.39623145,47.9914065 -0.956380208,46.9143232 0.322880759,39.6154519 Z M25.0457176,40.1050352 L37.0699513,5.27118056 C38.1121597,2.24392413 41.2755717,-0.0203993578 44.5411608,1.04444444 C46.9361979,1.82369818 48.6159942,4.73671849 47.7904005,7.16423611 L36.5590637,40.1499129 L25.0457176,40.1050352 Z M24.0648148,8.371875 L18.6208044,23.1899306 L23.8890695,38.901476 L28.9734155,23.279688 L24.0648148,8.371875 Z" id="Shape" fill="#FAD001"></path><g id="Clipped" transform="translate(106.722222, 25.066667)"><mask id="mask-2" fill="white"><use xlink:href="#path-1"></use></mask><g id="Path"></g><path d="M3.22471762,0.465104689 L3.2288055,0.465104689 C3.91543744,0.465104689 4.5407627,0.746614844 4.99034262,1.19539904 C5.43992358,1.64418429 5.71784604,2.26432318 5.71784604,2.94973984 L5.71784604,2.95789904 C5.71784604,3.64331571 5.43992358,4.26753524 4.98625579,4.71631944 C4.53667587,5.16510469 3.91543744,5.44253524 3.2288055,5.44253524 L3.22471762,5.44253524 C2.53399884,5.44253524 1.91276042,5.16510469 1.45909262,4.71223984 C1.0095127,4.2634546 0.73159025,3.64331571 0.73159025,2.95789904 L0.73159025,2.95381944 C0.73159025,2.26432318 1.0095127,1.64418429 1.4631805,1.19131944 C1.91276042,0.742535244 2.53399884,0.465104689 3.22063079,0.465104689 L3.22471762,0.465104689 Z M3.2288055,0.934287933 L3.22063079,0.934287933 C2.66478588,0.934287933 2.16207294,1.15868056 1.79423493,1.52586858 C1.42639586,1.88897596 1.20160643,2.39487873 1.20160643,2.95381944 L1.20160643,2.95789904 C1.20160643,3.51276016 1.42639586,4.01866293 1.79423493,4.38177136 C2.16207294,4.74895833 2.66478588,4.97743056 3.22471762,4.97743056 L3.22471762,4.97335096 L3.2288055,4.97335096 L3.2288055,4.97743056 C3.78465041,4.97335096 4.29145018,4.74895833 4.65928819,4.38177136 C5.02303938,4.01866293 5.25191669,3.51276016 5.25191669,2.95789904 L5.25191669,2.94973984 C5.25191669,2.39487873 5.02303938,1.88897596 4.65928819,1.52586858 C4.29145018,1.15868056 3.78465041,0.934287933 3.2288055,0.934287933 Z" id="Shape" fill="#1B1918" mask="url(#mask-2)"></path></g><path d="M108.982385,29.2689241 L108.982385,26.7394102 L110.057292,26.7394102 C110.32704,26.7394102 110.523221,26.7638889 110.645833,26.8087676 C110.768447,26.8536464 110.870624,26.9352436 110.944191,27.0494797 C111.017759,27.1677954 111.054543,27.298351 111.054543,27.4493056 C111.054543,27.6410593 110.997324,27.7960935 110.886972,27.9184898 C110.772534,28.0449658 110.604963,28.1224824 110.384259,28.1551213 C110.494611,28.2163194 110.584527,28.2897575 110.658095,28.367274 C110.731662,28.4447917 110.825666,28.5794268 110.948279,28.7752602 L111.258898,29.2689241 L110.645833,29.2689241 L110.277995,28.7181426 C110.147208,28.5223093 110.057292,28.3999129 110.008247,28.346875 C109.959201,28.2979167 109.906069,28.2611982 109.852937,28.2407991 C109.799804,28.2244797 109.713976,28.2122398 109.59545,28.2122398 L109.493273,28.2122398 L109.493273,29.2689241 L108.982385,29.2689241 Z M109.493273,27.8083333 L109.869286,27.8083333 C110.114512,27.8083333 110.269821,27.8001741 110.331127,27.779774 C110.392434,27.759375 110.441479,27.7226565 110.474176,27.6736982 C110.506873,27.6206602 110.527308,27.5594621 110.527308,27.4819444 C110.527308,27.3962676 110.502785,27.3309898 110.457827,27.2779519 C110.412869,27.2249129 110.347476,27.192274 110.265734,27.1759546 C110.224862,27.171875 110.098163,27.1677954 109.889721,27.1677954 L109.493273,27.1677954 L109.493273,27.8083333 Z" id="Shape" fill="#1B1918"></path></g><path d="M37.1542969,59.1464844 C37.7988281,59.1464844 38.3710938,59.0390625 38.8710938,58.8242188 C39.3710938,58.609375 39.7626953,58.3056641 40.0458984,57.9130859 C40.3291016,57.5205078 40.4707031,57.0917969 40.4707031,56.6269531 C40.4707031,56.2519531 40.3867188,55.9169922 40.21875,55.6220703 C40.0507812,55.3271484 39.8105469,55.0761719 39.4980469,54.8691406 C39.2636719,54.7128906 38.8378906,54.4980469 38.2207031,54.2246094 C37.4589844,53.8886719 36.9765625,53.6640625 36.7734375,53.5507812 C36.4882812,53.390625 36.2910156,53.2275391 36.1816406,53.0615234 C36.0722656,52.8955078 36.0175781,52.7070312 36.0175781,52.4960938 C36.0175781,52.140625 36.1503906,51.8554688 36.4160156,51.640625 C36.7636719,51.359375 37.25,51.21875 37.875,51.21875 C38.2304688,51.21875 38.5517578,51.2685547 38.8388672,51.3681641 C39.1259766,51.4677734 39.3515625,51.5996094 39.515625,51.7636719 C39.6796875,51.9277344 39.8007812,52.1289062 39.8789062,52.3671875 C39.921875,52.5039062 39.9433594,52.6933594 39.9433594,52.9355469 L39.9433594,52.9355469 L41.0507812,52.8476562 C41.0546875,52.765625 41.0566406,52.7070312 41.0566406,52.671875 C41.0566406,52.3164062 40.9482422,51.9433594 40.7314453,51.5527344 C40.5146484,51.1621094 40.1660156,50.8496094 39.6855469,50.6152344 C39.2050781,50.3808594 38.6152344,50.2636719 37.9160156,50.2636719 C37.3300781,50.2636719 36.8037109,50.3574219 36.3369141,50.5449219 C35.8701172,50.7324219 35.515625,51.0039062 35.2734375,51.359375 C35.03125,51.7148438 34.9101562,52.1132812 34.9101562,52.5546875 C34.9101562,52.9375 35.0019531,53.2783203 35.1855469,53.5771484 C35.3691406,53.8759766 35.6542969,54.1523438 36.0410156,54.40625 C36.2871094,54.5625 36.7480469,54.7871094 37.4238281,55.0800781 C38.2949219,55.4550781 38.828125,55.7519531 39.0234375,55.9707031 C39.2148438,56.1933594 39.3105469,56.4394531 39.3105469,56.7089844 C39.3105469,57.0957031 39.1298828,57.4394531 38.7685547,57.7402344 C38.4072266,58.0410156 37.8828125,58.1914062 37.1953125,58.1914062 C36.7109375,58.1914062 36.2929688,58.1162109 35.9414062,57.9658203 C35.5898438,57.8154297 35.3378906,57.6025391 35.1855469,57.3271484 C35.0332031,57.0517578 34.9570312,56.7480469 34.9570312,56.4160156 L34.9570312,56.4160156 L34.96875,56.1171875 L33.84375,56.2226562 C33.8476562,57.3242188 34.1572266,58.0869141 34.7724609,58.5107422 C35.3876953,58.9345703 36.1816406,59.1464844 37.1542969,59.1464844 Z M48.0996094,59 L48.3046875,58.0273438 L42.8964844,58.0273438 L43.5175781,55.0390625 L48.4394531,55.0390625 L48.6445312,54.0605469 L43.7226562,54.0605469 L44.2851562,51.3886719 L49.3359375,51.3886719 L49.5410156,50.4101562 L43.3417969,50.4101562 L41.5429688,59 L48.0996094,59 Z M50.6542969,59 L51.796875,53.5214844 C51.890625,53.0800781 51.9863281,52.4824219 52.0839844,51.7285156 C52.1191406,52.4003906 52.1757812,52.9882812 52.2539062,53.4921875 L52.2539062,53.4921875 L53.1152344,59 L54.2226562,59 L57.421875,53.3808594 C57.7851562,52.7363281 58.0898438,52.1347656 58.3359375,51.5761719 C57.9492188,52.7753906 57.6523438,53.8574219 57.4453125,54.8222656 L57.4453125,54.8222656 L56.5488281,59 L57.6796875,59 L59.4726562,50.4101562 L58.0371094,50.4101562 L55.0253906,55.7304688 C54.4667969,56.71875 54.0683594,57.5019531 53.8300781,58.0800781 C53.7949219,57.4082031 53.7207031,56.7070312 53.6074219,55.9765625 L53.6074219,55.9765625 L52.7402344,50.4101562 L51.328125,50.4101562 L49.5351562,59 L50.6542969,59 Z M60.8378906,59 L62.6308594,50.4101562 L61.4882812,50.4101562 L59.6894531,59 L60.8378906,59 Z M68.4257812,59 L68.6308594,58.0273438 L64.171875,58.0273438 L65.7597656,50.4101562 L64.6113281,50.4101562 L62.8183594,59 L68.4257812,59 Z M75.0996094,59 L75.3046875,58.0273438 L70.8457031,58.0273438 L72.4335938,50.4101562 L71.2851562,50.4101562 L69.4921875,59 L75.0996094,59 Z M76.7050781,59 L78.0820312,56.5273438 L81.5566406,56.5273438 L81.9726562,59 L83.0859375,59 L81.6679688,50.4101562 L80.3144531,50.4101562 L75.4453125,59 L76.7050781,59 Z M81.4160156,55.6425781 L78.5742188,55.6425781 L79.9863281,53.0996094 C80.3613281,52.4238281 80.6464844,51.8398438 80.8417969,51.3476562 C80.8730469,51.9179688 80.953125,52.6308594 81.0820312,53.4863281 L81.0820312,53.4863281 L81.4160156,55.6425781 Z M87.84375,59.1464844 C88.4882812,59.1464844 89.0605469,59.0390625 89.5605469,58.8242188 C90.0605469,58.609375 90.4521484,58.3056641 90.7353516,57.9130859 C91.0185547,57.5205078 91.1601562,57.0917969 91.1601562,56.6269531 C91.1601562,56.2519531 91.0761719,55.9169922 90.9082031,55.6220703 C90.7402344,55.3271484 90.5,55.0761719 90.1875,54.8691406 C89.953125,54.7128906 89.5273438,54.4980469 88.9101562,54.2246094 C88.1484375,53.8886719 87.6660156,53.6640625 87.4628906,53.5507812 C87.1777344,53.390625 86.9804688,53.2275391 86.8710938,53.0615234 C86.7617188,52.8955078 86.7070312,52.7070312 86.7070312,52.4960938 C86.7070312,52.140625 86.8398438,51.8554688 87.1054688,51.640625 C87.453125,51.359375 87.9394531,51.21875 88.5644531,51.21875 C88.9199219,51.21875 89.2412109,51.2685547 89.5283203,51.3681641 C89.8154297,51.4677734 90.0410156,51.5996094 90.2050781,51.7636719 C90.3691406,51.9277344 90.4902344,52.1289062 90.5683594,52.3671875 C90.6113281,52.5039062 90.6328125,52.6933594 90.6328125,52.9355469 L90.6328125,52.9355469 L91.7402344,52.8476562 C91.7441406,52.765625 91.7460938,52.7070312 91.7460938,52.671875 C91.7460938,52.3164062 91.6376953,51.9433594 91.4208984,51.5527344 C91.2041016,51.1621094 90.8554688,50.8496094 90.375,50.6152344 C89.8945312,50.3808594 89.3046875,50.2636719 88.6054688,50.2636719 C88.0195312,50.2636719 87.4931641,50.3574219 87.0263672,50.5449219 C86.5595703,50.7324219 86.2050781,51.0039062 85.9628906,51.359375 C85.7207031,51.7148438 85.5996094,52.1132812 85.5996094,52.5546875 C85.5996094,52.9375 85.6914062,53.2783203 85.875,53.5771484 C86.0585938,53.8759766 86.34375,54.1523438 86.7304688,54.40625 C86.9765625,54.5625 87.4375,54.7871094 88.1132812,55.0800781 C88.984375,55.4550781 89.5175781,55.7519531 89.7128906,55.9707031 C89.9042969,56.1933594 90,56.4394531 90,56.7089844 C90,57.0957031 89.8193359,57.4394531 89.4580078,57.7402344 C89.0966797,58.0410156 88.5722656,58.1914062 87.8847656,58.1914062 C87.4003906,58.1914062 86.9824219,58.1162109 86.6308594,57.9658203 C86.2792969,57.8154297 86.0273438,57.6025391 85.875,57.3271484 C85.7226562,57.0517578 85.6464844,56.7480469 85.6464844,56.4160156 L85.6464844,56.4160156 L85.6582031,56.1171875 L84.5332031,56.2226562 C84.5371094,57.3242188 84.8466797,58.0869141 85.4619141,58.5107422 C86.0771484,58.9345703 86.8710938,59.1464844 87.84375,59.1464844 Z" id="SEMILLAS" fill="#141414" fill-rule="nonzero"></path></g></g></svg>