<svg xmlns="http://www.w3.org/2000/svg" xmlns:xlink="http://www.w3.org/1999/xlink" width="200px" height="100px" viewBox="0 0 200 100"><title>Custom Preset Copy 5</title><desc>Created with Sketch.</desc><g id="Custom-Preset-Copy-5" stroke="none" stroke-width="1" fill="none" fill-rule="evenodd"><g id="NK_logo-Copy" transform="translate(45.000000, 21.000000)" fill-rule="nonzero"><path d="M5.00825276,41 C3.98468568,38.4531994 6.19216077,34.4205529 13.3838248,33.9850104 C13.3838248,33.9850104 14.8697135,33.8246632 17.3926383,33.8138962 C21.8236214,33.7818267 23.7049969,34.2389032 33.3180283,35.0351981 L78.9535349,39.7947907 C78.9535349,39.7947907 93.409162,41.0054414 98.8717287,40.0619975 C98.8717287,40.0619975 106.464286,39.3431556 108.984426,34.4499595 C109.204502,33.9532883 109.383277,33.4393667 109.518896,32.9134045 C109.882363,31.7695555 110,30.1019441 110,28.9528853 C110,12.9638911 85.3676365,0 54.9866194,0 C24.6057182,0 0,12.9557869 0,28.9394555 C0,33.2527387 1.79324351,37.3147918 5.00825276,40.9946744" id="Path" fill="#098A67"></path><path d="M107.99733,37.1577031 C101.146849,49.2136729 80.1890368,58 55.3219035,58 C34.807952,58 16.9143365,52.0059294 7.44614285,43.1192113 C5.40062097,41.512838 4.21877111,36.3355315 13.2297321,35.1796245 C13.2297321,35.1796245 16.0988114,34.4170527 30.7650319,36.0343585 L79.6541749,41.2278875 C79.6541749,41.2278875 95.884588,42.4326968 102.202993,40.5143356 C106.382298,39.2444014 107.015938,38.1426868 108,37.1631106" id="Path" fill="#2F4E81"></path><polygon id="Path" fill="#FFFFFF" points="28 9 38.4472611 9 63 32 46.8628 32 38.4417929 23.4572878 38.4417929 32 28 32"></polygon><polygon id="Path" fill="#FFFFFF" points="51 9 51 15.8834956 67.8562194 32 84 32 69.6362891 21.6839053 83.8737653 9 69.6810305 9 61.2068669 18.2302947 61.2068669 9"></polygon><path d="M109,34.6019877 C106.48501,39.2902157 98.9079711,39.9672676 98.9079711,39.9672676 C93.4565689,40.8665724 79.0304866,39.7118097 79.0304866,39.7118097 L33.4882509,35.1691308 C23.8868783,34.4027571 22.0199994,33.9708695 17.5954096,34.0015289 C15.064327,34.0015289 13.5947894,34.1651193 13.5947894,34.1651193 C6.41514949,34.5815113 4.21483734,38.4368446 5.23631243,40.8716638 L7.40194983,43 C5.36166249,41.4873971 4.18283701,36.6126672 13.170704,35.5243147 C13.170704,35.5243147 16.0324412,34.8064205 30.6611306,36.3316413 L79.4252808,41.2192105 C79.4252808,41.2192105 95.6141599,42.3534967 101.91628,40.54725 C106.08489,39.3515344 106.717024,38.3142071 107.698453,37.3919908 L109,34.6019877 Z" id="Path" fill="#FFFFFF"></path></g></g></svg>