<svg xmlns="http://www.w3.org/2000/svg" xmlns:xlink="http://www.w3.org/1999/xlink" width="200px" height="100px" viewBox="0 0 200 100"><title>Custom Preset Copy 4</title><desc>Created with Sketch.</desc><defs><polygon id="path-1" points="4.8546439e-05 0.147678288 52.8790388 0.147678288 52.8790388 34 4.8546439e-05 34"></polygon><polygon id="path-3" points="0.0551142857 0.202114286 5.67771429 0.202114286 5.67771429 5.74054286 0.0551142857 5.74054286"></polygon></defs><g id="Custom-Preset-Copy-4" stroke="none" stroke-width="1" fill="none" fill-rule="evenodd"><g id="Group-23" transform="translate(7.000000, 33.000000)"><g id="Group-3"><mask id="mask-2" fill="white"><use xlink:href="#path-1"></use></mask><g id="Clip-2"></g><path d="M8.543,3.67982 C9.3645,1.82876286 10.8495,1.03704857 10.8495,1.03704857 C12.5405,0.0583342857 14.619,0.152077143 14.619,0.152077143 L37.612,0.152077143 C41.025,0.0772771429 42.1125,0.981191429 42.1125,0.981191429 C43.999,2.16536286 44.798,4.51476286 44.798,4.51476286 L51.878,22.1602771 C54.1975,27.0562771 51.7595,30.1570771 51.7595,30.1570771 C50.2325,32.5195914 48.4325,33.2331057 48.4325,33.2331057 C46.681,34.1054486 44.0635,33.9777057 44.0635,33.9777057 L10.128,33.9777057 C6.926,34.09622 5.72,33.7037629 5.72,33.7037629 C2.9255,33.0271629 0.898,30.0385629 0.898,30.0385629 C-1.094,26.4175629 0.85,22.6557057 0.85,22.6557057 L8.543,3.67982 Z M2.194,24.2983914 C2.194,24.2983914 1.023,26.8566486 2.7975,29.6053057 C2.7975,29.6053057 4.4045,32.3544486 8.4145,32.34182 L43.89,32.34182 C43.89,32.34182 47.6335,32.5161914 49.517,30.2445057 C49.517,30.2445057 51.804,27.8445914 50.932,24.64082 C50.932,24.64082 50.7745,23.8277343 50.075,22.2477057 L43.4185,5.61490571 C43.4185,5.61490571 42.4205,3.24364857 41.423,2.60784857 C41.423,2.60784857 40.4025,1.67916286 37.666,1.76950571 L15.0715,1.76950571 C15.0715,1.76950571 13.31,1.66653429 12.0365,2.32419143 C12.0365,2.32419143 10.718,2.83856286 9.974,4.77996286 L2.194,24.2983914 Z" id="Fill-1" fill="#267427" mask="url(#mask-2)"></path></g><path d="M27.536981,9.30146829 C27.6066548,11.3861758 26.7091777,13.1642648 26.7091777,13.1642648 L26.8002896,13.222905 C28.4768471,9.66324828 31.7003589,9.85208948 31.7003589,9.85208948 C33.4197926,9.88588212 34.1443032,10.5667043 34.1443032,10.5667043 L36.6130962,13.1428959 C32.8950462,12.2304947 30.2659546,14.1850012 30.2659546,14.1850012 C26.9761796,16.4302237 27.1944585,19.5699572 27.1944585,19.5699572 C30.9514868,16.4550712 34.3810969,16.6533545 34.3810969,16.6533545 C37.6591784,16.6468941 39.2816534,18.1158799 39.2816534,18.1158799 C42.3229413,20.3278067 41.9891889,23.1266321 41.9891889,23.1266321 C42.0803009,26.5814322 39.5208832,28.1955276 39.5208832,28.1955276 C37.0769389,30.0824487 34.4147157,29.9184551 34.4147157,29.9184551 C31.5093649,29.9522477 29.3655541,28.5145698 29.3655541,28.5145698 C26.9669222,27.1906936 25.5661367,25.5512538 25.5661367,25.5512538 C22.9614067,28.0379943 21.3389317,28.7526091 21.3389317,28.7526091 C18.8798833,30.0824487 16.3959862,29.9989611 16.3959862,29.9989611 C13.4458102,30.0451775 11.4959169,28.3381524 11.4959169,28.3381524 C8.93357576,26.3707252 9.00016253,23.3741135 9.00016253,23.3741135 C9.02761109,20.2254349 11.3258737,18.4900837 11.3258737,18.4900837 C13.5364349,16.5758302 16.5962376,16.7025526 16.5962376,16.7025526 C20.54426,16.6563362 23.8374457,19.6191553 23.8374457,19.6191553 C23.7677718,15.7563588 20.5656981,14.0239892 20.5656981,14.0239892 C18.4428382,12.7716739 16.3657779,12.9232438 16.3657779,12.9232438 C15.3440572,12.91082 14.4616842,13.1086063 14.4616842,13.1086063 L16.9299899,10.64075 C18.0213845,9.85507119 19.4436081,9.91371135 19.4436081,9.91371135 C23.2098938,10.0314886 24.2652334,13.2512311 24.2652334,13.2512311 L24.3441646,13.192094 C23.4252493,11.1073865 23.564597,9.40980351 23.564597,9.40980351 C23.5192847,6.13142084 25.5841642,4 25.5841642,4 C27.6763287,6.57370681 27.536981,9.30146829 27.536981,9.30146829 M22.8673713,23.3119947 C22.8673713,23.3119947 19.8255962,20.2100295 16.7843083,20.2438221 C16.7843083,20.2438221 13.318156,20.1633161 13.0209459,23.2747234 C13.0209459,23.2747234 12.9181404,26.2594083 16.6357032,26.3896093 C16.6357032,26.392591 18.9977929,26.8135081 22.8673713,23.3119947 M34.2963189,26.3091033 C38.0626046,26.26239 37.9685693,23.2409308 37.9685693,23.2409308 C37.8623532,20.1200814 34.3689161,20.1976057 34.3689161,20.1976057 C31.6004768,20.0490175 28.1557627,23.1947144 28.1557627,23.1947144 C31.7856241,26.6862888 34.2963189,26.3091033 34.2963189,26.3091033" id="Fill-4" fill="#267427"></path><path d="M145,5.00554827 L145,30 L158,30 L158,25.5992132 L149.634276,25.588621 L149.639388,21.1046101 C149.639388,21.1046101 149.583664,19.8053062 150.861221,19.8053062 L157.002595,19.8108544 L156.991348,15.28851 L149.650635,15.2829618 L149.650635,10.462524 C149.650635,10.462524 149.650635,9.45626955 150.838727,9.50015132 L157.9499,9.51124786 L157.9499,5 L145,5.00554827 Z" id="Fill-6" fill="#000000"></path><path d="M170.78706,15.4761185 C170.78706,15.4761185 170.577084,16.1109432 169.188019,16.2711608 L165.719392,16.2711608 L165.719392,9.38482467 L169.26575,9.39036679 C169.26575,9.39036679 170.493801,9.45687223 170.880943,10.2297461 C170.880943,10.2297461 171.395785,10.9864974 171.318054,12.9136437 C171.318054,12.9081016 171.368024,14.708283 170.78706,15.4761185 L170.78706,15.4761185 Z M172.081738,20.4075977 C172.081738,20.4075977 174.006846,20.197501 175.141014,18.0496775 C175.141014,18.0496775 176.308496,16.4369206 176.136881,12.6763402 C176.136881,12.6763402 176.396826,9.186316 174.742768,6.99365175 C174.742768,6.99365175 173.647465,5.03879484 170.654311,5 L161,5 L161.005552,30 L165.708287,30 L165.708287,20.9159613 L166.399792,20.9159613 C166.399792,20.9159613 166.975204,20.8051189 167.218493,21.4404474 L171.047005,29.127368 C171.047005,29.127368 171.434146,29.9450826 172.723272,30 L177,30 L172.081738,20.4075977 Z" id="Fill-8" fill="#000000"></path><path d="M72.4071866,17.2986984 C71.8143118,17.861478 70.2839475,17.7346261 70.2839475,17.7346261 L67.9670164,17.7346261 L67.972424,9.50787546 L70.8876376,9.50233827 C71.9170571,9.46357796 72.3314795,9.88893464 72.3314795,9.88893464 C73.3554913,10.5836 73.3663066,13.6018706 73.3663066,13.6018706 C73.4041602,16.6090669 72.4071866,17.2986984 72.4071866,17.2986984 M77.983946,13.4971674 C77.983946,13.4971674 78.1564991,8.77394641 76.3031508,6.78810958 C76.3031508,6.78810958 74.9935169,4.98902699 71.9868649,5.00005045 L61,5.00005045 L61.0108153,9.56878452 L63.462446,9.56878452 L63.4840766,30 L68.0692701,30 L68.0692701,22.3304918 L71.7390963,22.3304918 C71.7390963,22.3304918 74.4222727,22.4739553 76.1630436,20.5374498 C76.1684512,20.5374498 78.1997603,18.7826647 77.983946,13.4971674" id="Fill-10" fill="#000000"></path><polygon id="Fill-12" fill="#000000" points="82 5.00554089 82.0059666 30 87 30 87 5"></polygon><path d="M100.204384,22.3467991 C99.9605101,24.2109186 99.3204021,24.7022803 99.3204021,24.7022803 C98.480446,25.6340855 96.8915536,25.5057713 96.8915536,25.5057713 C95.0859942,25.5668733 94.5710387,24.5571631 94.5710387,24.5571631 C93.9744621,23.859073 93.83348,22.2352879 93.83348,22.2352879 C93.6870566,21.537707 93.6059301,17.3573134 93.6059301,17.3573134 C93.5623988,13.8077976 93.9744621,11.2292942 93.9744621,11.2292942 C94.2401019,9.4542817 95.145355,8.99143422 95.145355,8.99143422 C96.1703192,8.42165827 97.1354278,8.52807755 97.1354278,8.52807755 C98.6323108,8.48887045 99.1685373,9.14164325 99.1685373,9.14164325 C100.052519,10.0515535 100.177177,11.3296032 100.177177,11.3296032 C100.43787,12.5796479 100.442817,17.4856275 100.442817,17.4856275 C100.372573,21.509702 100.204384,22.3467991 100.204384,22.3467991 M104.422963,9.22005745 C104.422963,9.22005745 103.929278,6.47403273 101.896169,5.14557389 C101.896169,5.14557389 100.540762,3.89552926 97.2388147,4.00704037 C97.2388147,4.00704037 93.2369034,3.81711505 91.203794,5.97197814 C91.203794,5.97197814 90.0759377,6.98728934 89.5011267,9.43747866 C89.5011267,9.43747866 88.9263157,12.0383862 89.0079369,16.0736626 C89.0079369,16.0736626 89.0133783,21.7663303 89.2572525,23.2954073 C89.2572525,23.2954073 89.5392166,26.1921502 91.3066861,28.1341747 C91.3066861,28.1341747 92.147137,29.1056962 93.4214167,29.5074417 C93.4214167,29.5074417 94.5492731,30.0375013 97.0543013,29.9926932 C97.0543013,29.9926932 98.2251943,30.0767084 99.9496272,29.6749629 C99.9496272,29.6749629 101.527637,29.4071326 102.676764,28.1173717 C102.676764,28.1173717 103.989134,26.9788382 104.54762,23.9761851 C104.54762,23.9761851 105.04081,22.0509636 104.997279,17.133782 C104.991838,17.1225799 105.0789,11.5638275 104.422963,9.22005745" id="Fill-14" fill="#000000"></path><path d="M108.005436,5 L108,29.9889056 L112.273881,29.9889056 L112.273881,10.8854315 L116.780012,28.1835832 C116.780012,28.1835832 117.180765,30.0055283 119.266068,30 L123.989129,29.9944465 L124,5 L119.818524,5 L119.829396,23.8878831 L115.306958,6.4572538 C115.306958,6.4572538 115.084592,5.00554089 113.714321,5.00554089 L108.005436,5 Z" id="Fill-16" fill="#000000"></path><path d="M129,5 L129,30 L142,30 L142,25.5435133 L133.633765,25.5324437 L133.639388,21.0653907 C133.639388,21.0653907 133.583664,19.7692509 134.861221,19.7637161 L141.002595,19.7692509 L140.985725,15.2579197 L133.645012,15.252385 L133.645012,10.4431832 C133.645012,10.4431832 133.645012,9.4393793 134.833104,9.48365737 L141.944276,9.49472688 L141.944276,5 L129,5 Z" id="Fill-18" fill="#000000"></path><g id="Group-22" transform="translate(180.000000, 23.000000)"><mask id="mask-4" fill="white"><use xlink:href="#path-3"></use></mask><g id="Clip-21"></g><path d="M0.613971429,2.95954286 C0.613971429,1.64897143 1.60954286,0.667114286 2.8734,0.667114286 C4.12311429,0.667114286 5.11868571,1.64897143 5.11868571,2.95954286 C5.11868571,4.2984 4.12311429,5.28025714 2.8734,5.28025714 C1.60482857,5.28025714 0.613971429,4.2984 0.613971429,2.95954286 L0.613971429,2.95954286 Z M2.8734,5.74054286 C4.38111429,5.74054286 5.67797143,4.56625714 5.67797143,2.95482857 C5.67797143,1.36225714 4.38111429,0.202114286 2.8734,0.202114286 C1.34682857,0.202114286 0.0551142857,1.36225714 0.0551142857,2.95482857 C0.0551142857,4.57054286 1.34682857,5.74054286 2.8734,5.74054286 L2.8734,5.74054286 Z M2.28625714,3.18025714 L2.84511429,3.18025714 L3.68597143,4.57054286 L4.22597143,4.57054286 L3.31954286,3.1614 C3.78925714,3.10054286 4.14625714,2.85154286 4.14625714,2.27854286 C4.14625714,1.64897143 3.77554286,1.36697143 3.01911429,1.36697143 L1.80711429,1.36697143 L1.80711429,4.57054286 L2.28625714,4.57054286 L2.28625714,3.18025714 Z M2.28625714,2.76711429 L2.28625714,1.78054286 L2.94368571,1.78054286 C3.28182857,1.78054286 3.63925714,1.85554286 3.63925714,2.25025714 C3.63925714,2.73882857 3.2724,2.76711429 2.85925714,2.76711429 L2.28625714,2.76711429 L2.28625714,2.76711429 Z" id="Fill-20" fill="#000000" mask="url(#mask-4)"></path></g></g></g></svg>