<svg xmlns="http://www.w3.org/2000/svg" xmlns:xlink="http://www.w3.org/1999/xlink" width="200px" height="100px" viewBox="0 0 200 100"><title>Custom Preset</title><desc>Created with Sketch.</desc><defs><polygon id="path-1" points="0 0.224 45.7308676 0.224 45.7308676 46 0 46"></polygon><polygon id="path-3" points="0.6733 0.6057 20.826 0.6057 20.826 37.1847 0.6733 37.1847"></polygon><polygon id="path-5" points="0 46.7764 151.826 46.7764 151.826 1.0004 0 1.0004"></polygon></defs><g id="Custom-Preset" stroke="none" stroke-width="1" fill="none" fill-rule="evenodd"><g id="Group-15" transform="translate(18.000000, 27.000000)"><g id="Group-3" transform="translate(0.000000, 0.776400)"><mask id="mask-2" fill="white"><use xlink:href="#path-1"></use></mask><g id="Clip-2"></g><path d="M44.2133,20.7715 C44.0403,20.9015 43.9533,20.9445 43.8663,21.0315 C41.6993,22.8515 39.2293,23.8925 36.4983,24.3685 C34.4183,24.7155 32.2953,24.9755 30.2143,25.3225 C27.1803,25.8425 24.7533,27.2725 23.2363,30.0465 C21.9803,32.2565 21.3733,34.6835 20.9393,37.1545 C20.8533,37.6305 20.7663,38.1505 20.6793,38.6275 L20.5063,38.6275 C20.5063,38.4545 20.4633,38.3245 20.5063,38.1505 C20.8093,36.2435 21.0263,34.3365 21.4603,32.4735 C22.0663,29.7425 23.1933,27.2725 25.3603,25.4085 C26.1843,24.6725 27.1373,24.0225 28.0043,23.2855 C30.1713,21.4645 32.1213,19.4715 33.3783,16.8705 C34.1583,15.2245 34.6353,13.4905 34.2013,11.6265 C33.8553,10.1535 33.1183,8.8095 32.2513,7.5525 C30.5613,5.1255 28.4373,3.1325 25.5773,2.1355 C24.9703,1.9185 24.2773,1.8315 23.6273,1.6585 C22.9763,4.3895 21.4603,6.4255 19.6393,8.3325 C18.6863,9.3295 17.6893,10.3265 16.7353,11.3665 C14.3083,14.0535 13.4423,17.1305 14.3083,20.6845 C14.7423,22.4185 15.6953,23.8485 16.6923,25.2785 C17.7763,26.8395 18.7723,28.3995 19.2933,30.2625 C19.8993,32.4295 19.7263,34.5965 19.5533,36.7635 C19.5093,37.1975 19.4663,37.5875 19.4233,38.0205 C19.3363,38.0205 19.2933,38.0645 19.2063,38.0645 C18.9023,37.3275 18.5563,36.5905 18.2963,35.8535 C17.9493,34.6835 17.7323,33.4705 17.4293,32.2995 C16.6493,29.2225 14.7423,27.1855 11.6653,26.4925 C10.1043,26.1455 8.5013,26.0595 6.9413,25.9285 C5.2073,25.7555 3.4733,25.4955 1.9573,24.4985 C1.8703,24.4555 1.7833,24.4125 1.6973,24.4125 C1.6533,25.6685 2.2173,28.3995 2.8233,30.0025 C3.9933,33.2535 6.2043,35.3775 9.5413,36.2875 C11.0153,36.6775 12.4883,36.9805 13.9623,37.3275 C16.9523,38.0205 18.8593,39.7975 19.4233,42.8745 C19.5093,43.4385 19.5963,44.0015 19.7263,44.6085 C19.9433,44.6085 20.1163,44.5655 20.2893,44.5655 C20.3763,43.6985 20.4633,42.8745 20.5933,42.0515 C21.1563,38.9745 22.8033,36.7635 25.8803,35.9405 C27.6143,35.4635 29.4343,35.2905 31.2113,34.9875 C33.0313,34.6835 34.9383,34.5105 36.7153,34.1205 C39.5323,33.4705 41.7433,31.9095 43.0863,29.2665 C43.9963,27.4895 44.3863,25.5825 44.6033,23.5885 C44.6463,22.7215 44.5163,21.7685 44.2133,20.7715 M45.7303,23.1115 C45.8173,35.5505 35.6323,46.2555 22.3703,45.9955 C10.0613,45.7785 -0.2967,35.6375 0.0063,22.5485 C0.2663,10.2835 10.3653,-0.0315 23.4103,0.2285 C35.8923,0.4885 45.8173,10.7165 45.7303,23.1115" id="Fill-1" fill="#019E59" mask="url(#mask-2)"></path></g><path d="M104.5425,5.3821 L114.9445,5.3821 C117.2415,12.4461 119.4945,19.4671 121.7915,26.5321 L121.8785,26.5321 L121.8785,5.3821 L130.1565,5.3821 L130.1565,41.9611 L119.6685,41.9611 C117.4145,34.8531 115.1605,27.6591 112.9075,20.5081 L112.7775,20.5081 L112.7775,41.9611 L104.5425,41.9611 L104.5425,5.3821 Z" id="Fill-4" fill="#000000"></path><path d="M69.177,6.7256 L69.177,16.6506 C68.657,16.2606 68.18,15.9566 67.704,15.6106 C65.71,14.1796 63.456,13.8766 61.116,14.1796 C60.596,14.2666 60.032,14.5266 59.556,14.8306 C58.429,15.6106 58.299,17.1276 59.296,18.0376 C59.902,18.6006 60.682,19.0776 61.463,19.4676 C62.633,20.0746 63.89,20.5076 65.06,21.0716 C68.917,22.8916 70.737,25.9686 70.737,30.2596 C70.737,32.3396 70.391,34.3766 69.524,36.2836 C68.05,39.5336 65.45,41.4846 61.939,42.0046 C58.905,42.4376 55.828,42.3946 52.795,41.8306 C51.408,41.5706 50.194,40.9646 48.981,40.3136 L48.981,30.2596 C49.631,30.6926 50.281,31.0826 50.888,31.4726 C52.968,32.7296 55.222,33.3366 57.649,33.0766 C58.169,33.0326 58.689,32.8596 59.165,32.5996 C60.379,31.9926 60.682,30.9096 59.989,29.7826 C59.686,29.3056 59.252,28.8286 58.775,28.5256 C57.475,27.7886 56.088,27.1386 54.745,26.4886 C53.011,25.6216 51.364,24.6246 50.194,23.0646 C48.981,21.4616 48.417,19.6406 48.244,17.6476 C47.984,14.7866 48.461,12.0996 49.977,9.6296 C51.494,7.2026 53.705,5.6426 56.478,5.1216 C59.902,4.4716 63.283,4.4716 66.62,5.5986 C67.487,5.9456 68.354,6.3786 69.177,6.7256" id="Fill-6" fill="#000000"></path><g id="Group-10" transform="translate(131.000000, 4.776400)"><mask id="mask-4" fill="white"><use xlink:href="#path-3"></use></mask><g id="Clip-9"></g><path d="M0.6733,0.6057 L20.2633,0.6057 L20.2633,8.7107 L9.7743,8.7107 L9.7743,14.3877 L19.7863,14.3877 L19.7863,22.5787 L9.8183,22.5787 L9.8183,29.0367 L20.8263,29.0367 L20.8263,37.1847 L0.7163,37.1847 C0.6733,25.0057 0.6733,12.8277 0.6733,0.6057" id="Fill-8" fill="#000000" mask="url(#mask-4)"></path></g><polygon id="Fill-11" fill="#000000" points="86.123 42.0043 76.892 42.0043 76.892 13.7903 70.434 13.7903 70.434 5.4253 92.537 5.4253 92.537 13.7463 86.123 13.7463"></polygon><mask id="mask-6" fill="white"><use xlink:href="#path-5"></use></mask><g id="Clip-14"></g><polygon id="Fill-13" fill="#000000" mask="url(#mask-6)" points="93.881 42.0044 103.069 42.0044 103.069 5.4254 93.881 5.4254"></polygon></g><path d="M176.88,39.76 C177.418667,39.76 177.921333,39.66 178.388,39.46 C178.854667,39.26 179.266667,38.9813333 179.624,38.624 C179.981333,38.2666667 180.26,37.8533333 180.46,37.384 C180.66,36.9146667 180.76,36.4106667 180.76,35.872 C180.76,35.3386667 180.66,34.8386667 180.46,34.372 C180.26,33.9053333 179.981333,33.4946667 179.624,33.14 C179.266667,32.7853333 178.854667,32.5066667 178.388,32.304 C177.921333,32.1013333 177.418667,32 176.88,32 C176.346667,32 175.845333,32.1013333 175.376,32.304 C174.906667,32.5066667 174.493333,32.7853333 174.136,33.14 C173.778667,33.4946667 173.5,33.9053333 173.3,34.372 C173.1,34.8386667 173,35.3386667 173,35.872 C173,36.4106667 173.1,36.9146667 173.3,37.384 C173.5,37.8533333 173.778667,38.2666667 174.136,38.624 C174.493333,38.9813333 174.906667,39.26 175.376,39.46 C175.845333,39.66 176.346667,39.76 176.88,39.76 Z M176.888,38.848 C176.338667,38.848 175.84,38.7133333 175.392,38.444 C174.944,38.1746667 174.586667,37.816 174.32,37.368 C174.053333,36.92 173.92,36.4213333 173.92,35.872 C173.92,35.328 174.053333,34.832 174.32,34.384 C174.586667,33.936 174.944,33.5786667 175.392,33.312 C175.84,33.0453333 176.338667,32.912 176.888,32.912 C177.432,32.912 177.928,33.0453333 178.376,33.312 C178.824,33.5786667 179.181333,33.936 179.448,34.384 C179.714667,34.832 179.848,35.328 179.848,35.872 C179.848,36.4213333 179.714667,36.92 179.448,37.368 C179.181333,37.816 178.824,38.1746667 178.376,38.444 C177.928,38.7133333 177.432,38.848 176.888,38.848 Z M176.2,37.712 L176.2,36.408 L177.104,36.408 L177.744,37.712 L178.448,37.712 L177.744,36.288 C177.968,36.1813333 178.138667,36.028 178.256,35.828 C178.373333,35.628 178.432,35.4186667 178.432,35.2 C178.426667,34.8586667 178.306667,34.572 178.072,34.34 C177.837333,34.108 177.546667,33.992 177.2,33.992 L177.2,33.992 L175.576,33.992 L175.576,37.712 L176.2,37.712 Z M177.2,35.824 L176.2,35.824 L176.2,34.584 L177.2,34.584 C177.354667,34.584 177.492,34.64 177.612,34.752 C177.732,34.864 177.792,35.0133333 177.792,35.2 C177.792,35.376 177.733333,35.524 177.616,35.644 C177.498667,35.764 177.36,35.824 177.2,35.824 L177.2,35.824 Z" id="&#xAE;" fill="#141414" fill-rule="nonzero"></path></g></svg>