<svg xmlns="http://www.w3.org/2000/svg" width="19.908" height="19.908" viewBox="0 0 19.908 19.908">
  <g id="Icon_ionic-ios-checkmark-circle-outline" data-name="Icon ionic-ios-checkmark-circle-outline" transform="translate(0 0)">
    <path id="Trazado_40" data-name="Trazado 40" d="M20.685,13.13l-.842-.866a.181.181,0,0,0-.134-.057h0a.174.174,0,0,0-.134.057l-5.838,5.881L11.612,16.02a.185.185,0,0,0-.268,0l-.852.852a.191.191,0,0,0,0,.273l2.68,2.68a.848.848,0,0,0,.56.273.888.888,0,0,0,.555-.263h0l6.4-6.432A.2.2,0,0,0,20.685,13.13Z" transform="translate(-5.63 -6.196)"/>
    <path id="Trazado_41" data-name="Trazado 41" d="M13.329,4.715A8.611,8.611,0,1,1,7.237,7.237a8.557,8.557,0,0,1,6.092-2.522m0-1.34a9.954,9.954,0,1,0,9.954,9.954,9.952,9.952,0,0,0-9.954-9.954Z" transform="translate(-3.375 -3.375)"/>
  </g>
</svg>
