<svg xmlns="http://www.w3.org/2000/svg" width="13.464" height="17.954" viewBox="0 0 13.464 17.954">
  <path id="Icon_awesome-receipt" data-name="Icon awesome-receipt" d="M12.567.111,11.22,1.682,9.313.111a.557.557,0,0,0-.673,0L6.732,1.682,4.825.111a.557.557,0,0,0-.673,0L2.244,1.682.9.111A.561.561,0,0,0,0,.56V17.39a.561.561,0,0,0,.9.449l1.346-1.571,1.907,1.571a.557.557,0,0,0,.673,0l1.907-1.571,1.907,1.571a.557.557,0,0,0,.673,0l1.907-1.571,1.346,1.571a.561.561,0,0,0,.9-.449V.56a.561.561,0,0,0-.9-.449ZM11.22,12.622a.281.281,0,0,1-.281.281H2.525a.281.281,0,0,1-.281-.281v-.561a.281.281,0,0,1,.281-.281H10.94a.281.281,0,0,1,.281.281Zm0-3.366a.281.281,0,0,1-.281.281H2.525a.281.281,0,0,1-.281-.281V8.695a.281.281,0,0,1,.281-.281H10.94a.281.281,0,0,1,.281.281Zm0-3.366a.281.281,0,0,1-.281.281H2.525a.281.281,0,0,1-.281-.281V5.329a.281.281,0,0,1,.281-.281H10.94a.281.281,0,0,1,.281.281Z" transform="translate(0 0.002)" opacity="0.327"/>
</svg>
