<svg xmlns="http://www.w3.org/2000/svg" width="26.348" height="20.599" viewBox="0 0 26.348 20.599">
  <path id="Trazado_47" data-name="Trazado 47" d="M5.144,13.055a.737.737,0,0,1-.569-.269.945.945,0,0,1,0-1.258.737.737,0,0,1,.569-.269H9.6a1.708,1.708,0,0,1,1.347.539,2.687,2.687,0,0,1,.629,1.258ZM7.689,24.4a3.751,3.751,0,0,0,2.755-1.138,3.9,3.9,0,0,0,0-5.509,3.751,3.751,0,0,0-2.755-1.138,3.751,3.751,0,0,0-2.755,1.138,3.9,3.9,0,0,0,0,5.509A3.751,3.751,0,0,0,7.689,24.4Zm16.617,0a2.249,2.249,0,1,0-1.587-.659A2.164,2.164,0,0,0,24.306,24.4Zm-16.617-1.8a2.1,2.1,0,1,1,1.482-3.578,2.1,2.1,0,0,1-1.482,3.578Zm17.366-4.431A5.4,5.4,0,0,1,26,18.5a5.26,5.26,0,0,1,.853.539V11.259a1.741,1.741,0,0,0-1.8-1.8H16.91L15.443,8,17.3,6.139,16.761,5.6,12.509,9.852l.569.539L14.9,8.564,16.371,10v3.114a2.968,2.968,0,0,1-.853,2.141,2.818,2.818,0,0,1-2.111.883H11.341a4.608,4.608,0,0,1,.793.808q.285.389.644.988h.629A4.532,4.532,0,0,0,16.761,16.5a4.677,4.677,0,0,0,1.407-3.383V11.259h6.886Zm-4.7,3.234a5.372,5.372,0,0,1,.374-1.033,4.286,4.286,0,0,1,.554-.793H13.318a6.993,6.993,0,0,1,0,1.826Zm3.952,4.79a3.973,3.973,0,0,1-2.859-1.138,3.749,3.749,0,0,1-1.183-2.814A4.193,4.193,0,0,1,24.4,18.115,3.749,3.749,0,0,1,27.21,19.3a3.973,3.973,0,0,1,1.138,2.859A4.038,4.038,0,0,1,24.306,26.2Zm-16.677,0a5.387,5.387,0,0,1-4-1.662,5.747,5.747,0,0,1,.03-8.054,5.485,5.485,0,0,1,4.027-1.662,5.485,5.485,0,0,1,4.027,1.662,5.71,5.71,0,0,1,0,8.054A5.555,5.555,0,0,1,7.629,26.2Z" transform="translate(-2 -5.6)" opacity="0.454"/>
</svg>
