<svg xmlns="http://www.w3.org/2000/svg" width="22.881" height="22.795" viewBox="0 0 22.881 22.795">
  <path id="Trazado_53" data-name="Trazado 53" d="M16.423,26.8a2.143,2.143,0,0,1-.655-.1,1.5,1.5,0,0,1-.6-.385L4.484,15.625a1.5,1.5,0,0,1-.385-.6,2.143,2.143,0,0,1-.1-.655V5.71A1.657,1.657,0,0,1,5.71,4h8.662a2.425,2.425,0,0,1,.684.1,1.466,1.466,0,0,1,.627.385L26.311,15.113a1.7,1.7,0,0,1,0,2.536l-8.662,8.662a1.6,1.6,0,0,1-.556.356A1.822,1.822,0,0,1,16.423,26.8Zm.057-1.653,8.662-8.662L14.372,5.71H5.71v8.662ZM8.7,10.155a1.471,1.471,0,0,0,1.04-2.522,1.471,1.471,0,1,0-2.08,2.08A1.423,1.423,0,0,0,8.7,10.155Z" transform="translate(-4 -4)" opacity="0.465"/>
</svg>
