<svg xmlns="http://www.w3.org/2000/svg" width="18.601" height="23.282" viewBox="0 0 18.601 23.282">
  <g id="Icon_ionic-ios-notifications-outline" data-name="Icon ionic-ios-notifications-outline" transform="translate(-6.775 -3.93)">
    <path id="Trazado_1" data-name="Trazado 1" d="M19.392,28.336a.754.754,0,0,0-.739.594,1.458,1.458,0,0,1-.291.634,1.1,1.1,0,0,1-.937.343,1.118,1.118,0,0,1-.937-.343,1.458,1.458,0,0,1-.291-.634.754.754,0,0,0-.739-.594h0a.759.759,0,0,0-.739.925,2.6,2.6,0,0,0,2.706,2.159,2.6,2.6,0,0,0,2.706-2.159.762.762,0,0,0-.739-.925Z" transform="translate(-1.366 -4.207)" fill="#fff"/>
    <path id="Trazado_2" data-name="Trazado 2" d="M25.143,21.172c-.9-1.181-2.659-1.874-2.659-7.163,0-5.429-2.4-7.611-4.632-8.135-.209-.052-.361-.122-.361-.343V5.362a1.427,1.427,0,0,0-1.4-1.431h-.035a1.427,1.427,0,0,0-1.4,1.431v.169c0,.215-.151.291-.361.343C12.061,6.4,9.67,8.58,9.67,14.009c0,5.29-1.763,5.976-2.659,7.163a1.155,1.155,0,0,0,.925,1.85h16.3A1.156,1.156,0,0,0,25.143,21.172Zm-2.269.338H9.3a.255.255,0,0,1-.192-.425,7.05,7.05,0,0,0,1.222-1.944,13.187,13.187,0,0,0,.832-5.132,8.924,8.924,0,0,1,1.216-5.051,3.734,3.734,0,0,1,2.252-1.606,2.039,2.039,0,0,0,1.082-.611.46.46,0,0,1,.692-.012,2.108,2.108,0,0,0,1.094.623,3.734,3.734,0,0,1,2.252,1.606,8.924,8.924,0,0,1,1.216,5.051,13.187,13.187,0,0,0,.832,5.132,7.13,7.13,0,0,0,1.251,1.973A.241.241,0,0,1,22.873,21.51Z" transform="translate(0 0)" fill="#fff"/>
  </g>
</svg>
