<svg xmlns="http://www.w3.org/2000/svg" width="22.318" height="22.318" viewBox="0 0 22.318 22.318">
  <path id="Icon_awesome-user-circle" data-name="Icon awesome-user-circle" d="M11.159.563A11.159,11.159,0,1,0,22.318,11.721,11.157,11.157,0,0,0,11.159.563Zm0,4.32A3.96,3.96,0,1,1,7.2,8.842,3.96,3.96,0,0,1,11.159,4.882Zm0,15.478a8.622,8.622,0,0,1-6.592-3.069A5.017,5.017,0,0,1,9,14.6a1.1,1.1,0,0,1,.319.049,5.957,5.957,0,0,0,1.84.31,5.935,5.935,0,0,0,1.84-.31,1.1,1.1,0,0,1,.319-.049,5.017,5.017,0,0,1,4.432,2.691A8.622,8.622,0,0,1,11.159,20.36Z" transform="translate(0 -0.563)" fill="#fff"/>
</svg>
